<svg width="18" height="18" viewBox="0 0 18 18" fill="none" xmlns="http://www.w3.org/2000/svg">
<path d="M9.02567 13.7942C9.22856 13.7942 9.39967 13.7245 9.539 13.5852C9.67833 13.4458 9.74769 13.2747 9.74708 13.0718C9.74647 12.8689 9.6765 12.6978 9.53717 12.5585C9.39783 12.4192 9.22672 12.3495 9.02383 12.3495C8.82094 12.3495 8.64983 12.4195 8.5105 12.5594C8.37117 12.6994 8.3015 12.8705 8.3015 13.0728C8.3015 13.275 8.37178 13.4461 8.51233 13.5861C8.65289 13.726 8.824 13.7957 9.02567 13.7951M8.55267 10.7591H9.43725C9.46047 10.3606 9.53533 10.0368 9.66183 9.78742C9.78833 9.5387 10.0484 9.22092 10.4419 8.83408C10.8514 8.42525 11.1557 8.05889 11.3549 7.735C11.5548 7.41111 11.6547 7.0365 11.6547 6.61117C11.6547 5.88883 11.4011 5.31317 10.8938 4.88417C10.3866 4.45517 9.78589 4.24067 9.09167 4.24067C8.43228 4.24067 7.8725 4.41972 7.41233 4.77783C6.95217 5.13595 6.61514 5.54783 6.40125 6.0135L7.24458 6.36275C7.39125 6.02908 7.60117 5.73422 7.87433 5.47817C8.1475 5.22211 8.54167 5.09378 9.05683 5.09317C9.65144 5.09317 10.0853 5.25634 10.3585 5.58267C10.6329 5.909 10.7701 6.26772 10.7701 6.65883C10.7701 6.97661 10.6842 7.26017 10.5125 7.5095C10.3408 7.75883 10.1177 8.01 9.84333 8.263C9.31167 8.75311 8.96333 9.16867 8.79833 9.50967C8.63456 9.85006 8.55267 10.2665 8.55267 10.7591ZM9.00275 17.25C7.86242 17.25 6.78992 17.0337 5.78525 16.601C4.78119 16.1677 3.90761 15.5798 3.1645 14.8373C2.42139 14.0948 1.83319 13.2222 1.39992 12.2193C0.966639 11.2165 0.75 10.1443 0.75 9.00275C0.75 7.8612 0.966333 6.7887 1.399 5.78525C1.83167 4.78181 2.41956 3.90822 3.16267 3.1645C3.90578 2.42078 4.77844 1.83258 5.78067 1.39992C6.78289 0.967251 7.85508 0.750612 8.99725 0.750001C10.1394 0.74939 11.2119 0.965723 12.2148 1.399C13.2176 1.83228 14.0912 2.42017 14.8355 3.16267C15.5798 3.90517 16.168 4.77783 16.6001 5.78067C17.0321 6.7835 17.2488 7.8557 17.25 8.99725C17.2512 10.1388 17.0349 11.2113 16.601 12.2148C16.1671 13.2182 15.5792 14.0918 14.8373 14.8355C14.0954 15.5792 13.2228 16.1674 12.2193 16.6001C11.2159 17.0328 10.1437 17.2494 9.00275 17.25Z" fill="#FFCE38"/>
</svg>
