<svg width="29" height="14" viewBox="0 0 29 14" fill="none" xmlns="http://www.w3.org/2000/svg">
<rect width="29" height="14" rx="7" fill="#FFC01C"/>
<path fill-rule="evenodd" clip-rule="evenodd" d="M7.00022 10.8889C7.51091 10.8889 8.01661 10.7892 8.48843 10.5954C8.96025 10.4017 9.38896 10.1177 9.75008 9.75966C10.1112 9.40165 10.3976 8.97664 10.5931 8.50887C10.7885 8.04111 10.8891 7.53977 10.8891 7.03347C10.8891 6.52717 10.7885 6.02582 10.5931 5.55806C10.3976 5.0903 10.1112 4.66528 9.75008 4.30727C9.38896 3.94926 8.96025 3.66528 8.48843 3.47152C8.01661 3.27777 7.51091 3.17805 7.00022 3.17805C5.96882 3.17805 4.97967 3.58424 4.25036 4.30727C3.52105 5.0303 3.11133 6.01095 3.11133 7.03347C3.11133 8.05599 3.52105 9.03663 4.25036 9.75966C4.97967 10.4827 5.96882 10.8889 7.00022 10.8889ZM7.00022 4.99866C7.08617 4.99866 7.1686 5.03251 7.22937 5.09276C7.29015 5.15302 7.32429 5.23474 7.32429 5.31995V7.03347C7.32429 7.11868 7.29015 7.2004 7.22937 7.26065C7.1686 7.3209 7.08617 7.35475 7.00022 7.35475C6.91427 7.35475 6.83184 7.3209 6.77106 7.26065C6.71029 7.2004 6.67614 7.11868 6.67614 7.03347V5.31995C6.67614 5.23474 6.71029 5.15302 6.77106 5.09276C6.83184 5.03251 6.91427 4.99866 7.00022 4.99866ZM5.81195 2.32129C5.81195 2.23608 5.84609 2.15435 5.90686 2.0941C5.96764 2.03385 6.05007 2 6.13602 2H7.86441C7.95036 2 8.03279 2.03385 8.09357 2.0941C8.15435 2.15435 8.18849 2.23608 8.18849 2.32129C8.18849 2.4065 8.15435 2.48822 8.09357 2.54847C8.03279 2.60872 7.95036 2.64257 7.86441 2.64257H6.13602C6.05007 2.64257 5.96764 2.60872 5.90686 2.54847C5.84609 2.48822 5.81195 2.4065 5.81195 2.32129Z" fill="white"/>
<circle cx="15" cy="7" r="1" fill="white"/>
<path d="M25.7499 6.40782C25.8557 6.46609 25.944 6.55169 26.0054 6.6557C26.0669 6.75971 26.0993 6.87831 26.0993 6.99912C26.0993 7.11993 26.0669 7.23853 26.0054 7.34254C25.944 7.44655 25.8557 7.53215 25.7499 7.59042L21.2499 10.0645C21.1471 10.121 21.0314 10.1497 20.9141 10.1478C20.7969 10.1459 20.6821 10.1135 20.5812 10.0538C20.4803 9.99403 20.3967 9.90904 20.3386 9.80717C20.2805 9.70529 20.25 9.59004 20.25 9.47277V4.52547C20.25 4.40818 20.2806 4.29291 20.3387 4.19103C20.3969 4.08916 20.4806 4.00419 20.5815 3.94451C20.6825 3.88482 20.7973 3.85248 20.9146 3.85067C21.0318 3.84885 21.1476 3.87763 21.2503 3.93417L25.7499 6.40782Z" fill="white"/>
</svg>
