<svg width="176" height="119" viewBox="0 0 176 119" fill="none" xmlns="http://www.w3.org/2000/svg">
<path d="M67.4149 102.251C104.647 107.213 142.813 100.203 152.66 86.5936C162.508 72.9838 140.309 57.9281 103.076 52.9656C65.8441 48.0031 27.6783 55.0131 17.8307 68.6228C7.98308 82.2325 30.1827 97.2883 67.4149 102.251Z" fill="#EEEEEF"/>
<path fill-rule="evenodd" clip-rule="evenodd" d="M132.741 88.2991C143.788 90.4127 153.878 95.8549 159.61 103.781C160.48 105.416 162.17 106.449 164.021 106.479C165.873 106.509 167.595 105.531 168.517 103.925C169.439 102.319 169.416 100.339 168.457 98.7549C163.161 90.349 157.006 84.4402 149.992 81.0287C157.748 83.5422 164.449 83.9118 170.095 82.1379C170.685 81.9249 172.746 80.9427 173.377 80.1639C174.762 78.6791 175.638 75.5884 175.5 72.0544C175.336 67.8401 173.783 64.3667 171.85 63.5328C168.856 61.532 166.011 63.3523 163.317 68.9937C151.908 67.3144 143.986 64.1264 133.433 57.809C118.669 49.2069 103.174 47.298 88.7557 49.8169C77.65 43.4104 69.0205 37.7197 62.6819 32.5956C59.8165 29.9761 57.9436 29.1103 57.0632 29.9982C56.5358 29.6453 55.888 29.521 55.2674 29.6535C54.6469 29.7859 54.1063 30.1639 53.7688 30.7013C53.1562 30.6732 52.5651 30.931 52.1689 31.3992C51.7728 31.8674 51.6163 32.4929 51.7454 33.0925C50.8589 33.879 50.9136 35.1916 51.9092 37.0301C52.0476 37.2856 53.1029 38.9978 53.2777 39.2736C52.6305 39.2973 51.9873 39.345 51.3491 39.4157C49.0746 37.4471 47.3104 36.5338 46.0565 36.6759C44.8333 36.9124 43.68 38.6817 42.5965 41.9838C40.8077 42.8705 39.1228 43.9599 37.5769 45.2319C36.5686 44.8802 35.4479 45.1358 34.692 45.8901C33.9361 46.6443 33.6779 47.7644 34.0274 48.7735C33.0882 49.9099 32.2379 51.1344 31.4901 52.4387C29.6563 55.6373 28.5492 59.1242 28.1669 62.6701C19.0833 68.8789 14.6549 73.5316 14.8819 76.6265C15.4206 78.4911 18.6101 79.618 24.4503 80.0076C21.1249 80.4635 17.4685 80.9079 13.4809 81.3408C8.083 81.7352 5.41637 82.8183 5.48121 84.5902C4.82683 84.7051 4.26475 85.1214 3.96397 85.7138C3.66324 86.3062 3.65886 87.0056 3.95236 87.6017C3.63151 88.3008 3.64292 89.1071 3.98335 89.7968C4.32378 90.4864 4.95693 90.9859 5.70692 91.1564C6.01963 92.6457 8.47311 93.5142 13.7472 93.7544C36.4906 94.2309 60.9049 90.2284 96.9692 100.449C112.423 104.583 122.534 110.159 132.515 115.67C138.73 119.446 145.022 119.372 151.392 115.448C154.186 113.931 154.459 110.265 152.209 104.449C150.78 100.81 148.956 99.5984 146.735 100.813C145.402 100.115 144.13 100.14 142.919 100.888C135.582 94.6915 133.69 91.4936 132.741 88.2991Z" fill="#FFBF1C"/>
<path fill-rule="evenodd" clip-rule="evenodd" d="M37.6024 45.2469C36.5941 44.8951 35.4734 45.1508 34.7176 45.905C33.9616 46.6593 33.7034 47.7794 34.0529 48.7885C37.6093 48.108 38.7924 46.9275 37.6024 45.2469Z" fill="#FFE7A6"/>
<path d="M59.1925 32.5745C59.545 32.3069 59.5563 31.7283 59.2177 31.2822C58.879 30.836 58.3188 30.6912 57.9662 30.9587C57.6137 31.2263 57.6024 31.8049 57.9411 32.251C58.2797 32.6972 58.84 32.842 59.1925 32.5745Z" fill="#FFF1CF"/>
<path d="M56.8033 32.2119C57.1276 31.9108 57.0815 31.3339 56.7004 30.9235C56.3192 30.513 55.7473 30.4244 55.423 30.7256C55.0987 31.0267 55.1448 31.6036 55.526 32.014C55.9071 32.4245 56.479 32.5131 56.8033 32.2119Z" fill="#FFF1CF"/>
<path d="M54.6703 33.7371C54.9631 33.4053 54.8601 32.8358 54.4402 32.4651C54.0203 32.0945 53.4424 32.0629 53.1496 32.3947C52.8567 32.7265 52.9597 33.296 53.3796 33.6666C53.7996 34.0373 54.3774 34.0688 54.6703 33.7371Z" fill="#FFF1CF"/>
<path d="M54.1173 36.169C54.3759 35.8098 54.217 35.2534 53.7624 34.9261C53.3078 34.5989 52.7297 34.6247 52.4711 34.9839C52.2125 35.3431 52.3714 35.8995 52.826 36.2268C53.2806 36.554 53.8587 36.5282 54.1173 36.169Z" fill="#FFF1CF"/>
<path d="M10.0865 83.8209C10.0704 83.2826 9.50507 82.8628 8.82381 82.8832C8.14256 82.9035 7.60333 83.3564 7.61942 83.8946C7.63552 84.4329 8.20083 84.8528 8.88208 84.8324C9.56334 84.812 10.1026 84.3592 10.0865 83.8209Z" fill="#FFF1CF"/>
<path d="M8.15789 86.5634C8.21458 86.0279 7.7111 85.5356 7.03333 85.4639C6.35555 85.3921 5.76015 85.7681 5.70345 86.3036C5.64675 86.8391 6.15024 87.3314 6.82801 87.4031C7.50578 87.4749 8.10119 87.0989 8.15789 86.5634Z" fill="#FFF1CF"/>
<path d="M5.5945 89.5644C5.46606 89.0415 5.8985 88.4857 6.56039 88.3231C7.22228 88.1606 7.86298 88.4527 7.99142 88.9757C8.11987 89.4987 7.68743 90.0544 7.02554 90.217C6.36365 90.3795 5.72295 90.0874 5.5945 89.5644Z" fill="#FFF1CF"/>
<path d="M8.06672 91.6982C7.86887 91.1973 8.22235 90.5883 8.85625 90.3379C9.49014 90.0875 10.1644 90.2905 10.3622 90.7914C10.5601 91.2922 10.2066 91.9012 9.57272 92.1516C8.93882 92.4021 8.26456 92.199 8.06672 91.6982Z" fill="#FFF1CF"/>
<path fill-rule="evenodd" clip-rule="evenodd" d="M59.9545 33.5249C59.6638 33.4511 59.3602 33.4858 58.9047 33.5639C58.4492 33.642 57.8419 33.7635 57.3386 33.9413C56.8354 34.1192 56.4363 34.3534 56.1066 34.6571C55.7769 34.9608 55.5166 35.3338 55.2954 35.7503C55.0741 36.1667 54.8919 36.6266 54.8182 36.9867C54.7444 37.3467 54.7792 37.607 54.9093 37.8499C55.0394 38.0929 55.265 38.3184 55.573 38.3661C55.881 38.4139 56.2715 38.2838 56.9222 37.9194C57.5729 37.555 58.4839 36.9563 59.1649 36.4314C59.846 35.9065 60.2972 35.4553 60.5315 35.0562C60.7657 34.6571 60.783 34.3101 60.6529 34.0454C60.5228 33.7808 60.2451 33.5986 59.9545 33.5249Z" fill="#FFF1CF"/>
<path fill-rule="evenodd" clip-rule="evenodd" d="M12.0891 83.8626C11.6518 84.1258 11.2145 84.5226 10.8379 84.9761C10.4613 85.4297 10.1454 85.9399 9.98752 86.4623C9.8296 86.9846 9.8296 87.5191 9.93893 88.001C10.0483 88.4828 10.2669 88.9121 10.6314 89.4587C10.9958 90.0054 11.506 90.6695 11.9959 90.8841C12.4859 91.0987 12.9557 90.8638 13.312 90.2969C13.6683 89.7301 13.9113 88.8311 14.0287 87.9078C14.1462 86.9846 14.1381 86.0371 14.0125 85.2718C13.887 84.5065 13.644 83.9233 13.3039 83.6966C12.9638 83.4698 12.5264 83.5994 12.0891 83.8626Z" fill="#FFF1CF"/>
<path d="M139.649 111.117C140.322 110.781 140.562 109.899 140.186 109.146C139.81 108.393 138.96 108.055 138.288 108.391C137.615 108.727 137.375 109.609 137.751 110.362C138.127 111.115 138.977 111.453 139.649 111.117Z" fill="#FFF1CF"/>
<path d="M141.821 107.38C142.493 107.044 142.733 106.161 142.357 105.408C141.981 104.656 141.131 104.318 140.459 104.654C139.787 104.99 139.547 105.872 139.923 106.625C140.299 107.378 141.149 107.716 141.821 107.38Z" fill="#FFF1CF"/>
<path d="M145.15 105.447C145.822 105.111 146.062 104.228 145.686 103.476C145.31 102.723 144.46 102.385 143.788 102.721C143.116 103.057 142.875 103.939 143.251 104.692C143.627 105.445 144.477 105.783 145.15 105.447Z" fill="#FFF1CF"/>
<path d="M149.432 104.705C150.104 104.369 150.344 103.486 149.968 102.734C149.592 101.981 148.742 101.643 148.07 101.979C147.398 102.315 147.157 103.197 147.533 103.95C147.91 104.703 148.759 105.041 149.432 104.705Z" fill="#FFF1CF"/>
<path fill-rule="evenodd" clip-rule="evenodd" d="M141.956 112.198C141.862 111.613 142.225 110.658 142.723 109.79C143.221 108.922 143.853 108.142 144.532 107.644C145.212 107.146 145.938 106.931 146.9 106.796C147.862 106.662 149.06 106.608 149.88 106.655C150.701 106.702 151.145 106.85 151.421 107.173C151.697 107.496 151.804 107.994 151.461 108.572C151.118 109.151 150.324 109.81 149.517 110.422C148.71 111.034 147.889 111.599 146.826 112.057C145.763 112.514 144.458 112.864 143.53 112.931C142.602 112.999 142.05 112.783 141.956 112.198Z" fill="#FFF1CF"/>
<path fill-rule="evenodd" clip-rule="evenodd" d="M174.301 71.3881C174.017 70.8429 173.724 70.553 173.348 70.5192C172.972 70.4854 172.513 70.7077 172.101 71.3536C171.688 71.9994 171.321 73.0688 170.982 73.9499C170.643 74.8309 170.331 75.5235 170.432 75.8794C170.533 76.2353 171.046 76.2545 171.679 76.0375C172.312 75.8206 173.063 75.3675 173.659 74.911C174.255 74.4544 174.696 73.9944 174.778 73.3641C174.861 72.7338 174.586 71.9332 174.301 71.3881Z" fill="#FFF1CF"/>
<path fill-rule="evenodd" clip-rule="evenodd" d="M169.002 68.1075C169.34 68.3823 169.553 68.7824 169.591 69.2167C169.63 69.651 169.491 70.0824 169.207 70.4126C169.004 69.633 168.935 68.8644 169.002 68.1075Z" fill="#FFF1CF"/>
<path fill-rule="evenodd" clip-rule="evenodd" d="M168.182 72.8715C168.732 73.5484 168.869 74.4712 168.541 75.2791C168.195 74.652 168.075 73.8494 168.182 72.8715Z" fill="#FFF1CF"/>
<path fill-rule="evenodd" clip-rule="evenodd" d="M171.358 66.3401C172.029 66.938 172.098 67.9636 171.512 68.6453C171.295 67.7959 171.244 67.0275 171.358 66.3401Z" fill="#FFF1CF"/>
<path fill-rule="evenodd" clip-rule="evenodd" d="M173.842 67.6208C174.455 68.1266 174.578 69.0175 174.124 69.6699C173.876 69.0171 173.78 68.3164 173.842 67.6208Z" fill="#FFF1CF"/>
<path fill-rule="evenodd" clip-rule="evenodd" d="M43.101 42.2763C38.9115 44.2867 35.3481 47.393 32.786 51.2613C32.6815 51.4193 32.0139 52.5176 31.9126 52.6781C38.7327 55.7316 43.9354 54.6778 46.3916 51.3948C48.3566 48.5151 47.2597 45.4756 43.101 42.2763Z" fill="#FFE7A6"/>
<path fill-rule="evenodd" clip-rule="evenodd" d="M38.271 47.3452C39.3551 47.9334 39.4583 48.9984 38.5806 50.5404C44.9693 52.6008 46.283 51.2377 42.5217 46.4513C40.9641 47.5031 39.5472 47.8011 38.271 47.3452Z" fill="#F88A8D"/>
<path fill-rule="evenodd" clip-rule="evenodd" d="M155.288 98.9632C155.288 98.9632 155.582 96.4176 157.544 94.8565C159.505 93.2954 161.324 92.707 163.637 92.0605L163.638 92.0602C163.264 91.613 162.876 91.1641 162.473 90.7135C161.185 91.0331 158.782 91.7476 157.129 92.9493C155.353 94.2411 154.353 96.3845 153.888 97.7517C154.346 98.1268 154.812 98.5317 155.288 98.9667L155.288 98.9632Z" fill="#FFDB7F"/>
<path fill-rule="evenodd" clip-rule="evenodd" d="M158.925 102.853C159.03 102.257 159.498 100.236 161.154 98.9174C163.069 97.3934 164.705 97.0346 166.933 96.4169C166.569 95.8887 166.196 95.3641 165.813 94.843C164.48 95.1906 162.283 95.8879 160.74 97.0102C159.152 98.165 158.184 100 157.665 101.354C158.104 101.844 158.524 102.344 158.925 102.853Z" fill="#FFDB7F"/>
<path fill-rule="evenodd" clip-rule="evenodd" d="M124.201 53.3179C107.007 46.7084 87.8607 47.402 71.1902 55.2381C67.1567 54.1417 62.8436 54.9278 59.4561 57.3768C56.0687 59.8257 53.9702 63.675 53.7468 67.849C71.4438 83.1847 96.7566 86.0408 117.426 75.0339C127.422 68.963 131.255 63.2834 128.925 57.9952C127.886 55.9765 126.312 54.4174 124.201 53.3179Z" fill="#FFDB7F"/>
<path fill-rule="evenodd" clip-rule="evenodd" d="M16.1229 76.131C16.4007 77.3068 20.9249 77.1421 29.6954 75.6368C27.4717 72.4937 26.5832 68.5979 27.2242 64.8016C19.8737 70.0152 16.1733 73.7917 16.1229 76.131Z" fill="#FFDB7F"/>
<path fill-rule="evenodd" clip-rule="evenodd" d="M49.0826 39.7883C47.6499 40.0773 46.2438 40.4857 44.8792 41.0092C45.266 39.3558 45.6829 38.4719 46.1299 38.3573C46.6967 38.207 47.681 38.684 49.0826 39.7883Z" fill="#FFDB7F"/>
<path d="M12.5241 94.2078C12.4482 94.2058 12.3768 94.1863 12.3136 94.1535C10.6218 94.0228 9.24188 93.8068 8.17407 93.5053C6.59995 93.0608 5.64805 92.4089 5.31835 91.5498C4.97889 91.4378 4.66536 91.2683 4.3906 91.0517L4.39156 91.0505L4.3906 91.0497C4.03911 90.7725 3.74915 90.4187 3.54721 90.0096C3.34507 89.6001 3.24053 89.1543 3.23422 88.7061C3.22897 88.3335 3.29234 87.9601 3.42438 87.6052C3.30593 87.2989 3.24772 86.9754 3.24965 86.6522C3.25214 86.2527 3.34558 85.8552 3.5297 85.4925C3.71489 85.1277 3.98053 84.8172 4.30047 84.5802C4.51752 84.4195 4.75898 84.2925 5.01656 84.2053C5.15178 83.2818 5.8961 82.5451 7.24958 81.9953C8.62968 81.4347 10.6955 81.0539 13.4465 80.8529L13.447 80.8528C15.9002 80.5865 18.2253 80.3168 20.4247 80.0439C19.2934 79.8511 18.3238 79.6121 17.516 79.3266C15.7647 78.7077 14.731 77.8519 14.4152 76.7593C14.4055 76.7257 14.3996 76.6919 14.3972 76.6583L14.3962 76.6584C14.2723 74.969 15.3672 72.9089 17.6806 70.4783C19.8887 68.1584 23.2314 65.4625 27.7084 62.3907C27.9115 60.6458 28.2869 58.9165 28.8349 57.2295C29.3977 55.4965 30.1418 53.8087 31.0672 52.1946C31.4424 51.5402 31.8478 50.8991 32.2813 50.2727C32.6682 49.7139 33.0709 49.1765 33.4882 48.6612C33.3586 48.15 33.3561 47.6237 33.4709 47.1253C33.6064 46.5375 33.9046 45.9867 34.3491 45.5431C34.7925 45.1007 35.3439 44.8041 35.933 44.6698C36.4326 44.5558 36.9593 44.5593 37.47 44.6901C38.9363 43.5074 40.5217 42.4844 42.198 41.6372C42.733 40.0402 43.2893 38.7988 43.8666 37.9132C44.5188 36.9125 45.2184 36.3399 45.965 36.1956C45.9789 36.1929 45.9928 36.1909 46.0066 36.1894C46.7294 36.1087 47.5749 36.3187 48.5427 36.8197C49.4164 37.2719 50.4043 37.9681 51.5065 38.908C51.8137 38.8764 52.1221 38.8501 52.4314 38.8292C52.2876 38.5958 52.1286 38.3369 51.9833 38.0986C51.7456 37.7089 51.5394 37.3667 51.4807 37.2581C50.948 36.2745 50.6663 35.4161 50.6358 34.6834C50.6064 33.9762 50.8034 33.3887 51.2267 32.9209C51.1979 32.636 51.2193 32.3502 51.2878 32.0762C51.378 31.7155 51.5504 31.3747 51.7975 31.0827C52.044 30.7914 52.3517 30.5653 52.6933 30.4162C52.9515 30.3036 53.2288 30.2353 53.5135 30.2163C53.6897 29.9883 53.8992 29.7893 54.1339 29.6252C54.4429 29.4091 54.7934 29.2547 55.1664 29.1751C55.5405 29.0953 55.923 29.0929 56.2915 29.1636C56.5428 29.2118 56.7882 29.2946 57.0204 29.4104C57.5981 29.0498 58.3686 29.0922 59.3318 29.5375C60.3044 29.9872 61.5197 30.8769 62.9774 32.2063C65.969 34.6195 69.4888 37.1745 73.5371 39.8712C78.0072 42.849 83.1102 45.9941 88.8455 49.306C93.5395 48.4978 98.3464 48.1559 103.205 48.3577C113.328 48.7781 123.67 51.5557 133.676 57.3858C133.684 57.3903 133.692 57.3949 133.699 57.3998C139.062 60.6092 143.747 63.0067 148.554 64.8045C153.046 66.4846 157.655 67.6445 163.034 68.4581C164.372 65.7362 165.764 63.912 167.209 62.9866L167.208 62.9857C168.809 61.9613 170.446 62.0083 172.12 63.1268L172.145 63.1443C172.276 63.2449 172.391 63.3479 172.491 63.4542C174.069 63.854 174.912 65.0268 175.377 66.6193C175.825 68.1529 175.909 70.068 175.985 72.0348C176.055 73.8207 175.872 75.4997 175.498 76.9286C175.104 78.4339 174.494 79.6732 173.74 80.4857C173.447 80.8381 172.934 81.2081 172.382 81.5401C171.591 82.0156 170.69 82.4308 170.294 82.5792C170.276 82.5871 170.258 82.5941 170.239 82.6C167.362 83.5043 164.218 83.8623 160.808 83.6742C158.59 83.5518 156.26 83.198 153.817 82.6128C155.267 83.5359 156.677 84.5737 158.048 85.7264C161.985 89.0377 165.592 93.2936 168.869 98.4936L168.868 98.494L168.872 98.5012C169.398 99.3691 169.667 100.346 169.678 101.326C169.689 102.303 169.443 103.285 168.938 104.165C168.432 105.045 167.708 105.753 166.857 106.236C166.006 106.719 165.028 106.979 164.013 106.962C162.998 106.946 162.028 106.655 161.194 106.144C160.367 105.638 159.671 104.917 159.195 104.035C156.431 100.223 152.64 96.9932 148.215 94.4436C143.802 91.9007 138.755 90.0329 133.462 88.9366C134.475 91.7806 136.555 94.8396 142.974 100.295C143.297 100.126 143.625 100.002 143.959 99.9224C144.861 99.7082 145.785 99.8231 146.73 100.267C147.924 99.6866 149.027 99.7319 150.037 100.403C151.035 101.066 151.91 102.355 152.662 104.269C152.666 104.279 152.669 104.288 152.672 104.297C155.01 110.356 154.665 114.213 151.635 115.866C145.112 119.88 138.666 119.958 132.297 116.103L132.281 116.095C127.293 113.34 122.272 110.57 116.593 107.983C110.912 105.395 104.546 102.977 96.8434 100.917L96.8376 100.915C69.2863 93.107 48.5404 93.6203 30.1405 94.0756C25.0195 94.2023 20.0796 94.3245 15.2219 94.2625C15.1728 94.2781 15.1203 94.286 15.0659 94.2849C14.5736 94.2737 14.1002 94.2572 13.6456 94.2356C13.2713 94.2276 12.8975 94.2184 12.5241 94.2078ZM151.764 104.644C151.761 104.637 151.759 104.631 151.756 104.624C151.079 102.9 150.327 101.763 149.501 101.214C148.751 100.716 147.906 100.724 146.967 101.238C146.815 101.321 146.638 101.313 146.497 101.234C145.693 100.817 144.922 100.695 144.183 100.871C143.422 101.051 142.675 101.548 141.943 102.36C141.875 102.435 141.79 102.484 141.699 102.507C140.592 102.821 139.686 103.27 138.98 103.853C138.286 104.427 137.783 105.135 137.472 105.978C137.433 106.084 137.36 106.169 137.27 106.224C136.275 106.918 135.695 107.659 135.531 108.448C135.367 109.234 135.613 110.105 136.267 111.061C136.418 111.283 136.361 111.586 136.139 111.737C135.917 111.888 135.615 111.831 135.463 111.61C134.654 110.426 134.359 109.306 134.579 108.25C134.789 107.239 135.467 106.322 136.613 105.499C136.989 104.554 137.571 103.755 138.359 103.103C139.143 102.455 140.128 101.956 141.314 101.605C141.581 101.319 141.851 101.067 142.126 100.85C133.315 93.3219 132.618 90.2234 131.67 86.0027L131.631 85.8265C131.572 85.5647 131.737 85.3047 131.998 85.2458C132.26 85.1869 132.52 85.3515 132.579 85.6133L132.619 85.7894C132.78 86.5088 132.934 87.1941 133.127 87.876C138.709 88.9754 144.044 90.92 148.699 93.602C153.255 96.227 157.158 99.5574 160.004 103.493C160.018 103.511 160.03 103.53 160.04 103.55C160.434 104.29 161.012 104.893 161.701 105.314C162.391 105.737 163.192 105.978 164.029 105.991C164.866 106.005 165.674 105.79 166.377 105.39C167.081 104.991 167.679 104.407 168.096 103.681C168.513 102.955 168.716 102.143 168.707 101.333C168.698 100.528 168.477 99.7255 168.047 99.0111L168.046 99.0114C164.822 93.8939 161.281 89.713 157.424 86.4689C153.581 83.2373 149.42 80.9324 144.941 79.5544C143.559 79.1662 142.33 78.6808 141.254 78.0986C140.167 77.5102 139.236 76.8221 138.46 76.0346C138.272 75.8433 138.275 75.5355 138.466 75.3473C138.657 75.1591 138.965 75.1617 139.153 75.353C139.859 76.0699 140.713 76.6996 141.715 77.2418C142.728 77.7903 143.891 78.249 145.204 78.6178L145.215 78.6217C146.912 79.143 148.564 79.7938 150.171 80.5737C153.998 81.8112 157.561 82.5211 160.861 82.7032C164.152 82.8847 167.182 82.5407 169.95 81.6709L169.958 81.6684C170.312 81.5364 171.139 81.1536 171.883 80.7061C172.351 80.425 172.774 80.1262 172.988 79.8696C172.999 79.8561 173.01 79.8429 173.021 79.8303C173.671 79.1339 174.203 78.0376 174.557 76.6849C174.909 75.343 175.08 73.7598 175.014 72.0691C174.94 70.1647 174.859 68.312 174.444 66.8896C174.185 66.0023 173.79 65.2817 173.169 64.8262C173.229 65.0831 173.277 65.3604 173.329 65.663L173.356 65.8154C173.401 66.0803 173.223 66.3319 172.958 66.377C172.693 66.4222 172.441 66.2441 172.396 65.9791L172.37 65.8268C172.22 64.9574 172.114 64.3495 171.562 63.9223C170.248 63.0516 168.972 63.0121 167.734 63.8044L167.733 63.8035L167.732 63.8044C166.49 64.5994 165.262 66.2001 164.049 68.6061L164.179 68.6244C164.445 68.6612 164.631 68.9067 164.594 69.1727C164.557 69.4387 164.311 69.6245 164.045 69.5877C163.783 69.5512 163.523 69.5138 163.264 69.4757C163.253 69.4745 163.242 69.4728 163.23 69.4707C157.64 68.645 152.87 67.4556 148.215 65.7146C143.345 63.8931 138.61 61.4714 133.2 58.2336L133.189 58.2274C123.326 52.4805 113.136 49.7427 103.167 49.3287C94.2485 48.9584 85.5035 50.4463 77.3231 53.302L77.3116 53.3061L77.3094 53.3068C75.2908 54.0119 73.3065 54.8 71.3626 55.6643C71.1176 55.7737 70.8303 55.6637 70.721 55.4187C70.6116 55.1737 70.7216 54.8864 70.9666 54.777C72.7676 53.9763 74.6029 53.2401 76.4678 52.5737C74.4611 48.773 71.36 45.6756 67.6852 43.4765C63.717 41.1017 59.084 39.7748 54.4397 39.7398C54.063 39.7369 53.6873 39.7424 53.313 39.756C53.3017 39.7568 53.2904 39.7572 53.2791 39.7572C50.6443 39.856 48.0753 40.3571 45.6492 41.2167C44.6824 41.5593 43.7387 41.9586 42.8228 42.4119C42.8159 42.4156 42.8088 42.419 42.8018 42.4224C41.1762 43.2288 39.6387 44.2055 38.2163 45.3368C38.5213 45.8941 38.6007 46.4103 38.4546 46.8854L38.4556 46.886C39.0529 47.0969 39.7004 47.1055 40.3977 46.9118C40.9715 46.7524 41.5803 46.459 42.2243 46.0315L42.2329 46.0258C42.624 45.7655 43.0281 45.4558 43.445 45.0968C43.6479 44.9212 43.9548 44.9433 44.1304 45.1463C44.306 45.3492 44.2838 45.6561 44.0809 45.8317C43.7791 46.0916 43.4821 46.3283 43.1897 46.5419C44.2049 47.8971 44.8063 48.9834 44.9937 49.8005C45.1343 50.4137 45.0587 50.9097 44.7667 51.288C44.4833 51.6555 44.0196 51.8708 43.3761 51.9338C42.3715 52.0321 40.8355 51.7551 38.7687 51.1027C38.6291 51.321 38.4725 51.5461 38.2989 51.778C38.138 51.9925 37.8337 52.036 37.6192 51.8752C37.4047 51.7143 37.3612 51.4099 37.5221 51.1955C37.7548 50.8844 37.9518 50.5923 38.1132 50.3191C38.1264 50.2904 38.1422 50.2635 38.1602 50.2385C38.5052 49.6364 38.6722 49.1288 38.6612 48.7159C38.6507 48.322 38.4392 48.0053 38.0269 47.7657C37.9916 47.752 37.9565 47.7377 37.9216 47.7229C37.2795 48.3613 36.0699 48.8587 34.2928 49.2149C33.8659 49.7383 33.4615 50.2753 33.081 50.8249C32.672 51.4159 32.2819 52.0339 31.9126 52.6781C31.0191 54.2365 30.3017 55.8631 29.7602 57.5303C29.21 59.2241 28.8404 60.9609 28.6512 62.7114L28.6506 62.7169L28.6504 62.7192L28.6494 62.7277L28.6489 62.7316L28.6486 62.7332V62.7333C28.3595 65.5957 28.7297 68.4457 29.6864 71.0825C30.6213 73.6595 32.1165 76.0331 34.1037 78.0161C43.6736 76.2772 48.6369 74.4201 48.9929 72.4448C49.0402 72.1808 49.2925 72.0052 49.5564 72.0525C49.8204 72.0998 49.996 72.3521 49.9487 72.6161C49.5309 74.9346 44.267 77.0411 34.1605 78.9358C34.0635 78.992 33.9511 79.0119 33.8431 78.9954C31.1098 79.5015 28.0282 79.9924 24.6002 80.4682C24.547 80.4855 24.4899 80.4938 24.4309 80.4915C21.1252 80.9483 17.5003 81.3911 13.5528 81.8197C13.5403 81.8216 13.5278 81.823 13.5151 81.8239C10.8683 82.0173 8.90159 82.3753 7.61516 82.8978C6.49204 83.354 5.94248 83.9117 5.96656 84.5707C5.97522 84.8162 5.80008 85.0256 5.56461 85.0664L5.56483 85.0676C5.31181 85.112 5.07781 85.2138 4.87927 85.3608C4.6794 85.5089 4.51347 85.7028 4.39792 85.9304C4.28136 86.16 4.22218 86.4087 4.22066 86.6559C4.21914 86.9046 4.275 87.1542 4.3882 87.3842C4.45894 87.5275 4.45249 87.6888 4.38498 87.821C4.26091 88.099 4.20104 88.3973 4.20523 88.6947C4.20947 88.9967 4.28094 89.2992 4.41919 89.5793C4.5574 89.8593 4.7541 90.1001 4.99132 90.2874L4.99224 90.2862C5.23209 90.4754 5.51183 90.6114 5.81339 90.6799C6.0053 90.723 6.14489 90.8743 6.1826 91.055C6.31321 91.6765 7.06468 92.1811 8.43686 92.5685C9.70325 92.9261 11.447 93.1581 13.6675 93.2645C19.0128 93.3793 24.4543 93.2447 30.1176 93.1046C48.5875 92.6476 69.4121 92.1323 97.0946 99.9767C104.846 102.05 111.263 104.488 116.996 107.099C122.731 109.712 127.756 112.485 132.749 115.242C132.765 115.25 132.781 115.26 132.795 115.27C138.83 118.924 144.943 118.846 151.132 115.035L151.159 115.019C153.7 113.64 153.902 110.181 151.764 104.644ZM165.039 72.4215C164.81 72.5613 164.511 72.4888 164.371 72.2596C164.231 72.0304 164.304 71.7311 164.533 71.5913L164.678 71.505C165.455 71.0504 166.122 70.8173 166.678 70.806C167.336 70.7926 167.833 71.0616 168.169 71.6129L168.185 71.6406C168.323 71.8709 168.248 72.1693 168.017 72.307C167.787 72.4448 167.489 72.3697 167.351 72.1395L167.338 72.1193C167.196 71.8853 166.982 71.7712 166.697 71.777C166.31 71.7849 165.801 71.9735 165.17 72.3427L165.039 72.4215ZM165.957 67.2943C165.742 67.4541 165.437 67.4089 165.278 67.1934C165.118 66.9779 165.163 66.6735 165.379 66.5137C165.915 66.1168 166.4 65.8359 166.834 65.6709C167.284 65.4999 167.69 65.4491 168.052 65.5183C168.448 65.5941 168.774 65.8044 169.029 66.149C169.151 66.3144 169.255 66.5092 169.34 66.7332C169.435 66.9845 169.308 67.265 169.056 67.3597C168.805 67.4543 168.525 67.3273 168.43 67.076C168.377 66.9357 168.316 66.8196 168.248 66.7278C168.144 66.5871 168.018 66.5025 167.869 66.4741C167.687 66.4393 167.456 66.4749 167.177 66.581C166.826 66.7142 166.42 66.952 165.957 67.2943ZM61.2613 31.9978C60.3508 31.246 59.5718 30.7202 58.9243 30.4209C58.1937 30.0832 57.6881 30.0557 57.4077 30.3385C57.2375 30.5096 56.9715 30.5276 56.7812 30.3918C56.5762 30.2569 56.3473 30.1652 56.1087 30.1194C55.8664 30.0729 55.6145 30.0745 55.3682 30.1271C55.1207 30.1798 54.8905 30.2808 54.6899 30.421C54.4886 30.5617 54.3145 30.7436 54.1799 30.9578C54.0824 31.1128 53.9117 31.1937 53.741 31.1841C53.5116 31.1747 53.2865 31.218 53.0817 31.3073C52.8758 31.3972 52.6897 31.5342 52.5401 31.711C52.3911 31.887 52.287 32.0933 52.2322 32.3123C52.1776 32.531 52.1724 32.7625 52.2212 32.9892C52.2608 33.176 52.1874 33.3605 52.0473 33.4716C51.7332 33.7606 51.5863 34.152 51.6068 34.6453C51.6309 35.2251 51.8745 35.9425 52.3375 36.7974C52.389 36.8925 52.5852 37.218 52.8135 37.5922C53.0706 38.0138 53.3627 38.488 53.5421 38.7771C53.8417 38.7693 54.1423 38.7665 54.4435 38.7688C59.2643 38.8052 64.0704 40.1807 68.1841 42.6425C72.048 44.9549 75.3049 48.2265 77.3956 52.2488C80.6429 51.1348 83.9772 50.2339 87.3745 49.5754C82.0036 46.4526 77.212 43.4881 73.0002 40.6823C68.474 37.6673 64.6048 34.8293 61.393 32.1688C61.335 32.1208 61.2908 32.062 61.2613 31.9978ZM39.2522 50.2345C41.0946 50.8053 42.4389 51.0494 43.2848 50.9666C43.6471 50.9311 43.8848 50.8402 43.9975 50.694C44.1019 50.5588 44.1179 50.3332 44.0455 50.0175C43.8859 49.3213 43.3307 48.3425 42.3804 47.0814C41.7851 47.439 41.2106 47.6947 40.6566 47.8486C40.2636 47.9578 39.8815 48.0164 39.5106 48.0245C39.5852 48.2299 39.6258 48.4527 39.6322 48.693C39.6444 49.1504 39.5177 49.6643 39.2522 50.2345ZM37.2695 45.6425C36.8978 45.5401 36.5119 45.5345 36.1462 45.618C35.734 45.7119 35.3471 45.9206 35.0346 46.2324C34.7233 46.543 34.5142 46.9295 34.4191 47.3424C34.3546 47.6224 34.3421 47.914 34.3851 48.2019C35.8145 47.8932 36.7659 47.5029 37.2391 47.0308C37.6081 46.6625 37.6182 46.1997 37.2695 45.6425ZM32.949 78.2211C31.0917 76.2379 29.6806 73.917 28.7725 71.4138C27.8789 68.9508 27.472 66.3115 27.6055 63.644C23.5113 66.4903 20.4377 68.9919 18.385 71.1485C16.2947 73.3447 15.2879 75.1421 15.3642 76.5407C15.6089 77.2895 16.4341 77.9122 17.8397 78.4089C19.3902 78.9568 21.6003 79.3268 24.4698 79.5189C27.5948 79.0939 30.4206 78.6614 32.949 78.2211ZM50.1829 39.0774C49.4173 38.4721 48.722 38.0076 48.0972 37.6841C47.3129 37.2781 46.6573 37.1017 46.1306 37.1549C45.6596 37.2538 45.1764 37.6831 44.6814 38.4425C44.2597 39.0896 43.8448 39.9589 43.4371 41.0503C44.0561 40.7763 44.686 40.5257 45.3256 40.2991C46.8927 39.7438 48.5182 39.333 50.1829 39.0774Z" fill="#AB7511"/>
<path fill-rule="evenodd" clip-rule="evenodd" d="M29.9927 0.543945C17.8517 0.543945 8.00937 7.11696 8.00937 15.2251C8.00937 22.4478 15.8192 28.4522 26.1068 29.6776L26.1067 29.6777L34.6466 39.1702L37.2628 29.0845L37.2612 29.0837C45.8301 27.0794 51.9761 21.632 51.9761 15.2251C51.9761 7.11696 42.1338 0.543945 29.9927 0.543945Z" fill="#FEFEFE"/>
<path fill-rule="evenodd" clip-rule="evenodd" d="M34.0465 6.16866C34.1457 6.21048 34.2505 6.25441 34.3646 6.29985C34.6569 6.41621 34.8811 6.48807 35.0681 6.54604C35.0893 6.55261 35.1102 6.55904 35.1308 6.56539C35.2891 6.61418 35.4309 6.6579 35.5631 6.71509C35.8788 6.85165 36.1305 7.06013 36.5504 7.55632C36.9272 8.00159 37.2589 8.57355 37.5127 9.20352C37.964 9.18165 38.4266 9.28734 38.8794 9.58489C38.892 9.59318 38.9036 9.60289 38.9139 9.61385L39.3094 10.032C39.5318 10.1385 39.7357 10.3357 40.0279 10.6446C40.4957 11.1392 40.782 11.6231 40.9367 12.1547C41.0906 12.6833 41.1107 13.2459 41.0659 13.8904C41.015 14.6222 40.902 15.4031 40.7319 16.1856C40.6827 16.7866 40.6129 17.3199 40.528 17.6275L40.366 17.5828L40.528 17.6275C40.3472 18.2823 40.1357 18.7731 39.8494 19.2115C39.7707 19.3321 39.6867 19.448 39.5967 19.5618C39.5253 19.7092 39.4516 19.8533 39.3756 19.9936C38.9463 20.7865 38.6012 21.2274 38.1857 21.5748C37.8969 21.8164 37.5719 22.0128 37.1754 22.2523C37.0181 22.3474 36.8495 22.4493 36.6674 22.5635L35.7951 23.1106C35.785 23.1169 35.7742 23.1224 35.7631 23.1268C35.4659 23.2439 35.0029 23.319 34.4783 23.3622C34.1738 23.3873 33.8421 23.4022 33.4998 23.4072C33.4669 23.4403 33.433 23.4728 33.3981 23.5045C32.8453 24.0065 32.0541 24.3188 31.2088 24.512C29.5159 24.8988 27.5162 24.8267 26.4897 24.7411C26.4198 24.7353 26.3478 24.7297 26.2743 24.724C25.8996 24.6948 25.4837 24.6624 25.0854 24.5816C24.6071 24.4847 24.1301 24.314 23.7533 23.9764L23.8834 23.8312L23.7533 23.9764C23.4148 23.673 23.2094 23.3164 23.1419 22.9267C23.0746 22.5384 23.1469 22.134 23.3345 21.7377C23.5903 21.1975 23.8101 20.8092 24.0777 20.452C24.1363 20.3737 24.1969 20.2973 24.2605 20.2213C24.1361 20.0977 24.0193 19.9639 23.9118 19.8226C23.6028 19.8668 23.3251 19.8825 23.1229 19.8625C22.8338 19.8339 22.6182 19.7937 22.4586 19.7312C22.2908 19.6654 22.1755 19.571 22.1038 19.4357C22.041 19.3169 22.0208 19.1798 22.0034 19.061L22.0005 19.0412C21.9855 18.9386 21.9696 18.8302 21.9381 18.7076C21.7587 18.7347 21.5405 18.716 21.282 18.6667L21.282 18.6667C20.6425 18.5445 20.0479 18.0772 19.6208 17.5222C19.1939 16.9676 18.9044 16.2864 18.9155 15.6963C18.9264 15.1101 19.2358 14.364 19.6555 13.7179C19.8821 13.3691 20.1497 13.0356 20.4356 12.7629C20.5282 12.5125 20.6791 12.2205 20.9009 11.8061L21.5036 10.6802C21.5074 10.6731 21.5116 10.6664 21.5161 10.6598C21.8766 10.1484 22.5396 9.57581 23.2359 9.0876C23.9342 8.59804 24.6907 8.17614 25.2536 7.976C25.2631 7.97262 25.2729 7.96998 25.2828 7.9681L26.9341 7.65696C27.5887 7.53361 28.6947 7.38587 29.7848 7.37657C29.9721 7.24656 30.1692 7.12949 30.379 7.03265C30.7055 6.58554 31.1824 6.23899 31.8845 6.01564C32.4612 5.83215 32.8517 5.8019 33.2268 5.8787C33.4099 5.91621 33.5829 5.97794 33.7634 6.0507C33.8423 6.0825 33.9244 6.11713 34.0097 6.15315C34.0219 6.15829 34.0342 6.16346 34.0465 6.16866ZM30.6021 7.39873C30.6133 7.3807 30.6248 7.36282 30.6365 7.3451C30.8465 7.25697 31.0681 7.19353 31.3054 7.16176C31.6925 7.10993 31.9831 7.25792 32.2172 7.54539C32.2853 7.62902 32.3482 7.72411 32.4061 7.82886C32.1244 7.67225 31.7812 7.56728 31.4133 7.49796C31.1573 7.44972 30.8838 7.41777 30.6021 7.39873ZM29.9104 7.76606C29.939 7.7661 29.9675 7.76625 29.9959 7.7665C29.8021 8.29973 29.7204 8.90843 29.6562 9.5518C29.6331 9.78319 29.6118 9.96622 29.5933 10.1249C29.5812 10.2284 29.5704 10.3215 29.561 10.4108C29.5385 10.6266 29.5273 10.8 29.5444 10.9703C29.5564 11.0896 29.5821 11.2043 29.6236 11.3296C29.6203 11.3316 29.617 11.3337 29.6139 11.336L29.3563 11.5155C29.2571 11.4836 29.1566 11.4549 29.0549 11.4296C28.7531 11.3545 28.3564 11.2911 27.9171 11.2463C27.9199 11.2289 27.9231 11.2107 27.9267 11.1915L27.9267 11.1915C27.9711 10.9587 27.9008 10.7169 27.7895 10.5216C27.8569 10.3869 27.9311 10.2556 28.0044 10.1315C28.0444 10.0638 28.0852 9.99641 28.1245 9.93158C28.1934 9.81788 28.2576 9.71207 28.3038 9.62625L29.1776 8.39133C29.4174 8.16507 29.6582 7.95105 29.9104 7.76606ZM29.2692 7.78103C28.3853 7.822 27.54 7.93958 27.0063 8.04016L25.3701 8.34845C24.8539 8.53457 24.1366 8.93236 23.4598 9.40688C22.7796 9.88373 22.1648 10.4211 21.8417 10.8749L21.2447 11.9901C21.1895 12.0934 21.1395 12.1875 21.0945 12.2739C21.1272 12.2568 21.1599 12.2408 21.1926 12.226C21.4323 12.1174 21.7517 12.0658 22.0925 12.0488C22.2802 12.0394 22.4796 12.0404 22.6834 12.0498C22.7276 12.0079 22.7736 11.9644 22.8196 11.9208C22.9374 11.8094 23.0558 11.6976 23.1462 11.6124C23.1914 11.5699 23.2297 11.5339 23.2574 11.5079L23.2611 11.5045C23.2825 11.4844 23.3059 11.4625 23.3157 11.4547L23.3159 11.4545C23.4916 11.3139 23.8879 11.1067 24.2662 10.9232C24.6528 10.7357 25.0498 10.5592 25.2473 10.4788C25.2473 10.4788 25.2473 10.4788 25.2473 10.4788C25.262 10.4728 25.2827 10.4668 25.2936 10.4637L25.2952 10.4633C25.3116 10.4586 25.3333 10.4525 25.3591 10.4455C25.411 10.4313 25.4818 10.4124 25.5649 10.3905C25.7313 10.3467 25.9486 10.2903 26.1664 10.2349C26.384 10.1795 26.6027 10.1248 26.7715 10.0843C26.8558 10.0641 26.9287 10.0471 26.9833 10.0353C27.0104 10.0295 27.0346 10.0246 27.0541 10.0211C27.0637 10.0194 27.0741 10.0177 27.0841 10.0165L27.0848 10.0164C27.0904 10.0157 27.113 10.0129 27.138 10.0154C27.277 10.0292 27.4081 10.0989 27.5206 10.194C27.5699 10.1029 27.6201 10.0155 27.6686 9.93329C27.7156 9.85358 27.7598 9.78075 27.8002 9.71417C27.8671 9.60393 27.9236 9.51085 27.9654 9.43209C27.9693 9.42476 27.9737 9.4177 27.9785 9.41093L28.8705 8.15029C28.8779 8.13981 28.8863 8.13009 28.8957 8.12127C29.0169 8.00656 29.1411 7.89212 29.2692 7.78103ZM27.3405 10.5614C27.2578 10.4694 27.1739 10.4189 27.1163 10.4061C27.1041 10.4084 27.0872 10.4118 27.0656 10.4165C27.0154 10.4273 26.9458 10.4435 26.8625 10.4635C26.6962 10.5034 26.4795 10.5575 26.2626 10.6128C26.0458 10.668 25.8295 10.724 25.6643 10.7676C25.5816 10.7894 25.5121 10.8079 25.4618 10.8217C25.4366 10.8285 25.4168 10.834 25.4028 10.8381C25.395 10.8403 25.3907 10.8416 25.3888 10.8422C25.1991 10.9197 24.8138 11.091 24.4364 11.2741C24.0475 11.4627 23.6953 11.6506 23.5601 11.7585C23.5627 11.7565 23.5602 11.7588 23.5502 11.7681C23.5443 11.7736 23.5357 11.7816 23.5238 11.7927C23.4965 11.8182 23.4586 11.8538 23.4136 11.8963C23.3585 11.9481 23.293 12.0099 23.2236 12.0755L24.3432 11.4635C24.351 11.4592 24.359 11.4555 24.3672 11.4524C24.9403 11.2335 25.8441 11.1633 26.7205 11.1769C26.865 11.1791 27.0098 11.1836 27.1534 11.1903C27.1803 10.9931 27.2423 10.7985 27.3156 10.6204C27.3237 10.6006 27.332 10.581 27.3405 10.5614ZM27.1526 11.5806C27.0078 11.5737 26.8612 11.569 26.7145 11.5668C25.8515 11.5534 25.0186 11.625 24.5184 11.8121L23.8421 12.1818C24.3616 12.2744 24.8348 12.4048 25.133 12.5467C25.3281 12.6396 25.5974 12.8403 25.874 13.0848C26.0157 13.21 26.1628 13.3499 26.3075 13.4983C26.5578 13.2064 26.8153 12.9561 27.0704 12.7681C27.644 12.3454 28.1507 12.0905 28.5986 12.0436L28.9429 11.8036C28.676 11.7384 28.325 11.6817 27.932 11.6399C27.9326 11.6429 27.9333 11.646 27.9339 11.6492C27.9478 11.7176 27.9552 11.8036 27.9054 11.9043C27.8654 11.9852 27.7939 12.0626 27.7027 12.1489C27.6651 12.1845 27.6149 12.2036 27.5633 12.2022C27.5116 12.2007 27.4626 12.1788 27.427 12.1413C27.266 11.971 27.1829 11.7792 27.1526 11.5806ZM29.4164 11.9489L29.179 12.1143C29.1932 12.1198 29.2072 12.1255 29.2212 12.1315C29.4371 12.2245 29.6199 12.3807 29.7774 12.5859C29.9221 12.5574 30.0581 12.5476 30.1917 12.5584C30.1429 12.462 30.09 12.3558 30.0321 12.2382C30.0307 12.2353 30.0293 12.2325 30.0279 12.2296C29.8313 12.1212 29.6271 12.027 29.4164 11.9489ZM30.6883 12.668C30.6952 12.6808 30.702 12.6933 30.7087 12.7056C30.732 12.7168 30.7553 12.7284 30.7787 12.7407C30.7488 12.7161 30.7187 12.6919 30.6883 12.668ZM31.6163 13.7967C31.6102 13.792 31.6041 13.7874 31.598 13.7828C31.5863 13.7739 31.5746 13.7651 31.5631 13.7563C31.5806 13.7738 31.5985 13.7917 31.617 13.8102L31.6163 13.7967ZM31.6458 14.398C31.4339 14.1761 31.2715 14.0159 31.1387 13.8848L31.1247 13.871C31.0473 13.7947 30.9785 13.7267 30.9153 13.6611C30.9652 14.0151 30.9126 14.3841 30.7987 14.7316C30.7511 14.8771 30.6921 15.0208 30.6243 15.1606C30.6401 15.4377 30.62 15.697 30.5566 15.9481C30.414 16.513 30.0605 17.006 29.4806 17.5545C29.4291 17.6033 29.379 17.6497 29.3303 17.6941C29.4269 17.7031 29.5244 17.7118 29.6222 17.7201C29.7325 17.6179 29.8471 17.5155 29.9633 17.4157C30.2354 17.1816 30.5185 16.9592 30.7752 16.7845C31.0254 16.6142 31.2714 16.4745 31.4644 16.4268C31.5913 16.3954 31.7126 16.3967 31.8234 16.4323C32.0312 16.2379 32.2478 16.0458 32.4735 15.8547C32.5216 15.8141 32.5857 15.7653 32.6625 15.7107C32.5513 15.2852 32.3887 14.8697 32.1817 14.4772C32.178 14.4775 32.1743 14.4779 32.1706 14.4783C32.1303 14.4823 32.088 14.4874 32.041 14.4963L32.0469 14.6164C32.0522 14.7239 31.9692 14.8154 31.8617 14.8207C31.7541 14.8259 31.6627 14.743 31.6574 14.6355L31.6458 14.398ZM32.5683 14.3767C32.749 14.7318 32.8955 15.1032 33.004 15.4826C33.0501 15.4533 33.0979 15.4234 33.1471 15.393C33.3527 14.3113 33.4387 13.196 33.4997 12.4038C33.5022 12.3705 33.5048 12.3378 33.5072 12.3056L33.5085 12.2896C33.5536 11.7057 33.5952 11.1675 33.57 10.6661C33.5634 10.6669 33.5568 10.6677 33.5503 10.6685C33.4993 10.6746 33.4484 10.6809 33.3977 10.6874C33.4144 11.0293 33.4178 11.321 33.4189 11.5207C33.4196 11.6439 33.423 11.7713 33.4264 11.9004C33.4339 12.1867 33.4416 12.4813 33.4208 12.756C33.39 13.1635 33.2958 13.5677 33.03 13.9157C32.8476 14.1544 32.7085 14.2961 32.5683 14.3767ZM33.3736 10.2974C33.4169 10.2919 33.4603 10.2866 33.5036 10.2814C33.5141 10.2801 33.5245 10.2789 33.535 10.2776C33.5261 10.211 33.5155 10.1451 33.5033 10.0798C33.4548 9.82239 33.3789 9.57461 33.2641 9.33624C33.3162 9.66456 33.3507 9.99262 33.3736 10.2974ZM32.694 8.5493C32.717 8.62802 32.7385 8.70879 32.7587 8.79126C32.8834 9.30207 32.9504 9.85657 32.9865 10.35C31.9094 10.5069 30.8624 10.7522 29.9771 11.1551C29.9536 11.0756 29.9397 11.0044 29.9324 10.9314C29.9195 10.8029 29.9267 10.6627 29.9488 10.4514C29.9569 10.3746 29.9673 10.2847 29.9792 10.1822C29.9984 10.017 30.0214 9.81897 30.0442 9.59053C30.1144 8.88798 30.2021 8.28136 30.4094 7.77813C30.7381 7.79417 31.0535 7.82696 31.3411 7.88115C31.7997 7.96755 32.1684 8.10489 32.4106 8.29835C32.5136 8.38061 32.6078 8.46426 32.694 8.5493ZM30.1194 11.5188C30.9526 11.1362 31.9544 10.8964 33.0098 10.7407C33.0246 11.0577 33.0279 11.3304 33.029 11.5229C33.0298 11.6648 33.0334 11.8022 33.037 11.9362C33.0443 12.2112 33.0513 12.4718 33.032 12.7266C33.004 13.0965 32.9215 13.4153 32.7201 13.679L32.875 13.7974L32.7201 13.679C32.5502 13.9014 32.4496 13.9931 32.3808 14.0347C31.8776 13.1806 31.1719 12.4433 30.3246 11.9491C30.2402 11.7771 30.1729 11.6371 30.1194 11.5188ZM33.0395 8.34435C32.9158 7.94808 32.7486 7.58034 32.5196 7.29915C32.2154 6.92569 31.7979 6.7024 31.2536 6.77527C31.2276 6.77876 31.2016 6.78259 31.1759 6.78673C31.3981 6.62756 31.6692 6.49332 32.0027 6.38723L31.9436 6.20146L32.0027 6.38723C32.5398 6.21634 32.8596 6.20155 33.1485 6.26071C33.2973 6.29118 33.4447 6.34269 33.6176 6.41237C33.6934 6.4429 33.7723 6.47618 33.8579 6.51234C33.8702 6.51749 33.8825 6.5227 33.895 6.52797C33.9946 6.56996 34.1024 6.61516 34.2204 6.66212C34.5261 6.78386 34.7612 6.85915 34.9527 6.9185C34.9741 6.92512 34.9947 6.9315 35.0147 6.93768C35.177 6.98779 35.2969 7.02482 35.4083 7.07298C35.6416 7.17389 35.8463 7.32796 36.2527 7.8082C36.5825 8.19791 36.8787 8.69912 37.1124 9.25543C36.9832 9.28236 36.8554 9.31853 36.7296 9.36234C36.2467 9.53055 35.7888 9.81248 35.3782 10.1191C34.8998 10.1478 34.4107 10.1844 33.9226 10.2346C33.9125 10.1584 33.9006 10.0827 33.8865 10.0077C33.7737 9.4085 33.5252 8.85096 33.0395 8.34435ZM33.958 10.623C33.9818 11.06 33.9573 11.5136 33.9234 11.9764C33.9268 11.9699 33.9301 11.9633 33.9336 11.9567C33.9675 11.8906 34.0034 11.8208 34.0414 11.7464C34.0452 11.7389 34.0496 11.7316 34.0544 11.7246L34.8658 10.5438C34.5644 10.5658 34.261 10.5917 33.958 10.623ZM35.5194 10.5015C35.4029 10.591 35.2895 10.6831 35.1796 10.7757L34.3829 11.9349C34.3454 12.0085 34.3104 12.0766 34.2778 12.1401C34.0879 12.5099 33.9774 12.7249 33.9059 12.9568C33.8234 13.2238 33.792 13.5183 33.7756 14.1081C33.7686 14.36 33.7459 14.5254 33.727 14.6423C33.7234 14.6642 33.7203 14.6827 33.7176 14.699C33.7126 14.7285 33.7089 14.7507 33.7061 14.7719C33.7022 14.8022 33.7031 14.8121 33.7035 14.8147C33.7036 14.8154 33.7036 14.8156 33.7039 14.8163C33.7041 14.8169 33.7047 14.8183 33.706 14.8209C33.7067 14.8223 33.7077 14.8241 33.7089 14.8262C33.7169 14.8396 33.7326 14.861 33.7654 14.8979C33.7887 14.9241 33.8158 14.9531 33.8485 14.9873C33.8567 14.9829 33.8649 14.9785 33.8731 14.9741C34.1693 14.8146 34.4728 14.6656 34.7394 14.5582C34.8726 14.5046 34.9997 14.46 35.114 14.4299C35.2252 14.4006 35.3378 14.3813 35.4371 14.3879L35.4242 14.5824L35.4371 14.3879C35.5256 14.3937 35.6156 14.4147 35.7042 14.4455C35.948 14.2038 36.2234 14.0028 36.5138 13.8852C36.7057 13.8075 36.9054 13.7664 37.1047 13.7743C37.5836 13.0836 37.7227 12.133 37.6091 11.1343C37.5816 10.8929 37.5396 10.6507 37.4847 10.4114C37.3369 10.4178 37.1859 10.4241 37.0322 10.4304C36.5498 10.4504 36.0407 10.4715 35.5194 10.5015ZM37.8796 10.3905C37.9306 10.6227 37.97 10.8569 37.9965 11.0902C38.1089 12.0786 37.9926 13.0843 37.5121 13.8644C37.6253 13.9118 37.7364 13.9786 37.8438 14.0674L37.7196 14.2177L37.8438 14.0674C38.1669 14.3345 38.4243 14.694 38.6181 15.0993C38.7131 14.9111 38.7772 14.715 38.8027 14.5143C38.8079 14.4735 38.8128 14.4373 38.8171 14.4048C38.8332 14.2848 38.8425 14.2156 38.8369 14.1522C38.8319 14.0965 38.8145 14.0429 38.7317 13.9553C38.6577 13.8771 38.6611 13.7537 38.7393 13.6797C38.8175 13.6057 38.9409 13.6091 39.0149 13.6873C39.1451 13.8249 39.2111 13.9574 39.2253 14.1178C39.2351 14.2288 39.218 14.3537 39.2008 14.4797C39.1969 14.5076 39.1931 14.5356 39.1896 14.5635C39.1443 14.9191 39.0047 15.2518 38.8035 15.5544C38.8711 15.7515 38.9257 15.9545 38.9675 16.1591C39.1343 16.9757 39.104 17.8503 38.8559 18.525C38.7441 18.8291 38.4566 19.2606 38.1105 19.5855C37.9362 19.7492 37.7377 19.8949 37.5284 19.9823C37.4108 20.0314 37.2858 20.0637 37.1583 20.068C37.0358 20.5167 36.8164 20.9364 36.3854 21.4442L36.2367 21.318L36.3854 21.4442C36.3523 21.4832 36.318 21.5211 36.2825 21.558C36.2928 21.5518 36.3035 21.5455 36.3146 21.5388C36.4609 21.4518 36.6668 21.3348 36.995 21.1728L38.4991 20.1604C38.8045 19.871 39.0542 19.6146 39.2645 19.353C39.7328 18.3773 40.0991 17.2526 40.3453 16.1283C40.368 15.8467 40.3865 15.5468 40.3997 15.2448C40.4407 14.311 40.4295 13.4032 40.3519 12.9918L40.0918 12.2851C40.0905 12.2816 40.0893 12.2781 40.0882 12.2745C39.994 11.965 39.9448 11.7512 39.9087 11.5901L39.9044 11.5706C39.8702 11.4178 39.851 11.3316 39.8177 11.2502C39.75 11.0846 39.6201 10.9279 39.1163 10.3952L39.0819 10.3588C39.0429 10.3453 39.0043 10.3367 38.9635 10.3311C38.8464 10.315 38.703 10.3227 38.472 10.3425C38.4378 10.3454 38.4021 10.3485 38.3646 10.3519C38.2276 10.3639 38.0678 10.378 37.8796 10.3905ZM38.6821 9.93624C38.6059 9.94008 38.5251 9.94655 38.4387 9.95395C38.4036 9.95696 38.3672 9.96017 38.3293 9.96351C38.1755 9.97706 37.9975 9.99274 37.7842 10.0058C37.7455 9.86597 37.7028 9.72743 37.6564 9.59084C37.9881 9.59624 38.3198 9.68853 38.6466 9.89865L38.6821 9.93624ZM37.2554 9.62468C37.3021 9.75626 37.3453 9.89006 37.3845 10.0254C37.2647 10.0305 37.1425 10.0356 37.0184 10.0407C36.7325 10.0525 36.436 10.0648 36.1322 10.0792C36.3678 9.93734 36.6109 9.81663 36.8579 9.73058C36.9899 9.68461 37.1225 9.64864 37.2554 9.62468ZM40.3381 11.7148C40.3676 11.835 40.4059 11.9786 40.4596 12.1556L40.6525 12.6796C40.6311 12.5362 40.6015 12.3981 40.5623 12.2637C40.5079 12.0769 40.4347 11.8952 40.3381 11.7148ZM38.5547 20.593L37.2019 21.5036C37.1946 21.5085 37.187 21.5129 37.1792 21.5168C36.8539 21.6769 36.6538 21.7908 36.514 21.8739C36.4825 21.8927 36.4529 21.9106 36.4247 21.9277C36.3336 21.9829 36.2569 22.0293 36.1801 22.0642C36.0696 22.1145 35.9581 22.1426 35.7887 22.1691C35.6707 22.1876 35.5175 22.2062 35.3093 22.2303C34.9092 22.4174 34.4638 22.5514 34.0071 22.6455C33.9558 22.7736 33.893 22.8948 33.8199 23.0093C34.038 23.0018 34.2484 22.9899 34.4462 22.9736C34.9542 22.9318 35.3613 22.8619 35.6038 22.7703L36.4602 22.2332C36.6607 22.1074 36.839 21.9997 37.0005 21.9021C37.3829 21.671 37.671 21.497 37.9356 21.2757C38.1484 21.0977 38.3451 20.8889 38.5547 20.593ZM33.328 23.0189C33.4058 22.9282 33.4749 22.8317 33.5342 22.7289C33.3231 22.7602 33.1104 22.7844 32.8988 22.8023C32.8882 22.8083 32.8775 22.8143 32.8668 22.8203L32.8586 22.8056L32.8668 22.8203C32.7719 22.8732 32.6397 22.936 32.4815 23.0039C32.5665 23.0073 32.6518 23.0102 32.7373 23.0125C32.9351 23.0178 33.133 23.0199 33.328 23.0189ZM33.6614 22.3138C33.6778 22.311 33.6943 22.3082 33.7106 22.3053C33.7138 22.2937 33.7169 22.2821 33.7198 22.2705C33.7006 22.2849 33.6811 22.2994 33.6614 22.3138ZM34.1299 22.2186C34.1299 22.2188 34.1298 22.2189 34.1298 22.2191C34.1301 22.219 34.1304 22.219 34.1307 22.2189C34.1304 22.2188 34.1302 22.2187 34.1299 22.2186ZM35.2 21.8503C35.5566 21.6766 35.8609 21.4595 36.0881 21.1919C36.3203 20.9183 36.4812 20.679 36.596 20.4512C36.4914 20.5489 36.3821 20.6418 36.269 20.7306C35.6727 21.1983 34.9634 21.5537 34.2807 21.859C34.3479 21.8877 34.4235 21.9116 34.5085 21.9295L34.9796 21.8756C35.0114 21.8719 35.0422 21.8684 35.0719 21.865C35.1169 21.8598 35.1596 21.855 35.2 21.8503ZM34.9318 21.1145C35.3214 20.9111 35.6949 20.6853 36.0283 20.4238C36.2378 20.2595 36.4303 20.0819 36.6002 19.8878C36.5105 19.8252 36.4301 19.7505 36.3603 19.6685C36.3465 19.6822 36.3324 19.6959 36.3181 19.7097C36.263 19.7628 36.1955 19.8248 36.1224 19.8919C36.0543 19.9544 35.9813 20.0214 35.9089 20.0899L35.9089 20.0899C35.5395 20.4394 35.2644 20.745 35.0013 21.0374C34.9781 21.0632 34.9549 21.0889 34.9318 21.1145ZM36.0616 18.0941C36.0605 18.1103 36.0595 18.1267 36.0586 18.1434C36.0526 18.2515 36.0499 18.3805 36.0466 18.5334C36.0447 18.619 36.0427 18.712 36.0399 18.813C36.0351 18.986 36.0748 19.1638 36.1472 19.3283C36.1181 19.3596 36.085 19.3928 36.0476 19.4289C35.9897 19.4846 35.9308 19.5386 35.8643 19.5995C35.7992 19.6591 35.7268 19.7254 35.6409 19.8066C35.2629 20.1642 34.9653 20.4945 34.6939 20.7956C34.548 20.9574 34.4097 21.1109 34.2706 21.2556C34.229 21.2989 34.187 21.3419 34.1442 21.3845C34.1436 21.3802 34.1431 21.3758 34.1425 21.3714L33.9492 21.3972L34.1425 21.3714C34.1078 21.1123 33.9485 20.7622 33.7452 20.4358C33.7766 20.1927 33.834 19.9497 33.8984 19.7319L33.7114 19.6767L33.8984 19.7319C33.9688 19.4936 34.1521 19.2198 34.4076 18.9582C34.6607 18.6992 34.9706 18.4665 35.273 18.3065C35.5819 18.1432 35.8553 18.0702 36.0434 18.0917C36.0496 18.0924 36.0556 18.0932 36.0616 18.0941ZM36.6126 19.3593C36.7651 19.1012 36.7844 18.8133 36.7254 18.3723C36.6998 18.181 36.6312 18.0199 36.5138 17.9012C36.5049 17.8921 36.4958 17.8834 36.4864 17.8751C36.4908 17.8595 36.4955 17.8448 36.5007 17.8307C36.528 17.7562 36.5719 17.6861 36.6588 17.589C36.7244 17.5158 36.8088 17.433 36.9218 17.3254C36.9517 17.3548 36.9804 17.3825 37.0073 17.4085L36.9777 18.475C36.9639 18.6133 36.9523 18.7421 36.9414 18.8632C36.9186 19.1151 36.8989 19.334 36.8691 19.5369C36.8596 19.5511 36.85 19.5653 36.8403 19.5794C36.7547 19.5229 36.6772 19.4475 36.6126 19.3593ZM37.4019 17.249C37.4702 17.3182 37.5355 17.3903 37.5895 17.4714C37.7332 17.6872 37.7763 17.9326 37.7285 18.3079C37.6626 18.8268 37.4928 19.2743 37.2507 19.6641C37.2914 19.6548 37.3338 19.641 37.3781 19.6225C37.5299 19.5591 37.6897 19.4458 37.8436 19.3013C38.154 19.0098 38.4028 18.6276 38.49 18.3904C38.7074 17.7989 38.7413 17.0005 38.5854 16.2371C38.5641 16.1329 38.5395 16.0299 38.5114 15.9287C38.1988 16.2756 37.8111 16.5695 37.4144 16.796L37.4019 17.249ZM37.301 16.4107C37.7156 16.163 38.0921 15.8495 38.3659 15.4952C38.1826 15.0357 37.923 14.6388 37.5954 14.368C37.4921 14.2826 37.3852 14.2258 37.2754 14.1941C37.1667 14.3243 37.0451 14.4457 36.9096 14.5568C36.7572 14.6817 36.5986 14.7931 36.4349 14.8922C36.6797 15.0993 36.8954 15.3403 36.9959 15.5298C37.0006 15.5388 37.0047 15.5482 37.008 15.5578L37.301 16.4107ZM36.0929 14.6393C36.2919 14.5301 36.4824 14.4028 36.6624 14.2552C36.6696 14.2493 36.6769 14.2433 36.6841 14.2372C36.6761 14.2403 36.6681 14.2434 36.6601 14.2467C36.4627 14.3266 36.2643 14.4599 36.077 14.6293C36.0823 14.6326 36.0876 14.636 36.0929 14.6393ZM35.4085 14.7768C35.3712 14.7749 35.3073 14.7823 35.2133 14.807C35.12 14.8316 35.0093 14.8699 34.8851 14.9199C34.7179 14.9873 34.5321 15.0735 34.3402 15.1702C34.6522 15.133 34.9582 15.0733 35.2534 14.9857C35.2964 14.9238 35.3412 14.8629 35.3875 14.8035C35.3945 14.7946 35.4015 14.7857 35.4085 14.7768ZM34.9701 15.4603C34.6459 15.5306 34.3156 15.5728 33.9854 15.5936C33.9277 15.5973 33.8713 15.575 33.8315 15.533C33.8122 15.5126 33.7935 15.4929 33.7754 15.4739C33.6796 15.5285 33.5861 15.5832 33.4966 15.6368C33.4166 16.0317 33.3197 16.4227 33.2011 16.792L33.191 17.1529C33.1939 17.1918 33.1971 17.2304 33.2002 17.268C33.2082 17.3636 33.2157 17.4531 33.2149 17.525C33.2136 17.6372 33.1938 17.7621 33.0963 17.8671C33.0086 17.9616 32.8811 18.0129 32.7422 18.0529C32.7035 18.064 32.6612 18.075 32.615 18.086C32.5528 18.1817 32.4871 18.2727 32.4177 18.3582C32.4086 18.564 32.3919 18.7627 32.3722 18.939C32.3579 19.0674 32.3418 19.1868 32.3254 19.2905C32.4655 19.3134 32.597 19.3476 32.7148 19.3943C32.8827 19.4608 33.0483 19.5891 33.1982 19.7371C33.2767 19.8145 33.354 19.9004 33.4283 19.9914C33.4574 19.8606 33.4906 19.7359 33.5244 19.6214C33.6201 19.2976 33.851 18.97 34.1287 18.6857C34.4088 18.399 34.751 18.1415 35.0907 17.9618C35.424 17.7855 35.7828 17.6694 36.0877 17.7043C36.1018 17.7059 36.1158 17.7078 36.1297 17.7101C36.1313 17.7056 36.1329 17.701 36.1346 17.6965C36.1845 17.5601 36.2617 17.4481 36.3683 17.329C36.4039 17.2892 36.4438 17.2475 36.4883 17.203C36.3272 17.253 36.1695 17.2909 36.0188 17.3154C35.6171 17.3806 35.2174 17.3576 34.9529 17.1556C34.6361 16.9136 34.6336 16.4704 34.7337 16.0758C34.784 15.8773 34.8652 15.668 34.9701 15.4603ZM33.3737 21.2563C33.3676 21.2272 33.3622 21.1979 33.3576 21.1685C33.3247 20.9624 33.3237 20.7454 33.3427 20.5312C33.3315 20.5145 33.3202 20.4978 33.3087 20.4812C33.1882 20.3068 33.0557 20.1443 32.9243 20.0146C32.7905 19.8825 32.6688 19.7955 32.5712 19.7568L32.643 19.5756L32.5712 19.7568C32.4755 19.7189 32.3634 19.6905 32.2397 19.6717C32.1616 19.8825 32.0138 20.0968 31.836 20.2982C31.9076 20.4736 31.9794 20.6714 32.0454 20.8688C32.1886 21.2971 32.3112 21.7444 32.3406 21.964C32.3414 21.9695 32.3421 21.975 32.3428 21.9805C32.5402 21.8433 32.6638 21.7684 32.7479 21.7265C32.7981 21.7015 32.8387 21.6861 32.8758 21.6767C32.8937 21.6721 32.9084 21.6696 32.9195 21.6679C32.9292 21.661 32.9483 21.6465 32.9807 21.6187C33.0518 21.5576 33.1686 21.4498 33.3737 21.2563ZM33.0254 22.0447C33.0194 22.0463 33.0132 22.0477 33.0069 22.0489C32.9953 22.0512 32.9793 22.0533 32.9781 22.0535L32.978 22.0535C32.9744 22.054 32.9731 22.0543 32.9716 22.0547C32.9685 22.0554 32.9545 22.0593 32.9216 22.0756C32.8537 22.1094 32.7262 22.1858 32.4796 22.3609L32.392 22.4437C32.5207 22.4383 32.6506 22.4306 32.781 22.4206C32.8902 22.3577 32.9927 22.2953 33.0894 22.2333C33.0771 22.2187 33.0667 22.2029 33.0585 22.1865C33.0346 22.1393 33.0288 22.09 33.0264 22.0591C33.026 22.0544 33.0257 22.0496 33.0254 22.0447ZM33.2269 21.9287C33.2249 21.9294 33.2238 21.9298 33.2239 21.9298C33.224 21.9298 33.2249 21.9296 33.2266 21.9288C33.2267 21.9288 33.2268 21.9287 33.2269 21.9287ZM31.9625 22.3133C31.9709 22.2247 31.9689 22.126 31.9541 22.0157C31.9301 21.8359 31.8182 21.4191 31.6756 20.9924C31.6309 20.8588 31.584 20.7264 31.5368 20.6025C31.5065 20.6305 31.4759 20.658 31.4453 20.685C31.0864 21.0009 30.6801 21.2713 30.3926 21.4022C30.225 21.4785 29.9804 21.5266 29.7185 21.5584C29.5215 21.5823 29.3036 21.5982 29.0817 21.6075C29.1263 21.8036 29.221 21.9898 29.3543 22.1545C29.3951 22.176 29.4363 22.1946 29.4792 22.2111C29.723 22.3046 30.0296 22.335 30.6346 22.3949L30.6502 22.3965C30.9914 22.4303 31.3887 22.453 31.813 22.4547L31.9625 22.3133ZM31.3186 22.8335C31.0656 22.8231 30.8277 22.8059 30.6117 22.7845C30.5859 22.782 30.5606 22.7795 30.5356 22.777C30.4865 22.7722 30.4389 22.7675 30.3928 22.7628C30.5785 22.8074 30.7986 22.8475 31.0457 22.8821C31.0985 22.8895 31.1523 22.8966 31.207 22.9034C31.2428 22.882 31.2798 22.8588 31.3186 22.8335ZM30.5138 23.1884C30.2042 23.1266 29.9395 23.0503 29.7529 22.9572C29.5099 22.8359 29.287 22.6663 29.1068 22.4626C28.991 22.394 28.8809 22.309 28.7645 22.2034C28.7637 22.2088 28.7627 22.2143 28.7615 22.2197C28.6889 22.5366 28.6464 22.7964 28.6421 23.0018C28.6418 23.0189 28.6417 23.0355 28.6419 23.0515C28.9351 23.1056 29.2337 23.1497 29.5265 23.1784C29.8467 23.2097 30.1543 23.2219 30.4369 23.2102C30.4633 23.2028 30.4889 23.1955 30.5138 23.1884ZM29.0956 21.2166C29.299 21.2074 29.4955 21.1927 29.6715 21.1713C29.9279 21.1402 30.1215 21.0971 30.2311 21.0473L30.2311 21.0473C30.4745 20.9365 30.8488 20.6905 31.1876 20.3923C31.2531 20.3347 31.3159 20.2763 31.3752 20.2176C31.3321 20.127 31.2933 20.057 31.2611 20.0117L31.2611 20.0117C31.1981 19.9232 31.1253 19.8306 31.0441 19.7359C30.7018 19.814 30.3912 19.9374 30.1751 20.0912C29.8704 20.308 29.4421 20.7334 29.0956 21.2166ZM28.6771 21.136C28.6962 21.01 28.7319 20.8823 28.7865 20.754L28.7865 20.7539C28.9155 20.4504 29.0514 20.1594 29.1946 19.8793C28.9549 19.9169 28.7493 19.9437 28.5676 19.9621C28.5265 20.0669 28.4894 20.1684 28.4592 20.2612C28.4061 20.4242 28.3819 20.5378 28.3819 20.5943C28.3819 20.7937 28.4217 21.0239 28.4983 21.2283C28.5375 21.2284 28.5771 21.2284 28.6169 21.2282C28.6366 21.1973 28.6567 21.1666 28.6771 21.136ZM28.3324 21.7483C28.3021 21.7058 28.2741 21.6612 28.2482 21.6149C27.8698 21.6064 27.5369 21.5824 27.347 21.5496C27.338 21.548 27.3292 21.5459 27.3206 21.5431L25.4599 20.9464C25.5844 21.1014 25.7087 21.2483 25.8199 21.3705C25.945 21.5079 26.0423 21.6013 26.101 21.6448L26.5014 21.7908C26.5057 21.7923 26.51 21.7941 26.5142 21.7959C26.7462 21.8997 26.885 21.9769 26.9773 22.0331C27.0071 22.0513 27.0349 22.0691 27.0553 22.0822C27.0642 22.0878 27.0716 22.0926 27.0772 22.0961C27.0864 22.1019 27.0925 22.1055 27.0964 22.1077C27.1055 22.107 27.1262 22.1049 27.1664 22.0984C27.1836 22.0956 27.2032 22.0922 27.2257 22.0884C27.3101 22.074 27.4342 22.0528 27.6159 22.0285L27.6159 22.0285C27.7827 22.0061 27.9123 22.0203 28.0202 22.0516C28.0871 22.071 28.1507 22.1001 28.1941 22.1208C28.2301 21.9951 28.2775 21.8702 28.3324 21.7483ZM28.1225 22.5154C28.108 22.5101 28.0943 22.5044 28.0815 22.4988C28.0553 22.4873 28.0347 22.4773 28.0164 22.4685C27.9809 22.4514 27.9542 22.4385 27.9116 22.4261C27.8582 22.4106 27.7832 22.3995 27.6676 22.415C27.4938 22.4382 27.3783 22.4579 27.2937 22.4723C27.27 22.4764 27.2487 22.48 27.2292 22.4832L27.227 22.4836C27.1496 22.4962 27.0629 22.5104 26.9716 22.4782C26.9305 22.4638 26.8957 22.4426 26.87 22.4264C26.8587 22.4193 26.8484 22.4128 26.838 22.4061C26.8199 22.3944 26.801 22.3823 26.7744 22.3661C26.6981 22.3196 26.5757 22.2509 26.3613 22.1547L25.9436 22.0025C25.9294 21.9973 25.9159 21.9905 25.9033 21.9822C25.8737 21.9628 25.8414 21.9378 25.8072 21.9085L26.1887 22.3118C26.2661 22.3586 26.4109 22.4256 26.6171 22.5037C26.8358 22.5865 27.1115 22.6775 27.4228 22.7659C27.6548 22.8318 27.9056 22.8961 28.1662 22.9543C28.1251 22.813 28.1127 22.6654 28.1225 22.5154ZM28.2924 23.3804C27.9476 23.309 27.6162 23.2262 27.3162 23.141C26.9962 23.0501 26.7098 22.9558 26.479 22.8683C26.2527 22.7826 26.0668 22.6988 25.9568 22.6265C25.9442 22.6182 25.9326 22.6085 25.9223 22.5975L25.4366 22.0841C24.9788 21.6001 24.6609 21.1148 24.4559 20.5994C24.4335 20.628 24.4115 20.6568 24.3898 20.6857C24.1437 21.0144 23.9367 21.3773 23.687 21.9046C23.5266 22.2434 23.4751 22.5661 23.5261 22.8601C23.5768 23.1527 23.7318 23.4335 24.0135 23.686C24.3172 23.9581 24.7173 24.1091 25.1629 24.1995C25.5355 24.275 25.9232 24.3053 26.2979 24.3346C26.3732 24.3405 26.448 24.3464 26.5221 24.3525C27.5372 24.4371 29.4887 24.505 31.1219 24.1318C31.8146 23.9736 32.4339 23.7394 32.8994 23.4061C32.8419 23.4051 32.7843 23.4038 32.7268 23.4023C32.3597 23.3925 31.9929 23.3722 31.6455 23.3416C31.6041 23.3622 31.5616 23.3814 31.5181 23.3991C31.3387 23.4722 31.1375 23.5232 30.9216 23.5561C30.6035 23.6491 30.2877 23.7288 30.0091 23.7798C29.8986 23.8 29.7926 23.816 29.6935 23.8264C29.4303 23.8921 29.2049 23.9229 29.0152 23.9144C28.7622 23.9032 28.5519 23.8203 28.4147 23.6377C28.3574 23.5615 28.3181 23.4745 28.2924 23.3804ZM25.2586 20.4723L27.4263 21.1675C27.5669 21.1905 27.8032 21.2096 28.0847 21.22C28.0211 21.0037 27.9919 20.7826 27.9919 20.5943C27.9919 20.4696 28.0354 20.3032 28.0884 20.1404C28.104 20.0925 28.1212 20.0429 28.1395 19.9922C27.7789 20.005 27.5044 19.9793 27.1654 19.9476C26.8776 19.9206 26.5433 19.8893 26.0704 19.8736L25.0833 19.9118C25.0056 19.9882 24.933 20.0615 24.8646 20.1328C24.9003 20.1887 24.9414 20.2502 24.9867 20.3156C25.0753 20.3744 25.1662 20.4269 25.2586 20.4723ZM25.5077 19.5052L26.0623 19.4836C26.067 19.4835 26.0717 19.4834 26.0763 19.4836C26.5894 19.5005 26.9369 19.5333 27.2275 19.5607C27.6008 19.596 27.8802 19.6223 28.2963 19.5947C28.2964 19.5944 28.2965 19.5941 28.2967 19.5938C28.452 19.2262 28.6291 18.8655 28.7115 18.728C28.7899 18.5971 28.9212 18.4347 29.0804 18.2608C28.9758 18.217 28.872 18.1794 28.7697 18.1489C28.4896 18.3418 28.2404 18.4517 27.9704 18.5109C27.7391 18.5616 27.5006 18.5733 27.2302 18.5773C27.1468 18.5786 27.0605 18.5791 26.9697 18.5796C26.9018 18.58 26.8313 18.5804 26.7577 18.5812C26.749 18.5841 26.7404 18.587 26.732 18.5898C26.7121 18.5966 26.693 18.603 26.6747 18.6092C26.6278 18.6251 26.5875 18.639 26.552 18.6518C26.4419 18.8716 26.2097 19.0497 25.9546 19.1919C25.875 19.2362 25.7901 19.2788 25.7012 19.3193C25.6421 19.3764 25.5775 19.4384 25.5077 19.5052ZM27.8938 18.1285C27.9721 18.111 28.0494 18.088 28.1285 18.0571C28.0957 18.0584 28.0632 18.0609 28.0312 18.0645L27.8938 18.1285ZM29.4481 18.4383C29.2563 18.6405 29.1157 18.8121 29.046 18.9284L28.8787 18.8282L29.046 18.9284C28.99 19.0218 28.8671 19.2667 28.7405 19.5506C28.9363 19.5259 29.1613 19.4917 29.4272 19.4457C29.5711 19.1896 29.7221 18.9426 29.8806 18.7033C29.8537 18.6849 29.8265 18.6668 29.7993 18.6489C29.683 18.5728 29.5656 18.5022 29.4481 18.4383ZM30.1014 18.3818C30.072 18.3619 30.0425 18.3421 30.0129 18.3227C29.9218 18.2631 29.8285 18.2056 29.7337 18.1512C29.7434 18.1418 29.7532 18.1324 29.7631 18.123C29.9312 18.1365 30.0989 18.1488 30.2634 18.1597C30.2086 18.233 30.1546 18.3071 30.1014 18.3818ZM30.1959 18.9334C30.107 19.0681 30.0206 19.2053 29.9365 19.3452C30.1349 19.2998 30.3217 19.2482 30.5003 19.1867C30.4031 19.1006 30.3013 19.0156 30.1959 18.9334ZM30.9011 19.0247C30.7505 18.8831 30.5878 18.7436 30.4168 18.6112C30.5191 18.4673 30.6245 18.3261 30.7332 18.1873C30.8811 18.1948 31.0232 18.2008 31.1571 18.2052C31.5151 18.2167 31.8294 18.217 32.0331 18.1974C32.033 18.2011 32.0329 18.2047 32.0328 18.2083C31.9894 18.2564 31.9447 18.3015 31.8988 18.3436C31.5689 18.646 31.2465 18.8623 30.9011 19.0247ZM30.0186 19.7264C29.9083 19.7516 29.7952 19.7748 29.6788 19.7966C29.6129 19.9183 29.5485 20.042 29.4856 20.1681C29.6512 20.007 29.8105 19.8721 29.949 19.7735L29.9491 19.7735C29.9716 19.7574 29.9948 19.7417 30.0186 19.7264ZM31.4875 19.6628C31.5196 19.7043 31.5501 19.7452 31.5788 19.7856C31.6037 19.8206 31.6289 19.8615 31.6542 19.907C31.7245 19.8165 31.7829 19.728 31.8262 19.6439C31.7165 19.6445 31.6029 19.6508 31.4875 19.6628ZM31.9361 19.2551C31.7308 19.2497 31.5178 19.2628 31.3095 19.2916C31.2768 19.2961 31.244 19.301 31.2112 19.3063C31.4786 19.1675 31.7373 18.9951 31.9972 18.7762C31.9932 18.817 31.989 18.857 31.9847 18.8959C31.9692 19.0347 31.9522 19.1567 31.9361 19.2551ZM32.4131 17.6653C32.4971 17.5141 32.5751 17.3498 32.6474 17.1744C32.7066 17.0306 32.7617 16.8803 32.8129 16.7249L32.8165 16.5921C32.8029 16.4372 32.7821 16.2825 32.7545 16.1285C32.7441 16.1369 32.7344 16.1448 32.7254 16.1524C32.5224 16.3242 32.3273 16.4966 32.1396 16.6707C32.1769 16.722 32.2085 16.7777 32.2352 16.8351C32.3413 17.0624 32.3923 17.3602 32.4131 17.6653ZM31.359 16.8859C31.2568 16.9379 31.1339 17.0121 30.9946 17.1069C30.7532 17.2711 30.4821 17.4838 30.2175 17.7113C30.198 17.7281 30.1786 17.7449 30.1592 17.7618C30.293 17.7711 30.425 17.7796 30.5536 17.787C30.8051 17.4769 31.0731 17.1778 31.359 16.8859ZM31.0409 17.8108C31.2942 17.5136 31.5642 17.2259 31.8527 16.9439C31.8625 16.9607 31.8723 16.9794 31.8819 17C31.9695 17.1878 32.0161 17.4745 32.0303 17.8057C31.8745 17.8249 31.5705 17.8284 31.1697 17.8154C31.1276 17.8141 31.0846 17.8125 31.0409 17.8108ZM28.7972 17.6398C28.9221 17.538 29.059 17.4166 29.2126 17.2712C29.7562 16.7571 30.0489 16.3333 30.1706 15.883C30.0058 16.0921 29.8263 16.2769 29.6446 16.4259L29.521 16.2751L29.6446 16.4259L29.6387 16.4307C29.0549 16.9093 28.5942 17.2869 28.0983 17.5509C28.1274 17.5552 28.1571 17.5595 28.1873 17.5638C28.3738 17.5901 28.5798 17.6156 28.7972 17.6398ZM27.4256 17.4192C27.5303 17.3838 27.6305 17.3438 27.7283 17.2991C28.2538 17.059 28.7191 16.6803 29.3974 16.1243C29.7043 15.8727 30.0092 15.4988 30.2275 15.0816C30.2024 14.804 30.1381 14.4938 30.0371 14.1334C29.9217 13.7221 29.797 13.3864 29.6582 13.1244C29.6291 13.1239 29.6014 13.123 29.5745 13.1221C29.5436 13.1212 29.5137 13.1202 29.4837 13.1198C29.4481 13.1193 29.4111 13.1194 29.3697 13.1214C29.1813 13.1967 28.9593 13.2974 28.6892 13.4261C28.4299 13.5498 28.178 13.6468 27.9455 13.7364C27.9291 13.7427 27.9127 13.749 27.8965 13.7553C27.6475 13.8513 27.4243 13.9395 27.222 14.0475C27.1203 14.1019 27.0239 14.1612 26.9333 14.229C27.1008 14.4573 27.2416 14.6886 27.3285 14.9043C27.4452 15.1941 27.4952 15.5413 27.2446 15.7784C27.1452 15.8725 27.0783 15.9453 27.0233 16.0051C27.0151 16.0139 27.0073 16.0225 26.9996 16.0308C26.9446 16.0903 26.8818 16.1581 26.7968 16.2014C26.706 16.2478 26.6107 16.2572 26.5074 16.2566C26.4342 16.2562 26.3423 16.2503 26.2275 16.242C26.3185 16.4396 26.4896 16.6419 26.7715 16.9054L27.3739 17.4014C27.3878 17.4069 27.4051 17.4129 27.4256 17.4192ZM25.8014 16.2103C25.9011 16.5663 26.1527 16.8613 26.5098 17.1946C26.5127 17.1973 26.5158 17.2 26.5189 17.2026L26.934 17.5444C26.8023 17.568 26.6623 17.5862 26.5119 17.5988C26.5003 17.5496 26.4871 17.501 26.4721 17.4538C26.4025 17.2339 26.2719 16.9719 26.0122 16.8883C25.7415 16.8012 25.4478 16.9412 25.1431 17.2295L24.8425 17.5138C24.7884 17.5049 24.7333 17.4955 24.6775 17.4857C24.7715 17.0747 24.9304 16.6153 25.1358 16.1472C25.3538 16.1734 25.5765 16.1929 25.8014 16.2103ZM26.1436 15.8448C26.1545 15.8456 26.1651 15.8464 26.1756 15.8472C26.333 15.8588 26.4347 15.8663 26.5095 15.8667C26.5915 15.8672 26.6119 15.8581 26.6195 15.8542C26.633 15.8473 26.6515 15.8329 26.7132 15.7662C26.7204 15.7584 26.7279 15.7503 26.7358 15.7416C26.7912 15.6813 26.8667 15.5991 26.9767 15.4951L27.1107 15.6367L26.9767 15.4951C27.0388 15.4363 27.0722 15.3117 26.9668 15.05C26.8999 14.8838 26.7886 14.6957 26.6476 14.4992C26.5155 14.6575 26.4024 14.8533 26.3107 15.1048C26.1966 15.4178 26.1449 15.6517 26.1436 15.8448ZM26.4036 14.1856C26.2206 14.3873 26.0648 14.6407 25.9443 14.9713C25.8283 15.2896 25.7602 15.5637 25.754 15.8153C25.6017 15.803 25.453 15.7897 25.3084 15.7742C25.3891 15.6084 25.4749 15.4428 25.5651 15.2793C25.7648 14.9171 25.983 14.5697 26.2098 14.2549C26.2595 14.2142 26.3095 14.1739 26.3599 14.1337C26.3746 14.1509 26.3892 14.1682 26.4036 14.1856ZM26.6921 13.9227C26.727 13.8963 26.7626 13.871 26.7989 13.8467C26.7608 13.8571 26.7249 13.867 26.691 13.8765C26.6833 13.8823 26.6756 13.8881 26.6679 13.894C26.676 13.9035 26.6841 13.9131 26.6921 13.9227ZM27.6396 13.1886L28.4017 12.9196C28.406 12.9181 28.4103 12.9167 28.4147 12.9155C28.8441 12.7971 29.0932 12.7516 29.2818 12.7363C29.3105 12.7253 29.3387 12.7147 29.3665 12.7046C29.2706 12.6047 29.1708 12.5344 29.067 12.4897C28.9679 12.447 28.8569 12.4246 28.7312 12.4265L28.1618 12.8234C27.9767 12.9524 27.8034 13.0733 27.6396 13.1886ZM25.9828 13.7242C25.8599 13.6002 25.7357 13.483 25.6158 13.3769C25.3447 13.1373 25.1089 12.9671 24.9654 12.8988C24.6247 12.7366 23.9685 12.5754 23.276 12.4913L22.7985 12.7523C22.7514 12.785 22.6906 12.8335 22.6208 12.8941C22.6135 12.9836 22.6078 13.0834 22.6041 13.1856C22.5989 13.3336 22.5982 13.4836 22.6034 13.6119C22.6087 13.7456 22.6199 13.8389 22.6323 13.8833C22.8769 14.7557 23.3307 15.2027 23.9135 15.4567C23.9499 15.4725 23.9868 15.4876 24.0242 15.5021C24.15 15.3788 24.2915 15.2479 24.444 15.1068C24.5518 15.0071 24.6652 14.9022 24.7823 14.7914C24.938 14.6441 25.0715 14.5162 25.1874 14.4051C25.3312 14.2673 25.4478 14.1555 25.5458 14.0653C25.7135 13.911 25.8423 13.8051 25.9828 13.7242ZM23.7359 15.8045C23.0527 15.5003 22.529 14.9595 22.2568 13.9885C22.2309 13.8962 22.2191 13.7624 22.2137 13.6275C22.2095 13.5224 22.209 13.4063 22.2112 13.2895C22.1491 13.355 22.0866 13.4235 22.0253 13.4937C21.8788 13.6618 21.7448 13.8338 21.6457 13.9904C21.5426 14.1534 21.4923 14.2764 21.4849 14.3515C21.4822 14.3789 21.4883 14.4397 21.5191 14.5413C21.5485 14.6382 21.5951 14.7554 21.6564 14.8879C21.7788 15.1526 21.9535 15.4642 22.1464 15.7714C22.3391 16.0782 22.5472 16.3766 22.735 16.6147C22.829 16.7339 22.9164 16.8362 22.9931 16.9163C23.0673 16.9938 23.1243 17.0429 23.1624 17.068C23.1994 16.7359 23.2915 16.4609 23.441 16.2069C23.5242 16.0655 23.6233 15.9337 23.7359 15.8045ZM23.1443 17.4946C23.0761 17.4657 23.0152 17.4356 22.9644 17.4041C22.8838 17.3543 22.7971 17.2754 22.7114 17.1859C22.6516 17.1234 22.5881 17.0513 22.5224 16.9721C22.5422 17.0036 22.5532 17.0411 22.5521 17.0811C22.5521 17.0813 22.5521 17.0815 22.5521 17.0817C22.5515 17.1047 22.5514 17.1238 22.5518 17.1395C22.5636 17.1482 22.5752 17.1588 22.5863 17.1716C22.6366 17.2299 22.6413 17.2981 22.6424 17.3256C22.6444 17.3732 22.6372 17.4373 22.6229 17.5219C22.7505 17.5817 22.8877 17.6384 23.0352 17.692L23.154 17.7223C23.1488 17.6436 23.1455 17.5678 23.1443 17.4946ZM23.1957 18.1354L22.9295 18.0674C22.9234 18.0659 22.9173 18.064 22.9114 18.0619C22.7861 18.0166 22.6667 17.9688 22.553 17.9185C22.5428 17.977 22.5326 18.0324 22.5219 18.0811C22.4916 18.22 22.4473 18.3657 22.3535 18.483C22.336 18.505 22.3173 18.5253 22.2976 18.544C22.3471 18.716 22.3686 18.8635 22.3858 18.9807C22.3866 18.9865 22.3875 18.9922 22.3883 18.9979C22.4082 19.1334 22.4216 19.2026 22.4484 19.2532C22.4676 19.2894 22.5006 19.3288 22.6009 19.3681C22.7092 19.4106 22.8813 19.4467 23.1614 19.4744L23.1421 19.6685L23.1614 19.4745C23.2893 19.4871 23.4641 19.4819 23.6667 19.4604C23.4284 19.0623 23.264 18.6274 23.2048 18.2028C23.2016 18.1801 23.1986 18.1576 23.1957 18.1354ZM24.6037 19.2857C24.6974 19.2616 24.7914 19.2353 24.8846 19.2071C25.0956 19.1432 25.298 19.0705 25.4797 18.9912C25.5069 18.9648 25.5329 18.9397 25.5576 18.9157C25.6353 18.8405 25.7019 18.776 25.7648 18.7162C25.807 18.6762 25.8457 18.6401 25.8822 18.6073L25.1835 18.6344C25.1647 18.6351 25.1459 18.6331 25.1277 18.6285L24.7809 18.54C24.726 18.6785 24.6737 18.8123 24.6334 18.9171C24.6101 18.9777 24.591 19.028 24.5778 19.0637C24.575 19.0714 24.5725 19.0782 24.5704 19.0842C24.5707 19.0866 24.571 19.0893 24.5714 19.0922C24.5748 19.1174 24.5802 19.1516 24.5872 19.1928C24.5921 19.2214 24.5976 19.2526 24.6037 19.2857ZM24.927 18.1748L25.1967 18.2436L26.1993 18.2048C26.199 18.198 26.1987 18.1911 26.1983 18.1842C26.1954 18.1276 26.1909 18.0679 26.1845 18.0069C26.0282 18.0113 25.8632 18.011 25.6879 18.0061C25.5382 18.0019 25.3 17.9767 25.0252 17.9367C25.0138 17.9639 25.001 17.9943 24.9873 18.0276C24.9687 18.0726 24.9484 18.1222 24.927 18.1748ZM24.6292 17.8731C24.6219 17.8718 24.6146 17.8705 24.6072 17.8692C24.6041 17.893 24.6012 17.9165 24.5986 17.9397C24.5982 17.9432 24.5979 17.9467 24.5975 17.9503C24.6076 17.9254 24.6175 17.9014 24.6269 17.8786C24.6277 17.8768 24.6284 17.8749 24.6292 17.8731ZM24.2011 17.9896C24.2043 17.9588 24.2076 17.9278 24.2111 17.8968C24.2147 17.8635 24.219 17.8299 24.2237 17.7958C24.0724 17.7647 23.9224 17.7308 23.7802 17.6951C23.7854 17.7575 23.7929 17.8217 23.8028 17.8879L24.2011 17.9896ZM23.988 19.2377C24.0201 19.2922 24.0537 19.346 24.0888 19.3989C24.0999 19.3969 24.111 19.3948 24.1222 19.3927C24.0753 19.3429 24.0305 19.2911 23.988 19.2377ZM24.1682 18.3836L23.9138 18.3187C23.9738 18.4808 24.0544 18.6448 24.1528 18.7985C24.154 18.6629 24.1593 18.5247 24.1682 18.3836ZM23.7797 17.2922C23.9396 17.3347 24.115 17.3751 24.2944 17.4123C24.3879 16.9982 24.5412 16.5462 24.7358 16.0898C24.6133 16.0689 24.4931 16.0447 24.3754 16.0165C24.1512 16.2777 23.99 16.529 23.8908 16.7964C23.8333 16.9512 23.7955 17.1146 23.7797 17.2922ZM24.6833 15.6842C24.7546 15.6978 24.8272 15.7103 24.9011 15.7217C24.985 15.544 25.0744 15.3671 25.1682 15.1928C25.0138 15.3443 24.8534 15.5069 24.6833 15.6842ZM25.335 17.5847C25.4862 17.6029 25.6122 17.6139 25.6987 17.6163C25.8454 17.6204 25.9836 17.6211 26.1144 17.6186C26.1099 17.6026 26.1053 17.5869 26.1004 17.5715C26.0359 17.3677 25.9565 17.2801 25.8927 17.2595C25.8397 17.2424 25.6958 17.2435 25.4111 17.5128L25.2771 17.3712L25.411 17.5128L25.335 17.5847ZM26.5742 17.9848C26.8931 17.9564 27.1744 17.9038 27.4347 17.8255C27.4747 17.8353 27.5167 17.8446 27.5601 17.8537L27.322 17.9646C27.0482 18.0691 26.8471 18.139 26.6912 18.192C26.6579 18.1924 26.6238 18.1929 26.5891 18.1935C26.5887 18.1837 26.5882 18.1739 26.5877 18.1639C26.5848 18.1079 26.5805 18.0476 26.5742 17.9848ZM22.149 17.2567C22.1559 17.1981 22.1605 17.1362 22.1623 17.0703C22.1653 16.9627 22.255 16.8778 22.3627 16.8808C22.4125 16.8822 22.4575 16.9022 22.4911 16.934C22.4705 16.9087 22.4497 16.8827 22.4288 16.8562C22.2309 16.6052 22.0148 16.2951 21.8161 15.9787C21.6177 15.6626 21.434 15.3359 21.3025 15.0516C21.2368 14.9096 21.1825 14.7747 21.146 14.6546C21.111 14.5395 21.0864 14.4187 21.0968 14.3131L21.0968 14.3131C21.1137 14.1425 21.2069 13.9547 21.3162 13.7819C21.4296 13.6028 21.5772 13.4144 21.7314 13.2374C21.9006 13.0434 22.084 12.8563 22.2475 12.7052C22.2534 12.6553 22.26 12.6091 22.2674 12.5688C22.2753 12.5257 22.2865 12.4745 22.3047 12.4325C22.239 12.4332 22.1746 12.4351 22.1119 12.4382C21.7887 12.4544 21.5269 12.5027 21.3535 12.5812C21.1649 12.6666 20.9672 12.8054 20.7718 12.9827C20.7355 13.0959 20.7172 13.1936 20.7106 13.2943C20.7005 13.4466 20.7171 13.6126 20.7531 13.8608C20.7633 13.931 20.775 14.0076 20.7879 14.0915C20.8196 14.2991 20.8582 14.5514 20.8976 14.8629C20.9914 15.6051 21.1657 16.1762 21.4894 16.6271C21.6591 16.8635 21.8739 17.0723 22.149 17.2567ZM20.3194 13.4658C20.2017 13.6112 20.0884 13.7673 19.9825 13.9303C19.5793 14.551 19.3143 15.2236 19.3053 15.7036C19.2965 16.1754 19.5354 16.772 19.9298 17.2844C20.324 17.7966 20.8434 18.1859 21.3551 18.2837M20.3194 13.4658C20.3248 13.6032 20.3429 13.7492 20.3672 13.9169C20.378 13.9913 20.3901 14.0704 20.4032 14.1559C20.4348 14.3621 20.472 14.6056 20.5107 14.9118C20.6084 15.6846 20.7952 16.3287 21.1726 16.8545C21.3998 17.1709 21.6909 17.4374 22.06 17.6625C22.0394 17.7283 22.0174 17.7909 21.9959 17.8522C21.993 17.8605 21.9901 17.8687 21.9872 17.8769C21.9389 18.015 21.8882 18.161 21.8789 18.3222C21.7764 18.338 21.6151 18.3333 21.3551 18.2837M30.2547 13.0793C30.1922 13.0889 30.1351 13.0966 30.0826 13.1027C30.206 13.3674 30.3142 13.6774 30.4125 14.0281C30.444 14.1404 30.4725 14.2495 30.4977 14.3555C30.5997 13.8835 30.5427 13.4339 30.2547 13.0793ZM35.501 15.3169C35.6921 15.2544 35.8797 15.1802 36.0624 15.093C36.0804 15.1067 36.0984 15.1207 36.1162 15.1349C36.3645 15.333 36.5644 15.5575 36.6445 15.7L36.9533 16.5987C36.6067 16.7673 36.2597 16.8812 35.9563 16.9305C35.5832 16.9911 35.3221 16.947 35.1896 16.8458L35.0713 17.0007L35.1896 16.8458C35.076 16.759 35.0173 16.5436 35.1116 16.1717C35.1791 15.9057 35.316 15.6048 35.501 15.3169ZM27.0996 10.4034C27.0996 10.4034 27.0995 10.4034 27.0995 10.4034L27.0995 10.4034C27.0995 10.4034 27.0996 10.4034 27.0996 10.4034Z" fill="#332C2B"/>
</svg>
