<svg width="2236" height="1608" viewBox="0 0 2236 1608" fill="none" xmlns="http://www.w3.org/2000/svg">
<g clip-path="url(#clip0_1861_3114)">
<path d="M1607.01 14.3076C1607.87 14.3803 1608.72 14.4529 1609.61 14.5278C1633.83 17.2575 1659.25 43.9568 1673.98 61.5609C1675.25 63.1805 1676.52 64.8113 1677.77 66.4492C1678.19 66.9824 1678.6 67.5157 1679.03 68.0651C1726.07 128.521 1747.19 207.702 1797.28 574.199C1797.36 575.854 1797.36 575.855 1797.45 577.544C1797.71 582.704 1797.95 587.864 1798.17 593.026C1798.25 594.837 1798.34 596.648 1798.42 598.459C1798.45 599.267 1798.48 600.074 1798.51 600.906C1798.84 607.643 1800.8 612.113 1804.5 617.796C1805.06 618.656 1805.61 619.516 1806.19 620.402C1806.78 621.304 1807.37 622.205 1807.97 623.134C1808.59 624.085 1809.2 625.036 1809.82 625.987C1811.03 627.861 1812.24 629.734 1813.45 631.606C1829.72 656.764 1844.94 682.699 1858.62 709.352C1859.62 711.294 1860.65 713.223 1861.69 715.147C1893.55 774.235 1917.91 838 1934.38 903.027C1934.62 903.952 1934.62 903.952 1934.86 904.896C1936.73 912.257 1938.33 919.61 1939.63 927.094C1939.89 928.549 1940.15 930.005 1940.42 931.46C1940.92 934.225 1941.36 936.989 1941.76 939.77C1942.8 945.96 1943.88 950.236 1949.05 954.14C1950.58 955.161 1952.12 956.113 1953.7 957.037C1963.53 962.821 1970.49 972.326 1977.3 981.242C1977.64 981.685 1977.98 982.127 1978.33 982.583C1979.35 983.972 1979.35 983.972 1980.3 985.505C1982.99 989.726 1985.76 991.318 1990.35 993.171C2017.59 1005.12 2036.02 1029.23 2046.7 1056.4C2047.93 1059.7 2049.04 1063.03 2050.11 1066.39C2050.33 1067.07 2050.55 1067.76 2050.77 1068.46C2053.77 1078 2055.82 1087.66 2057.48 1097.51C2057.65 1098.47 2057.81 1099.43 2057.99 1100.41C2061.22 1120.81 2061.28 1141.57 2061.4 1162.17C2061.72 1212.01 2066.22 1260.76 2074.96 1309.82C2084.37 1362.66 2091.91 1415.79 2097.02 1469.23C2097.1 1470.06 2097.18 1470.9 2097.27 1471.76C2099.27 1492.46 2100.3 1513.23 2101.49 1533.98C2102.35 1533.98 2102.35 1533.98 2103.22 1533.97C2117.14 1533.9 2131.05 1533.84 2144.97 1533.81C2151.7 1533.79 2158.43 1533.77 2165.16 1533.73C2171.02 1533.69 2176.89 1533.67 2182.76 1533.67C2185.86 1533.66 2188.97 1533.65 2192.07 1533.63C2195.54 1533.6 2199.01 1533.6 2202.48 1533.6C2203.51 1533.59 2204.53 1533.58 2205.58 1533.56C2212.66 1533.6 2217.01 1534.68 2222.59 1539.24C2226.97 1544.58 2228.44 1548.96 2228.17 1555.93C2227.42 1561.69 2224.74 1565.3 2220.42 1569.03C2213.94 1572.97 2207.99 1573.03 2200.59 1572.98C2199.44 1572.99 2198.29 1572.99 2197.14 1573C2193.98 1573.01 2190.82 1573 2187.65 1572.99C2184.2 1572.98 2180.75 1572.99 2177.3 1573C2171.22 1573.01 2165.15 1573.01 2159.07 1573C2149.98 1572.99 2140.88 1573 2131.78 1573.01C2116.28 1573.02 2100.78 1573.02 2085.28 1573.02C2069.57 1573.01 2053.86 1573.02 2038.15 1573.02C2036.66 1573.02 2036.66 1573.02 2035.14 1573.03C2030.09 1573.03 2025.03 1573.03 2019.97 1573.03C2009.61 1573.04 1999.24 1573.04 1988.87 1573.05C1987.83 1573.05 1986.78 1573.05 1985.71 1573.05C1962.76 1573.06 1939.81 1573.06 1916.86 1573.06C1878.33 1573.07 1839.8 1573.08 1801.27 1573.1C1800.43 1573.1 1800.43 1573.1 1799.57 1573.1C1785.84 1573.11 1772.11 1573.12 1758.38 1573.13C1736.85 1573.14 1715.32 1573.15 1693.79 1573.17C1691.44 1573.17 1689.09 1573.17 1686.73 1573.17C1631.28 1573.2 1575.82 1573.23 1520.37 1573.25C1517.3 1573.25 1514.23 1573.25 1511.17 1573.26C1454.48 1573.28 1397.8 1573.3 1341.11 1573.31C1339.27 1573.31 1337.42 1573.31 1335.57 1573.31C1322.66 1573.32 1309.75 1573.32 1296.83 1573.32C1294.99 1573.32 1293.15 1573.32 1291.31 1573.32C1290.08 1573.32 1288.86 1573.32 1287.63 1573.32C1287.02 1573.32 1286.41 1573.32 1285.79 1573.32C1282.72 1573.32 1279.66 1573.33 1276.59 1573.33C1219.97 1573.34 1163.35 1573.35 1106.73 1573.39C1105.56 1573.39 1104.38 1573.39 1103.2 1573.39C1079.37 1573.41 1055.54 1573.42 1031.71 1573.44C1020.28 1573.45 1008.85 1573.46 997.413 1573.46C996.275 1573.46 995.138 1573.47 994.001 1573.47C957.169 1573.49 920.337 1573.5 883.506 1573.49C846.987 1573.49 810.468 1573.5 773.949 1573.54C768.905 1573.54 763.861 1573.55 758.817 1573.55C757.828 1573.55 756.839 1573.55 755.821 1573.55C740.151 1573.57 724.482 1573.56 708.813 1573.55C693.413 1573.54 678.012 1573.54 662.612 1573.57C653.579 1573.59 644.546 1573.59 635.513 1573.57C629.515 1573.56 623.517 1573.56 617.519 1573.59C614.118 1573.6 610.718 1573.61 607.317 1573.58C588.697 1573.39 588.697 1573.39 571.706 1580.24C548.302 1589.84 522.956 1588.09 498.99 1582.02C491.796 1580.04 491.796 1580.04 484.911 1582.3C484.17 1582.76 484.17 1582.76 483.413 1583.23C461.438 1595.88 432.772 1598.88 408.282 1592.85C398.668 1590.09 388.801 1585.77 380.483 1580.24C377.04 1580.58 373.922 1581.89 370.69 1583.07C346.503 1591.36 318.042 1589.82 294.95 1578.82C289.217 1575.74 289.217 1575.74 287.819 1574.35C286.479 1574.27 285.135 1574.25 283.793 1574.25C282.916 1574.25 282.039 1574.25 281.135 1574.25C280.16 1574.26 279.185 1574.26 278.181 1574.27C276.64 1574.27 276.641 1574.27 275.069 1574.27C272.206 1574.27 269.343 1574.28 266.48 1574.29C263.396 1574.3 260.313 1574.3 257.23 1574.31C251.882 1574.31 246.534 1574.32 241.185 1574.34C232.729 1574.36 224.273 1574.37 215.817 1574.38C212.926 1574.38 210.034 1574.38 207.142 1574.39C206.419 1574.39 205.696 1574.39 204.951 1574.39C196.716 1574.4 188.481 1574.41 180.246 1574.42C179.493 1574.43 178.74 1574.43 177.964 1574.43C165.773 1574.45 153.582 1574.47 141.391 1574.5C128.877 1574.53 116.363 1574.54 103.849 1574.55C96.1302 1574.56 88.4115 1574.57 80.6926 1574.6C75.3977 1574.61 70.1028 1574.62 64.8079 1574.62C61.7546 1574.62 58.7015 1574.62 55.6483 1574.64C52.3331 1574.66 49.018 1574.65 45.7027 1574.65C44.7445 1574.65 43.7863 1574.66 42.7991 1574.67C34.8949 1574.63 27.8689 1573.69 21.9619 1568.08C17.6932 1563.38 17.0458 1558.59 17.128 1552.44C17.6932 1547.49 19.7066 1543.41 23.2847 1539.93C28.1167 1536.15 31.5605 1535.56 37.7015 1535.56C38.303 1535.56 38.9044 1535.56 39.524 1535.56C41.5392 1535.56 43.5543 1535.56 45.5695 1535.57C47.014 1535.57 48.4586 1535.57 49.9032 1535.57C53.8259 1535.57 57.7487 1535.57 61.6714 1535.58C65.7705 1535.58 69.8696 1535.58 73.9687 1535.58C81.7314 1535.59 89.4942 1535.59 97.257 1535.6C106.094 1535.61 114.932 1535.62 123.769 1535.62C141.949 1535.63 160.129 1535.64 178.308 1535.66C178.343 1534.68 178.343 1534.68 178.378 1533.68C178.484 1530.69 178.591 1527.7 178.699 1524.72C178.735 1523.69 178.771 1522.66 178.808 1521.6C179.055 1514.81 179.416 1508.09 180.204 1501.34C180.312 1500.38 180.42 1499.43 180.532 1498.44C185.608 1455.54 195.461 1405.7 221.257 1369.78C221.657 1369.22 222.057 1368.65 222.47 1368.07C223.22 1367.04 223.993 1366.03 224.791 1365.03C226.817 1362.29 227.182 1360.89 226.841 1357.48C226.421 1356.03 225.962 1354.6 225.482 1353.17C225.155 1352.15 224.828 1351.14 224.49 1350.09C223.493 1347.04 222.46 1344 221.421 1340.96C202.138 1284.47 190.237 1225.93 185.047 1166.47C184.957 1165.44 184.957 1165.44 184.864 1164.38C182.4 1135.96 181.884 1107.52 181.678 1079C181.672 1078.25 181.667 1077.49 181.661 1076.7C181.611 1068.75 181.724 1060.83 182.099 1052.88C182.224 1050.23 182.338 1047.58 182.402 1044.93C182.52 1042 182.52 1042 182.896 1038.68C183.926 1027.47 179.06 1020.89 172.569 1012.15C171.63 1010.83 170.694 1009.52 169.761 1008.21C168.369 1006.25 166.975 1004.29 165.568 1002.34C161.225 996.33 157.189 990.141 153.209 983.884C151.725 981.554 150.225 979.236 148.726 976.916C141.628 965.879 134.628 954.789 127.765 943.605C127.221 942.722 126.677 941.839 126.117 940.929C117.402 926.767 108.948 912.478 100.796 897.986C99.9693 896.516 99.1406 895.047 98.3116 893.578C65.1587 834.752 35.4058 772.913 10.6718 590.388C10.841 589.258 10.841 589.258 11.0136 588.105C13.455 572.598 17.4061 555.641 27.5197 543.292C28.1376 542.495 28.7554 541.698 29.392 540.878C36.4847 531.926 44.4886 524.825 53.6339 518.062C54.1057 517.713 54.5776 517.364 55.0637 517.005C77.0863 500.987 103.451 491.072 129.449 483.582C130.349 483.321 131.248 483.06 132.174 482.792C206.284 461.571 284.973 456.581 361.644 454.009C362.219 453.99 362.795 453.97 363.387 453.95C381.6 453.342 399.751 453.302 417.968 453.709C421.792 453.794 425.615 453.863 429.438 453.928C430.717 453.951 431.995 453.973 433.273 453.995C435.191 454.028 437.109 454.061 439.027 454.094C446.145 454.215 453.26 454.372 460.375 454.609C501.105 456.501 501.105 456.501 535.584 436.982C538.852 434.049 542.35 431.889 546.178 429.768C547.259 429.136 548.339 428.502 549.419 427.868C550.425 427.288 551.43 426.71 552.436 426.131C553.502 425.511 554.567 424.889 555.632 424.267C557.206 423.347 558.781 422.428 560.359 421.514C563.508 419.687 566.633 417.826 569.748 415.941C576.124 412.084 582.594 408.483 589.186 405.001C590.226 404.45 591.265 403.898 592.305 403.345C594.348 402.261 596.393 401.178 598.439 400.097C600.737 398.881 603.031 397.66 605.323 396.434C609.264 394.333 613.224 392.273 617.195 390.231C618.15 389.741 619.105 389.25 620.088 388.744C635.387 380.902 650.843 373.661 666.692 366.998C669.044 366.003 671.385 364.989 673.721 363.957C752.861 329.095 837.498 306.847 973.528 285.107C974.712 284.957 974.712 284.957 975.921 284.804C1010.04 280.499 1044.27 277.851 1078.62 276.119C1080.24 276.035 1080.24 276.035 1081.89 275.95C1093.14 275.376 1104.35 274.944 1115.62 275.029C1117.41 275.032 1119.2 275.035 1120.99 275.037C1124.26 275.045 1127.52 275.117 1130.8 275.232C1137.25 275.338 1142.35 275.377 1147.3 270.843C1149.35 268.694 1151.15 266.436 1152.96 264.083C1154.02 262.879 1155.09 261.681 1156.16 260.492C1156.61 259.965 1157.06 259.439 1157.53 258.897C1159.89 256.152 1162.37 253.524 1164.86 250.889C1165.7 249.989 1165.7 249.989 1166.57 249.07C1172.22 243.104 1178.04 237.309 1183.9 231.543C1187.6 227.88 1191.17 224.17 1194.56 220.218C1196.72 217.757 1199.02 215.451 1201.34 213.15C1201.82 212.673 1202.3 212.197 1202.79 211.706C1205.68 208.855 1208.64 206.154 1211.74 203.534C1214.98 200.619 1218 197.483 1221.07 194.389C1224.17 191.271 1227.33 188.295 1230.69 185.453C1232.23 184.112 1233.66 182.699 1235.09 181.245C1237.61 178.694 1240.24 176.335 1242.95 173.998C1244.99 172.233 1246.99 170.434 1248.99 168.63C1252.61 165.371 1256.26 162.145 1259.94 158.958C1260.56 158.42 1260.56 158.42 1261.19 157.871C1267.04 152.784 1272.97 147.842 1279.11 143.1C1282.61 140.379 1285.98 137.535 1289.32 134.622C1294.41 130.21 1299.7 126.156 1305.12 122.165C1307.73 120.237 1310.31 118.271 1312.88 116.278C1323.08 108.368 1333.58 101.092 1344.39 94.0389C1346.45 92.6883 1348.49 91.3192 1350.53 89.9346C1406.26 52.0466 1469.14 23.6025 1536.25 14.3076C1537.02 14.1972 1537.79 14.0868 1538.59 13.973C1560.73 10.9495 1584.9 11.2331 1607.01 14.3076Z" fill="#FEBE1C"/>
<path d="M1607.01 14.3076C1607.87 14.3803 1608.73 14.4529 1609.61 14.5278C1633.83 17.2575 1659.25 43.9569 1673.98 61.5609C1675.26 63.1805 1676.52 64.8113 1677.77 66.4492C1678.19 66.9824 1678.6 67.5157 1679.03 68.0651C1726.07 128.521 1747.19 207.702 1797.28 574.199C1797.37 575.854 1797.37 575.855 1797.45 577.544C1797.71 582.704 1797.95 587.864 1798.17 593.026C1798.25 594.837 1798.34 596.648 1798.42 598.459C1798.45 599.267 1798.48 600.074 1798.51 600.906C1798.84 607.643 1800.8 612.113 1804.5 617.796C1805.06 618.656 1805.62 619.516 1806.19 620.402C1806.78 621.304 1807.37 622.205 1807.97 623.134C1808.59 624.085 1809.2 625.036 1809.82 625.987C1811.03 627.861 1812.24 629.734 1813.46 631.606C1829.73 656.764 1844.94 682.699 1858.62 709.352C1859.63 711.294 1860.65 713.223 1861.69 715.147C1893.55 774.235 1917.91 838 1934.39 903.027C1934.62 903.952 1934.62 903.952 1934.86 904.896C1936.73 912.257 1938.33 919.61 1939.63 927.094C1939.89 928.549 1940.15 930.005 1940.42 931.46C1940.92 934.225 1941.36 936.989 1941.76 939.77C1942.8 945.96 1943.88 950.236 1949.05 954.14C1950.58 955.161 1952.12 956.113 1953.7 957.037C1963.54 962.821 1970.49 972.326 1977.3 981.242C1977.64 981.685 1977.98 982.127 1978.33 982.583C1979.35 983.972 1979.35 983.972 1980.3 985.505C1982.99 989.726 1985.77 991.318 1990.35 993.171C2017.59 1005.12 2036.02 1029.23 2046.7 1056.4C2047.93 1059.7 2049.04 1063.03 2050.11 1066.39C2050.33 1067.07 2050.55 1067.76 2050.78 1068.46C2053.77 1078 2055.82 1087.66 2057.48 1097.51C2057.65 1098.47 2057.81 1099.43 2057.99 1100.41C2061.22 1120.81 2061.28 1141.57 2061.4 1162.17C2061.72 1212.01 2066.22 1260.76 2074.96 1309.82C2084.37 1362.66 2091.91 1415.79 2097.02 1469.23C2097.1 1470.06 2097.18 1470.9 2097.27 1471.76C2099.27 1492.46 2100.3 1513.23 2101.5 1533.98C2102.35 1533.98 2102.35 1533.98 2103.23 1533.97C2117.14 1533.9 2131.06 1533.84 2144.97 1533.81C2151.7 1533.79 2158.43 1533.77 2165.16 1533.73C2171.02 1533.69 2176.89 1533.67 2182.76 1533.67C2185.86 1533.66 2188.97 1533.65 2192.07 1533.63C2195.54 1533.6 2199.01 1533.6 2202.48 1533.6C2203.51 1533.59 2204.53 1533.58 2205.58 1533.56C2212.66 1533.6 2217.02 1534.68 2222.59 1539.24C2226.97 1544.58 2228.45 1548.96 2228.17 1555.93C2227.42 1561.69 2224.74 1565.3 2220.42 1569.03C2213.95 1572.97 2207.99 1573.03 2200.59 1572.98C2199.44 1572.99 2198.29 1572.99 2197.14 1573C2193.98 1573.01 2190.82 1573 2187.65 1572.99C2184.2 1572.98 2180.75 1572.99 2177.3 1573C2171.22 1573.01 2165.15 1573.01 2159.07 1573C2149.98 1572.99 2140.88 1573 2131.79 1573.01C2116.29 1573.02 2100.79 1573.02 2085.29 1573.02C2069.57 1573.01 2053.86 1573.02 2038.15 1573.02C2036.66 1573.02 2036.66 1573.02 2035.14 1573.03C2030.09 1573.03 2025.03 1573.03 2019.98 1573.03C2009.61 1573.04 1999.24 1573.04 1988.87 1573.05C1987.83 1573.05 1986.79 1573.05 1985.71 1573.05C1962.76 1573.06 1939.81 1573.06 1916.86 1573.06C1878.33 1573.07 1839.8 1573.08 1801.27 1573.1C1800.43 1573.1 1800.43 1573.1 1799.57 1573.1C1785.84 1573.11 1772.11 1573.12 1758.38 1573.13C1736.85 1573.14 1715.32 1573.15 1693.79 1573.17C1691.44 1573.17 1689.09 1573.17 1686.74 1573.17C1631.28 1573.2 1575.82 1573.23 1520.37 1573.25C1517.3 1573.25 1514.24 1573.25 1511.17 1573.26C1454.48 1573.28 1397.8 1573.3 1341.12 1573.31C1339.27 1573.31 1337.42 1573.31 1335.57 1573.31C1322.66 1573.32 1309.75 1573.32 1296.84 1573.32C1294.99 1573.32 1293.15 1573.32 1291.31 1573.32C1290.08 1573.32 1288.86 1573.32 1287.63 1573.32C1287.02 1573.32 1286.42 1573.32 1285.79 1573.32C1282.72 1573.32 1279.66 1573.33 1276.59 1573.33C1219.97 1573.34 1163.35 1573.35 1106.73 1573.39C1105.56 1573.39 1104.38 1573.39 1103.21 1573.39C1079.38 1573.41 1055.54 1573.42 1031.71 1573.44C1020.28 1573.45 1008.85 1573.46 997.414 1573.46C996.277 1573.46 995.139 1573.47 994.002 1573.47C957.17 1573.49 920.339 1573.5 883.507 1573.49C846.988 1573.49 810.469 1573.5 773.951 1573.54C768.907 1573.54 763.862 1573.55 758.818 1573.55C757.829 1573.55 756.841 1573.55 755.822 1573.55C740.153 1573.57 724.484 1573.56 708.814 1573.55C693.414 1573.54 678.014 1573.54 662.613 1573.57C653.58 1573.59 644.547 1573.59 635.514 1573.57C629.516 1573.56 623.518 1573.56 617.52 1573.59C614.119 1573.6 610.719 1573.61 607.318 1573.58C588.699 1573.39 588.699 1573.39 571.707 1580.24C548.303 1589.84 522.957 1588.09 498.992 1582.02C491.797 1580.04 491.797 1580.04 484.913 1582.3C484.171 1582.76 484.171 1582.76 483.414 1583.23C461.44 1595.88 432.774 1598.88 408.283 1592.85C398.669 1590.09 388.803 1585.77 380.484 1580.24C377.041 1580.58 373.924 1581.89 370.691 1583.07C346.504 1591.36 318.043 1589.82 294.951 1578.82C289.219 1575.74 289.219 1575.74 287.821 1574.35C286.48 1574.27 285.136 1574.25 283.794 1574.25C282.917 1574.25 282.04 1574.25 281.137 1574.25C280.162 1574.26 279.186 1574.26 278.182 1574.27C276.642 1574.27 276.642 1574.27 275.07 1574.27C272.207 1574.27 269.344 1574.28 266.481 1574.29C263.398 1574.3 260.314 1574.3 257.231 1574.31C251.883 1574.31 246.535 1574.32 241.187 1574.34C232.731 1574.36 224.275 1574.37 215.819 1574.38C212.927 1574.38 210.035 1574.38 207.143 1574.39C206.42 1574.39 205.697 1574.39 204.953 1574.39C196.717 1574.4 188.482 1574.41 180.247 1574.42C179.494 1574.43 178.741 1574.43 177.965 1574.43C165.774 1574.45 153.583 1574.47 141.392 1574.5C128.878 1574.53 116.364 1574.54 103.85 1574.55C96.1314 1574.56 88.4126 1574.57 80.6938 1574.6C75.3989 1574.61 70.1039 1574.62 64.809 1574.62C61.7557 1574.62 58.7026 1574.62 55.6494 1574.64C52.3342 1574.66 49.0191 1574.65 45.7039 1574.65C44.7457 1574.65 43.7875 1574.66 42.8002 1574.67C34.8961 1574.63 27.87 1573.69 21.963 1568.08C17.6943 1563.38 17.0469 1558.59 17.1291 1552.44C17.6944 1547.49 19.7077 1543.41 23.2858 1539.93C28.1179 1536.15 31.5617 1535.56 37.7027 1535.56C38.3041 1535.56 38.9055 1535.56 39.5251 1535.56C41.5403 1535.56 43.5554 1535.56 45.5706 1535.57C47.0152 1535.57 48.4597 1535.57 49.9043 1535.57C53.8271 1535.57 57.7498 1535.57 61.6725 1535.58C65.7717 1535.58 69.8707 1535.58 73.9698 1535.58C81.7326 1535.59 89.4954 1535.59 97.2581 1535.6C106.096 1535.61 114.933 1535.62 123.77 1535.62C141.95 1535.63 160.13 1535.64 178.309 1535.66C178.344 1534.68 178.344 1534.68 178.379 1533.68C178.485 1530.69 178.592 1527.7 178.7 1524.72C178.736 1523.69 178.772 1522.66 178.81 1521.6C179.056 1514.81 179.417 1508.09 180.205 1501.34C180.313 1500.38 180.421 1499.43 180.533 1498.44C185.609 1455.54 195.462 1405.7 221.258 1369.78C221.658 1369.22 222.058 1368.65 222.471 1368.08C223.221 1367.04 223.994 1366.03 224.793 1365.03C226.818 1362.29 227.184 1360.89 226.842 1357.48C226.422 1356.03 225.963 1354.6 225.483 1353.17C225.156 1352.15 224.829 1351.14 224.492 1350.09C223.494 1347.04 222.462 1344 221.422 1340.96C202.14 1284.47 190.238 1225.93 185.049 1166.47C184.958 1165.44 184.958 1165.44 184.865 1164.38C182.401 1135.96 181.885 1107.52 181.679 1079C181.673 1078.24 181.668 1077.49 181.662 1076.7C181.613 1068.75 181.725 1060.83 182.1 1052.88C182.225 1050.23 182.339 1047.58 182.403 1044.93C182.521 1042 182.521 1042 182.897 1038.68C183.927 1027.48 179.061 1020.89 172.571 1012.15C171.631 1010.83 170.695 1009.52 169.762 1008.21C168.371 1006.25 166.976 1004.29 165.569 1002.34C161.226 996.33 157.19 990.141 153.21 983.884C151.726 981.554 150.226 979.236 148.727 976.916C141.629 965.879 134.629 954.789 127.766 943.605C127.222 942.722 126.678 941.839 126.118 940.929C117.403 926.767 108.95 912.478 100.798 897.986C99.9705 896.516 99.1417 895.047 98.3128 893.578C65.1599 834.752 4.06509 720.375 10.6729 590.388C10.8421 589.258 10.8421 589.258 11.0148 588.105C13.4562 572.598 17.4072 555.641 27.5208 543.292C28.1387 542.495 28.7566 541.698 29.3932 540.878C36.4859 531.926 44.4897 524.825 53.635 518.062C54.1069 517.713 54.5787 517.364 55.0648 517.005C77.0875 500.987 103.452 491.072 129.451 483.582C130.35 483.321 131.249 483.06 132.176 482.792C206.285 461.571 284.974 456.581 361.645 454.009C362.221 453.99 362.796 453.97 363.389 453.95C381.602 453.342 399.752 453.302 417.97 453.709C421.793 453.794 425.616 453.863 429.44 453.928C430.718 453.951 431.996 453.973 433.274 453.995C435.192 454.028 437.111 454.061 439.029 454.094C446.147 454.215 453.261 454.372 460.376 454.609C501.106 456.501 501.106 456.501 535.585 436.982C538.854 434.049 542.351 431.889 546.179 429.768C547.26 429.136 548.341 428.502 549.42 427.868C550.426 427.289 551.432 426.71 552.438 426.131C553.503 425.511 554.568 424.889 555.633 424.267C557.207 423.347 558.782 422.428 560.36 421.514C563.509 419.687 566.635 417.826 569.749 415.941C576.125 412.084 582.596 408.483 589.187 405.001C590.227 404.45 591.266 403.898 592.306 403.345C594.35 402.261 596.394 401.178 598.44 400.097C600.738 398.881 603.032 397.66 605.324 396.434C609.265 394.333 613.225 392.273 617.197 390.231C618.151 389.741 619.106 389.25 620.09 388.744C635.388 380.902 650.844 373.661 666.693 366.998C669.045 366.003 671.387 364.989 673.723 363.957C752.862 329.095 837.499 306.847 973.529 285.107C974.714 284.957 974.714 284.957 975.922 284.804C1010.04 280.499 1044.27 277.851 1078.62 276.119C1080.24 276.035 1080.24 276.035 1081.9 275.95C1093.14 275.376 1104.36 274.944 1115.62 275.029C1117.41 275.032 1119.2 275.035 1120.99 275.037C1124.26 275.045 1127.53 275.117 1130.8 275.232C1137.25 275.338 1142.35 275.377 1147.3 270.843C1149.35 268.694 1151.15 266.436 1152.96 264.083C1154.02 262.879 1155.09 261.681 1156.16 260.492C1156.61 259.965 1157.07 259.439 1157.53 258.897C1159.89 256.152 1162.38 253.524 1164.86 250.889C1165.71 249.989 1165.71 249.989 1166.57 249.07C1172.22 243.104 1178.04 237.309 1183.9 231.543C1187.61 227.88 1191.17 224.17 1194.56 220.218C1196.72 217.757 1199.02 215.451 1201.34 213.15C1201.82 212.673 1202.3 212.197 1202.8 211.706C1205.68 208.855 1208.64 206.154 1211.74 203.534C1214.98 200.619 1218 197.483 1221.07 194.389C1224.17 191.271 1227.33 188.295 1230.69 185.453C1232.23 184.112 1233.66 182.699 1235.09 181.245C1237.61 178.694 1240.24 176.335 1242.95 173.998C1244.99 172.233 1246.99 170.434 1248.99 168.63C1252.61 165.371 1256.26 162.145 1259.94 158.958C1260.56 158.42 1260.56 158.42 1261.19 157.871C1267.05 152.784 1272.97 147.842 1279.11 143.1C1282.61 140.379 1285.98 137.535 1289.32 134.622C1294.41 130.21 1299.7 126.156 1305.12 122.165C1307.73 120.237 1310.31 118.271 1312.88 116.278C1323.08 108.368 1333.59 101.092 1344.4 94.0389C1346.45 92.6883 1348.5 91.3192 1350.53 89.9346C1406.26 52.0466 1469.14 23.6025 1536.25 14.3076C1537.02 14.1972 1537.79 14.0868 1538.59 13.973C1560.73 10.9495 1584.9 11.2331 1607.01 14.3076ZM1534.19 49.252C1532 49.6361 1529.8 49.975 1527.6 50.3094C1497.56 55.0869 1468.53 65.4021 1441.06 78.2231C1440.08 78.6775 1439.1 79.1318 1438.09 79.6C1424.12 86.0973 1410.5 93.0553 1397.25 100.93C1396.39 101.443 1395.52 101.957 1394.63 102.486C1380.84 110.728 1367.48 119.515 1354.29 128.683C1353.39 129.303 1353.39 129.303 1352.48 129.936C1345.84 134.534 1339.44 139.415 1333.08 144.394C1328.88 147.684 1324.63 150.897 1320.33 154.07C1315.72 157.487 1311.29 161.042 1306.94 164.785C1303.71 167.562 1300.39 170.186 1297.01 172.782C1291.95 176.688 1287.25 180.896 1282.6 185.269C1280.14 187.574 1277.62 189.799 1275.07 192.004C1273.1 193.722 1271.15 195.472 1269.21 197.224C1266.75 199.437 1264.29 201.633 1261.79 203.794C1254.14 210.463 1246.78 217.402 1239.68 224.651C1237.9 226.435 1236.05 228.09 1234.13 229.727C1230.32 233.037 1226.75 236.546 1223.19 240.111C1222.52 240.777 1221.85 241.444 1221.17 242.13C1219.76 243.531 1218.36 244.932 1216.96 246.335C1214.83 248.466 1212.69 250.592 1210.56 252.718C1209.19 254.087 1207.82 255.456 1206.45 256.826C1205.82 257.453 1205.19 258.081 1204.54 258.727C1201.1 262.175 1197.8 265.697 1194.63 269.391C1192.5 271.834 1190.16 274.051 1187.84 276.303C1185.63 278.566 1183.57 280.928 1181.5 283.314C1178.38 286.851 1175.1 290.246 1171.85 293.665C1169.48 296.181 1167.14 298.693 1164.95 301.379C1162.27 304.552 1159.42 306.504 1155.49 307.814C1153.98 307.927 1152.47 307.995 1150.96 308.037C1149.55 308.08 1149.55 308.08 1148.12 308.123C1147.1 308.15 1146.07 308.177 1145.02 308.205C1143.37 308.253 1141.73 308.302 1140.09 308.35C1138.33 308.401 1136.57 308.451 1134.81 308.5C1131.13 308.603 1127.46 308.713 1123.78 308.825C1123.16 308.843 1122.55 308.862 1121.91 308.881C1120.67 308.919 1119.42 308.957 1118.17 308.995C1115.03 309.091 1111.89 309.185 1108.75 309.28C1107.53 309.317 1106.31 309.354 1105.08 309.39C1102.84 309.458 1100.6 309.525 1098.36 309.592C1061.58 310.695 1025 313.017 988.472 317.522C985.431 317.893 982.388 318.245 979.344 318.589C971.488 319.485 963.681 320.425 955.909 321.89C949.98 322.992 944.016 323.849 938.052 324.729C928.96 326.071 919.894 327.434 910.91 329.391C907.246 330.18 903.599 330.764 899.882 331.257C892.615 332.265 885.498 333.827 878.339 335.409C876.953 335.713 875.567 336.016 874.181 336.318C870.825 337.053 867.471 337.793 864.118 338.536C862.51 338.892 860.902 339.246 859.294 339.601C850.91 341.451 842.57 343.383 834.288 345.649C832.112 346.242 829.937 346.819 827.752 347.377C819.104 349.592 810.518 352.006 801.944 354.489C801.404 354.645 800.865 354.801 800.308 354.962C773.983 362.576 748.056 371.341 722.484 381.18C720.828 381.815 719.17 382.445 717.512 383.074C689.548 393.69 662.285 405.803 635.519 419.141C634.696 419.549 633.873 419.958 633.026 420.379C621.538 426.103 610.311 432.211 599.178 438.593C596.215 440.287 593.24 441.96 590.265 443.633C571.502 454.205 553.377 465.603 535.553 477.676C534.927 478.098 534.301 478.52 533.656 478.955C532.488 479.743 531.323 480.534 530.161 481.329C528.584 482.392 526.984 483.408 525.376 484.423C524.457 485.012 523.538 485.6 522.591 486.207C517.392 488.743 511.751 488.221 506.098 488.155C504.83 488.153 503.563 488.152 502.296 488.153C498.86 488.15 495.424 488.127 491.989 488.1C488.356 488.076 484.723 488.071 481.09 488.065C474.178 488.05 467.266 488.019 460.354 487.981C448.085 487.915 435.816 487.878 423.547 487.844C419.268 487.832 414.988 487.813 410.709 487.789C383.132 487.637 355.586 488.257 328.045 489.679C327.018 489.731 325.991 489.784 324.932 489.838C193.612 495.591 100.798 510.631 58.9658 558.699C48.4903 570.737 45.4035 586.672 43.5263 602.162C43.4054 603.139 43.4054 603.139 43.282 604.136C42.5566 610.87 42.5558 617.589 42.5741 624.353C42.5786 626.325 42.5741 628.297 42.5687 630.269C42.5611 642.458 43.3038 654.36 45.369 666.392C45.5537 667.48 45.7384 668.567 45.9287 669.687C47.5905 679.28 49.7228 688.734 52.1695 698.158C52.7531 700.406 53.3184 702.657 53.8818 704.911C69.9848 767.791 99.729 828.371 132.364 884.187C133.823 886.693 135.264 889.209 136.703 891.726C142.93 902.598 149.339 913.325 155.999 923.938C157.559 926.44 159.09 928.958 160.618 931.479C172.423 950.929 185.083 969.816 197.744 988.716C198.217 989.424 198.691 990.131 199.178 990.86C201.736 994.68 204.301 998.495 206.878 1002.3C207.953 1003.9 209.028 1005.49 210.103 1007.09C210.606 1007.83 211.109 1008.57 211.628 1009.33C212.328 1010.37 212.328 1010.37 213.041 1011.43C213.452 1012.04 213.863 1012.64 214.286 1013.27C216.771 1017.43 217.306 1020.93 217.217 1025.71C217.21 1026.33 217.202 1026.95 217.194 1027.59C217.119 1032.42 216.957 1037.25 216.754 1042.08C216.221 1054.92 216.049 1067.73 216.059 1080.58C216.059 1081.63 216.059 1082.67 216.059 1083.75C216.072 1103.14 216.657 1122.47 217.79 1141.83C217.895 1143.64 217.995 1145.45 218.093 1147.26C220.351 1188.19 225.615 1230.43 236.399 1270.03C237.273 1273.26 238.11 1276.49 238.939 1279.73C243.42 1297.11 248.578 1314.23 254.125 1331.3C256.977 1330.67 258.51 1329.83 260.759 1327.94C277.015 1315.03 296.184 1306.3 315.62 1299.34C316.641 1298.98 316.641 1298.98 317.682 1298.6C347.382 1288.05 378.485 1283.16 409.968 1283.21C410.666 1283.21 411.364 1283.21 412.083 1283.21C444.91 1283.31 479.066 1286.34 510.265 1297.24C511.3 1297.6 512.334 1297.96 513.4 1298.33C547.983 1310.59 579.592 1332.55 601.191 1362.42C601.572 1362.94 601.952 1363.47 602.345 1364.01C611.35 1376.52 619.021 1389.71 625.621 1403.63C626 1404.41 626 1404.41 626.387 1405.21C640.814 1435.24 647.111 1473.95 635.914 1506.09C635.405 1507.41 635.405 1507.41 634.887 1508.75C634.581 1509.57 634.581 1509.57 634.268 1510.4C631.327 1518.17 627.886 1525.38 623.6 1532.5C622.17 1534.78 622.17 1534.78 621.409 1537.35C678.472 1537.36 735.534 1537.33 792.597 1537.28C803.252 1537.27 813.908 1537.26 824.563 1537.25C844.203 1537.23 863.843 1537.21 883.484 1537.19C902.854 1537.17 922.225 1537.15 941.596 1537.13C942.204 1537.13 942.811 1537.13 943.438 1537.13C948.993 1537.13 954.548 1537.12 960.104 1537.12C973.896 1537.1 987.688 1537.09 1001.48 1537.08C1002.11 1537.08 1002.73 1537.07 1003.38 1537.07C1033.67 1537.05 1063.97 1537.02 1094.26 1536.99C1104.74 1536.98 1115.21 1536.97 1125.69 1536.96C1126.66 1536.95 1126.66 1536.95 1127.66 1536.95C1158.04 1536.92 1188.41 1536.9 1218.79 1536.87C1220.77 1536.86 1222.75 1536.86 1224.73 1536.86C1237.84 1536.85 1250.96 1536.83 1264.08 1536.82C1290.17 1536.8 1316.26 1536.77 1342.35 1536.75C1343.59 1536.75 1344.83 1536.74 1346.07 1536.74C1417.32 1536.67 1488.56 1536.61 1592.69 1536.5C1593.23 1534.21 1593.78 1531.91 1594.32 1529.61C1594.47 1528.97 1594.63 1528.32 1594.79 1527.65C1595.8 1523.36 1596.75 1519.07 1597.53 1514.72C1597.64 1514.1 1597.76 1513.47 1597.88 1512.82C1598.24 1510.8 1598.6 1508.78 1598.95 1506.75C1599.08 1506.04 1599.2 1505.32 1599.33 1504.58C1610.06 1442.64 1611.87 1378.12 1607.15 1315.45C1607 1313.58 1606.87 1311.7 1606.74 1309.83C1604.65 1280.96 1601.08 1252.29 1596.9 1223.66C1596.69 1222.18 1596.69 1222.18 1596.47 1220.68C1595.19 1211.97 1593.81 1203.28 1592.26 1194.61C1589.74 1180.49 1587.39 1166.53 1586.79 1152.17C1586.76 1151.35 1586.72 1150.53 1586.68 1149.69C1585.6 1122.13 1591.35 1095.44 1609.97 1074.44C1612.06 1072.28 1612.06 1072.28 1614 1071.1C1615.73 1069.76 1615.73 1069.76 1615.83 1067C1615.85 1065.85 1615.86 1064.7 1615.86 1063.55C1616.28 1049.87 1619.23 1036.87 1624.7 1024.34C1625.08 1023.46 1625.46 1022.59 1625.85 1021.68C1638.12 995.429 1662.66 977.94 1689.27 968.035C1691.31 967.294 1693.35 966.566 1695.39 965.845C1695.99 965.633 1696.59 965.421 1697.21 965.203C1698.56 964.724 1699.92 964.245 1701.28 963.766C1703.49 962.742 1704.58 961.22 1706.05 959.331C1707.88 957.157 1710.02 955.394 1712.19 953.559C1713.36 952.555 1714.51 951.526 1715.64 950.471C1739.59 928.112 1769.04 919.024 1801.27 919.784C1808.11 920.021 1814.38 920.772 1820.98 922.58C1821.91 922.804 1822.84 923.029 1823.8 923.26C1834.3 925.972 1844.89 929.992 1854.41 935.195C1859.3 937.746 1863.54 937.157 1868.86 936.443C1874.49 935.814 1880.13 935.914 1885.79 935.931C1886.89 935.927 1887.99 935.924 1889.12 935.921C1895.1 935.927 1900.97 936.111 1906.9 936.877C1901.66 912.275 1895.26 888.022 1887.36 864.13C1886.58 861.701 1885.84 859.261 1885.1 856.818C1883.25 850.809 1881.21 844.875 1879.1 838.954C1878.9 838.394 1878.7 837.835 1878.5 837.259C1872.04 819.177 1864.78 801.468 1856.99 783.921C1856.71 783.297 1856.44 782.673 1856.15 782.029C1852.73 774.312 1849.11 766.717 1845.29 759.184C1843.08 754.8 1840.98 750.357 1838.88 745.919C1831.22 729.903 1822.88 714.308 1814.03 698.916C1812.46 696.196 1810.91 693.472 1809.35 690.748C1803.89 681.231 1798.36 671.785 1792.45 662.541C1791.49 661.032 1790.55 659.516 1789.61 657.996C1786.31 652.656 1782.94 647.365 1779.47 642.132C1779.16 641.651 1778.84 641.171 1778.51 640.675C1776.92 638.268 1775.32 635.864 1773.71 633.466C1772.01 630.905 1770.36 628.325 1768.75 625.709C1768.18 624.793 1768.18 624.793 1767.6 623.858C1764.67 618.341 1764.78 612.334 1764.6 606.226C1764.49 602.509 1764.32 598.794 1764.16 595.079C1764.13 594.258 1764.09 593.437 1764.06 592.591C1763.58 581.23 1762.84 569.883 1762.12 558.535C1762.06 557.679 1762.06 557.679 1762 556.806C1756.98 478.515 1706.49 168.63 1660.92 101.771C1660.6 101.291 1660.27 100.81 1659.93 100.315C1654.81 92.8365 1649.23 85.8604 1643.23 79.0641C1642.85 78.6237 1642.47 78.1833 1642.07 77.7295C1636.76 71.6468 1631.17 66.274 1624.7 61.4032C1624.23 61.0496 1623.76 60.6959 1623.28 60.3315C1619.89 57.7875 1616.43 55.349 1612.91 52.9933C1611.87 52.2973 1611.87 52.2973 1610.82 51.5873C1606.65 49.153 1602.52 48.3598 1597.76 47.8587C1597.1 47.7881 1596.45 47.7176 1595.77 47.6449C1587.56 46.8409 1579.35 46.812 1571.1 46.8436C1570.29 46.8448 1569.48 46.8461 1568.64 46.8474C1557.02 46.8795 1545.66 47.2413 1534.19 49.252Z" fill="#222221"/>
<path d="M1848.79 969.437C1851.79 970.724 1854 970.823 1857.25 970.778C1857.81 970.771 1858.37 970.764 1858.94 970.756C1862.37 970.674 1865.63 970.294 1869 969.674C1889.55 966.123 1911.16 969.255 1928.81 980.607C1941.3 989.506 1950.04 1000.85 1957.64 1013.99C1960.87 1018.19 1965.34 1019.88 1970.19 1021.66C1990.24 1029.41 2004.32 1044.57 2013.03 1064.02C2024.72 1091.79 2026.98 1121.63 2026.99 1151.39C2027 1158.19 2027.07 1164.99 2027.14 1171.79C2027.15 1172.46 2027.15 1173.14 2027.16 1173.84C2027.36 1193.01 2028.46 1212.11 2029.89 1231.22C2029.97 1232.29 2029.97 1232.29 2030.05 1233.38C2031.19 1248.97 2032.85 1264.42 2035.36 1279.86C2035.79 1282.5 2036.2 1285.13 2036.61 1287.77C2038 1296.7 2039.5 1305.59 2041.11 1314.48C2045.93 1341.24 2050.36 1368.02 2054.05 1394.96C2054.3 1396.77 2054.56 1398.58 2054.81 1400.39C2057 1415.97 2058.8 1431.57 2060.43 1447.2C2060.84 1451.18 2061.27 1455.14 2061.71 1459.11C2063.54 1475.43 2064.91 1491.73 2065.9 1508.12C2065.96 1509.01 2066.01 1509.9 2066.07 1510.82C2066.23 1513.37 2066.38 1515.93 2066.52 1518.49C2066.57 1519.24 2066.61 1519.99 2066.66 1520.76C2066.87 1524.56 2066.98 1528.34 2066.97 1532.15C2066.97 1532.97 2066.97 1533.79 2066.96 1534.63C2066.96 1535.25 2066.96 1535.87 2066.96 1536.5C2014.82 1536.53 1962.69 1536.47 1910.56 1536.34C1900.7 1536.32 1890.84 1536.29 1880.99 1536.27C1863.42 1536.23 1845.86 1536.19 1828.3 1536.14C1811.31 1536.1 1794.32 1536.06 1777.33 1536.02C1776.27 1536.02 1775.21 1536.02 1774.12 1536.01C1768.8 1536 1763.49 1535.99 1758.17 1535.98C1714.52 1535.87 1670.88 1535.77 1627.23 1535.66C1627.35 1534.47 1627.48 1533.28 1627.61 1532.09C1627.68 1531.43 1627.75 1530.77 1627.82 1530.09C1628.21 1526.98 1628.88 1523.95 1629.54 1520.89C1634.47 1497.12 1637.38 1472.97 1639.38 1448.8C1639.49 1447.5 1639.6 1446.21 1639.71 1444.91C1641.57 1422.93 1641.69 1400.86 1641.66 1378.82C1641.65 1375.69 1641.66 1372.57 1641.66 1369.44C1641.69 1348.02 1640.9 1326.75 1639.28 1305.39C1639.21 1304.45 1639.14 1303.5 1639.07 1302.53C1637.21 1277.91 1634.28 1253.41 1630.97 1228.93C1630.87 1228.21 1630.78 1227.49 1630.68 1226.75C1630.03 1222.06 1629.29 1217.4 1628.5 1212.74C1627.34 1205.91 1626.26 1199.06 1625.16 1192.21C1624.85 1190.33 1624.55 1188.45 1624.25 1186.57C1619.32 1156.19 1619.32 1156.19 1619.38 1145.18C1619.39 1144.37 1619.39 1143.55 1619.39 1142.71C1619.57 1131.63 1620.83 1120.27 1625.54 1110.12C1625.9 1109.35 1626.25 1108.57 1626.62 1107.77C1630.06 1100.88 1634.76 1095.35 1641.34 1091.25C1645.12 1088.66 1646.77 1084.91 1648.29 1080.68C1648.83 1077.22 1648.87 1073.83 1648.87 1070.33C1648.9 1068.46 1648.95 1066.6 1648.99 1064.73C1649.02 1063.41 1649.02 1063.41 1649.05 1062.06C1649.65 1044.09 1657.65 1028.59 1670.45 1016.2C1682.81 1005.55 1697.51 999.443 1712.99 994.8C1719.56 992.759 1723.4 990.242 1727.84 984.917C1742.2 968.246 1763.11 954.326 1785.46 952.118C1808.31 950.803 1829.19 958.298 1848.79 969.437Z" fill="#FEBE1C"/>
<path d="M996.588 937.508C997.261 937.507 997.933 937.506 998.626 937.506C1020.35 937.535 1041.55 939.967 1062.82 944.446C1063.49 944.581 1064.16 944.716 1064.85 944.856C1101.03 952.218 1137.74 968.192 1166.44 991.541C1167.14 992.073 1167.84 992.604 1168.56 993.151C1192.83 1011.88 1212.8 1038.13 1220.35 1068.07C1220.58 1068.83 1220.81 1069.58 1221.05 1070.35C1224.67 1082.19 1224.86 1094.68 1224.83 1106.96C1224.82 1109.22 1224.84 1111.49 1224.87 1113.75C1224.92 1126.95 1223.19 1139.41 1219.35 1152.07C1219.09 1152.91 1218.84 1153.76 1218.58 1154.64C1210.37 1181.36 1196.71 1205.32 1177.62 1225.78C1176.03 1227.51 1174.52 1229.26 1173.02 1231.07C1164.19 1241.13 1153.65 1249.46 1142.85 1257.3C1142.36 1257.65 1141.86 1258.01 1141.35 1258.38C1114.77 1277.58 1084.81 1290 1053.56 1299.34C1052.8 1299.57 1052.04 1299.8 1051.26 1300.04C1041.38 1302.94 1031.26 1304.56 1021.12 1306.23C1020.48 1306.34 1019.83 1306.44 1019.17 1306.55C1002.19 1309.33 985.581 1310.56 968.365 1310.5C965.307 1310.49 962.249 1310.5 959.191 1310.51C948.928 1310.51 939.022 1310.18 928.881 1308.6C927.368 1308.42 925.854 1308.25 924.34 1308.09C874.153 1302.27 822.625 1279.09 790.261 1239.4C784.817 1232.52 779.907 1225.4 775.565 1217.77C775.014 1216.83 774.464 1215.88 773.897 1214.91C770.523 1208.98 767.77 1202.89 765.298 1196.53C764.908 1195.54 764.908 1195.54 764.51 1194.54C759.857 1182.15 757.101 1169.11 755.084 1156.06C754.977 1155.37 754.869 1154.67 754.758 1153.96C748.592 1113.23 754.617 1071.96 778.935 1037.8C779.484 1037.01 779.484 1037.01 780.045 1036.21C817.788 982.761 883.082 953.924 945.729 941.923C962.63 939.041 979.454 937.521 996.588 937.508Z" fill="#FEDA7E"/>
<path d="M578.954 843.307C581.501 843.316 584.047 843.307 586.594 843.297C588.242 843.298 589.889 843.3 591.537 843.303C592.284 843.3 593.031 843.296 593.8 843.293C598.49 843.327 602.888 843.865 607.487 844.787C609.594 845.204 611.701 845.53 613.827 845.839C655.337 853.417 691.819 880.259 715.757 914.17C725.018 928.275 731.865 943.56 736.711 959.689C736.942 960.449 737.174 961.209 737.412 961.993C741.065 974.839 742.296 987.717 742.2 1001.03C742.187 1003.26 742.2 1005.49 742.217 1007.72C742.233 1020.77 740.96 1033.87 737.185 1046.42C736.977 1047.12 736.769 1047.83 736.555 1048.56C728.944 1073.39 716.086 1095.68 698.382 1114.64C697.613 1115.47 697.613 1115.47 696.827 1116.31C680.706 1133.28 660.998 1145.31 639.358 1153.92C637.704 1154.58 636.059 1155.26 634.416 1155.95C597.874 1170.33 553.744 1167.12 518.103 1152.08C507.525 1147.46 497.731 1142 488.31 1135.35C487.829 1135.01 487.348 1134.68 486.852 1134.33C455.318 1111.9 430.221 1075.11 423.439 1036.68C422.99 1033.91 422.593 1031.14 422.219 1028.36C421.868 1025.25 421.868 1025.25 420.919 1022.66C420.838 1021.46 420.803 1020.26 420.797 1019.06C420.788 1017.97 420.788 1017.97 420.78 1016.86C420.779 1016.08 420.778 1015.29 420.777 1014.49C420.775 1013.68 420.772 1012.86 420.769 1012.03C420.765 1010.3 420.763 1008.58 420.763 1006.85C420.761 1004.25 420.746 1001.64 420.73 999.03C420.706 990.786 420.704 982.794 422.604 974.722C422.731 974.127 422.859 973.532 422.99 972.92C428.37 948.676 437.818 926.408 452.93 906.601C453.481 905.872 454.033 905.142 454.601 904.39C457.795 900.286 461.216 896.404 464.723 892.567C465.323 891.908 465.323 891.908 465.934 891.235C486.747 868.802 514.399 855.03 543.593 847.153C544.215 846.983 544.838 846.813 545.479 846.637C556.637 843.722 567.484 843.259 578.954 843.307Z" fill="#030A2F"/>
<path d="M1414.26 743.869C1415.9 745.4 1417.53 746.946 1419.16 748.494C1419.86 749.138 1420.55 749.782 1421.27 750.446C1450.47 778.179 1465.91 819.275 1467.31 858.888C1468.17 893.777 1457.24 930.047 1436 957.902C1435.34 958.814 1434.67 959.728 1434.01 960.641C1416.58 984.139 1392.39 1001.88 1365.24 1012.57C1364.59 1012.82 1363.94 1013.08 1363.27 1013.35C1347.77 1019.41 1331.39 1023.33 1314.7 1023.5C1313.95 1023.51 1313.21 1023.52 1312.44 1023.53C1265.78 1024.18 1225.24 1008.66 1191.46 976.433C1166.89 952.442 1152.59 921.126 1146.61 887.717C1146.36 886.362 1146.08 885.013 1145.76 883.675C1145.21 880.361 1145.21 877.084 1145.18 873.73C1145.17 872.985 1145.16 872.24 1145.15 871.473C1145.13 869.06 1145.12 866.648 1145.11 864.236C1145.11 863.417 1145.11 862.598 1145.11 861.755C1145.1 849.429 1145.74 837.869 1148.75 825.866C1149 824.746 1149.24 823.626 1149.48 822.505C1155.95 795.266 1171.37 770.555 1190.59 750.51C1191.54 749.508 1192.49 748.495 1193.43 747.479C1208.47 731.73 1228.26 720.668 1248.15 712.332C1249.02 711.967 1249.88 711.603 1250.78 711.228C1256.61 708.96 1262.67 707.654 1268.77 706.303C1271.59 705.759 1271.59 705.759 1273.42 704.763C1324.02 695.745 1376.13 709.067 1414.26 743.869Z" fill="#030A2F"/>
<path d="M425.973 1316.16C427.05 1316.2 428.128 1316.23 429.237 1316.26C451.336 1317.09 474.799 1320.27 495.892 1327.1C496.604 1327.32 497.317 1327.55 498.051 1327.79C518.754 1334.51 537.884 1344.68 553.734 1359.72C555.444 1361.33 557.197 1362.82 559.019 1364.31C578.816 1381.57 595.521 1409.86 602.876 1434.74C603.104 1435.5 603.332 1436.27 603.567 1437.05C611.065 1462.95 609.92 1487.83 597.559 1511.85C589.198 1526.79 577.451 1540.21 561.651 1547.28C560.868 1547.63 560.868 1547.63 560.07 1547.99C551.362 1551.66 542.945 1552.88 533.537 1552.75C532.587 1552.75 531.637 1552.75 530.659 1552.75C525.774 1552.72 521.557 1552.47 516.952 1550.8C517.969 1547.55 519.183 1544.48 520.625 1541.39C528.816 1523.66 537.793 1496.62 532.372 1477.22C530.637 1473.25 528.051 1470.85 524.533 1468.38C519.298 1466.64 513.112 1466.59 508.107 1468.91C503.735 1473.06 501.017 1476.32 500.584 1482.51C500.494 1483.71 500.494 1483.71 500.402 1484.93C500.339 1485.79 500.275 1486.64 500.209 1487.52C498.488 1508.46 493.712 1532.46 476.917 1546.86C460.672 1559.76 441.064 1562.48 420.919 1560.89C415.845 1559.97 411.205 1558.15 406.598 1555.85C407.206 1552.62 408.651 1549.98 410.126 1547.07C412.673 1541.81 414.526 1536.49 416.128 1530.88C416.332 1530.17 416.535 1529.46 416.745 1528.74C417.341 1526.57 417.879 1524.4 418.392 1522.21C418.559 1521.52 418.727 1520.83 418.899 1520.12C420.603 1511.82 420.33 1503.36 420.296 1494.93C420.287 1492.25 420.296 1489.57 420.307 1486.89C420.306 1485.16 420.304 1483.43 420.3 1481.7C420.305 1480.52 420.305 1480.52 420.311 1479.31C420.252 1470.91 419.374 1464.2 413.759 1457.66C409.833 1454.4 405.867 1454.52 400.929 1454.61C396.936 1455.07 394.286 1456.32 391.435 1459.13C390.022 1461.05 389.095 1462.84 388.066 1465.02C387.788 1465.57 387.51 1466.13 387.223 1466.7C387.16 1468.04 387.15 1469.39 387.168 1470.73C387.176 1471.57 387.184 1472.41 387.193 1473.28C387.211 1474.65 387.211 1474.65 387.23 1476.05C387.245 1477.99 387.259 1479.92 387.273 1481.86C387.299 1484.91 387.328 1487.96 387.368 1491.02C387.404 1493.96 387.423 1496.91 387.44 1499.86C387.464 1501.2 387.464 1501.2 387.488 1502.57C387.535 1516.65 383.255 1531.78 373.745 1542.39C363.399 1552.53 349.21 1553.67 335.546 1553.63C321.13 1553.43 308.918 1549.67 298.275 1539.58C287.111 1527.28 280.885 1510.32 278.186 1494.19C277.045 1487.55 275.411 1483.14 270.025 1478.95C265.165 1476.31 260.107 1475.86 254.75 1477.31C249.428 1479.6 247.355 1483.58 244.859 1488.57C244.415 1495.18 245.785 1501 247.438 1507.38C247.831 1508.93 247.831 1508.93 248.232 1510.51C250.223 1518.15 252.66 1525.5 255.57 1532.83C256.652 1535.66 256.652 1535.66 256.652 1537.35C242.197 1537.35 227.741 1537.35 212.848 1537.35C212.848 1519.5 212.848 1519.5 213.479 1511.75C213.552 1510.84 213.625 1509.92 213.7 1508.98C215.072 1493.06 217.563 1477.21 221.272 1461.66C221.522 1460.59 221.522 1460.59 221.777 1459.51C228.79 1430.09 238.89 1401.75 257.495 1377.56C258.01 1376.87 258.526 1376.18 259.058 1375.47C272.025 1358.66 288.903 1346.88 308.038 1338.03C308.688 1337.73 309.338 1337.42 310.008 1337.11C346.857 1320.09 385.797 1314.94 425.973 1316.16Z" fill="#FEBE1C"/>
<path d="M1552.25 145.504C1552.99 145.738 1553.73 145.972 1554.48 146.213C1571.59 152.3 1582.77 167.636 1591.85 182.507C1592.41 183.414 1592.97 184.32 1593.56 185.254C1604.29 203.173 1611.45 223.739 1616.68 243.886C1617.09 245.465 1617.52 247.04 1617.95 248.614C1618.65 251.192 1619.33 253.773 1620.01 256.358C1620.35 257.673 1620.7 258.988 1621.04 260.302C1626.33 280.427 1630.37 300.727 1633.24 321.334C1633.67 324.402 1634.16 327.443 1634.74 330.486C1637.6 345.882 1639.21 361.492 1640.94 377.043C1641.13 378.798 1641.33 380.552 1641.52 382.306C1643.49 400.03 1645.2 417.753 1646.37 435.549C1646.6 439.014 1646.86 442.476 1647.12 445.939C1647.9 456.259 1648.58 466.502 1648.29 476.855C1643.57 473.943 1639.21 470.672 1634.91 467.184C1627.49 461.174 1619.8 455.551 1612.06 449.943C1611.43 449.482 1610.8 449.021 1610.15 448.547C1587.36 431.968 1564.19 415.958 1539.96 401.536C1538.22 400.496 1536.48 399.447 1534.75 398.39C1531.62 396.485 1528.46 394.613 1525.3 392.756C1524.52 392.299 1523.75 391.843 1522.95 391.372C1480.58 366.573 1435.89 345.373 1389.36 329.602C1386.9 328.757 1384.46 327.884 1382.01 327.007C1370.24 322.812 1358.42 319.211 1346.3 316.137C1343.71 315.477 1341.11 314.807 1338.52 314.134C1319.3 309.149 1299.81 304.229 1280.02 302.201C1278.02 301.973 1276.2 301.637 1274.26 301.087C1274.26 299.405 1274.26 299.405 1275.38 298.279C1275.92 297.835 1276.45 297.392 1277 296.935C1280.09 294.321 1283.09 291.632 1286.06 288.893C1292.22 283.235 1298.54 277.782 1304.9 272.352C1308.12 269.604 1311.32 266.841 1314.51 264.066C1319.36 259.852 1324.25 255.707 1329.24 251.669C1331.36 249.937 1333.45 248.175 1335.53 246.398C1340.39 242.248 1345.36 238.272 1350.45 234.409C1353.26 232.281 1356.03 230.113 1358.81 227.942C1383.62 208.549 1409.47 190.558 1436.85 174.939C1437.44 174.597 1438.03 174.254 1438.65 173.902C1461.36 160.857 1485.35 150.385 1510.98 144.663C1511.76 144.472 1512.55 144.281 1513.35 144.085C1525.62 141.515 1540.33 141.47 1552.25 145.504Z" fill="#FFDA7E"/>
<path d="M901.083 331.361C908.713 358.269 914.933 385.329 920.419 412.749C920.995 415.627 921.579 418.504 922.171 421.379C924.253 431.529 926.029 441.71 927.671 451.939C927.799 452.731 927.927 453.523 928.059 454.338C929.902 465.747 931.709 477.153 933.094 488.627C933.198 489.465 933.302 490.303 933.409 491.166C934.927 503.527 936.025 515.875 936.762 528.303C936.822 529.309 936.882 530.314 936.944 531.35C936.994 532.236 937.044 533.122 937.096 534.035C937.262 536.538 937.262 536.538 937.733 538.876C938.177 541.795 938.262 544.559 938.271 547.511C938.274 548.08 938.277 548.648 938.28 549.234C938.288 551.106 938.289 552.979 938.29 554.852C938.293 556.175 938.296 557.498 938.299 558.821C938.304 561.599 938.305 564.378 938.305 567.157C938.305 569.968 938.31 572.779 938.322 575.59C938.386 591.259 938.307 606.759 936.464 622.345C936.35 623.391 936.236 624.437 936.118 625.515C933.807 645.318 929.448 672.689 912.801 685.984C906.965 690.168 900.802 692.334 893.502 691.306C867.011 684.574 848.976 655.528 835.777 633.693C794.433 563.918 770.143 483.229 748.768 391.755C748.626 391.109 748.484 390.463 748.337 389.798C747.941 387.987 747.554 386.174 747.172 384.36C746.959 383.355 746.747 382.35 746.528 381.314C746.067 378.354 746.004 375.561 746.083 372.57C772.773 362.945 772.773 362.945 784.704 359.634C786.803 359.032 788.886 358.388 790.97 357.738C801.868 354.34 812.818 351.417 823.91 348.722C829.444 347.361 834.942 345.854 840.441 344.355C851.212 341.423 862.043 338.957 872.968 336.67C875.307 336.177 877.645 335.682 879.983 335.187C881.418 334.884 882.854 334.581 884.289 334.28C885.274 334.073 885.274 334.073 886.278 333.862C886.913 333.729 887.549 333.596 888.204 333.459C889.536 333.172 890.865 332.873 892.191 332.565C892.857 332.411 893.522 332.257 894.207 332.098C895.097 331.886 895.097 331.886 896.005 331.67C897.714 331.361 897.714 331.361 901.083 331.361Z" fill="#E2A203"/>
<path d="M328.063 561.575C333.373 561.584 338.682 561.579 343.992 561.569C368.281 561.531 392.465 561.899 416.706 563.476C415.15 566.862 412.894 569.124 410.23 571.676C406.828 574.955 403.647 578.337 400.556 581.911C397.919 584.906 395.14 587.767 392.382 590.651C387.942 595.322 383.705 600.038 379.693 605.082C377.827 607.365 375.858 609.516 373.849 611.675C370.257 615.573 366.965 619.628 363.721 623.812C361.266 626.975 358.749 630.066 356.159 633.121C347.333 643.63 339.251 654.73 331.276 665.889C330.394 667.123 329.511 668.355 328.626 669.586C322.756 677.753 317.13 686.041 311.731 694.527C310.567 696.349 309.39 698.163 308.212 699.976C282.195 740.227 261.76 783.585 246.121 828.809C245.911 829.415 245.7 830.021 245.484 830.646C242.971 837.908 240.732 845.176 238.837 852.623C237.966 855.868 236.862 858.921 235.591 862.028C231.989 858.688 229.317 855.061 226.588 850.99C226.124 850.304 225.659 849.617 225.18 848.91C223.591 846.559 222.009 844.202 220.428 841.844C219.835 840.964 219.241 840.083 218.63 839.176C184.027 787.82 150.14 733.869 133.662 673.646C133.46 672.916 133.257 672.186 133.049 671.434C130.394 661.422 129.975 651.513 129.924 641.215C129.916 640.298 129.916 640.298 129.907 639.362C129.83 625.082 132.609 613.122 142.086 602.162C142.497 601.67 142.909 601.179 143.333 600.673C163.896 578.14 200.799 571.943 229.379 567.523C230.067 567.417 230.755 567.31 231.463 567.2C241.518 565.655 251.573 564.384 261.706 563.476C262.498 563.4 263.291 563.323 264.107 563.245C285.376 561.259 306.723 561.536 328.063 561.575Z" fill="#FFDA7E"/>
<path d="M995.454 981.582C1001.23 986.968 1003.68 993.124 1004.09 1000.98C1004.68 1020.3 996.635 1036.66 984.141 1051.06C977.219 1058.34 969.094 1063.75 960.05 1068.07C965.38 1091.92 965.38 1091.92 980.268 1110.12C995.817 1118.85 1014.74 1121.54 1032.13 1117.17C1034.23 1116.54 1036.32 1115.88 1038.39 1115.17C1038.92 1114.99 1039.45 1114.81 1039.99 1114.62C1052.24 1110.34 1062.77 1103.86 1072.93 1095.83C1073.65 1095.26 1074.37 1094.7 1075.11 1094.12C1078.03 1091.8 1080.93 1089.45 1083.79 1087.05C1084.6 1086.38 1085.41 1085.7 1086.25 1085C1087.35 1084.06 1087.35 1084.06 1088.48 1083.11C1093.17 1079.65 1097.58 1079.17 1103.26 1079.85C1108.83 1081.4 1112.25 1084.98 1115.05 1089.94C1116.48 1094.35 1116.84 1099.22 1115.18 1103.59C1111.07 1110.47 1103.38 1117.11 1096.28 1120.82C1092.81 1123.73 1092.6 1127.02 1091.83 1131.36C1091.49 1133.04 1091.14 1134.73 1090.79 1136.41C1090.54 1137.65 1090.54 1137.65 1090.28 1138.92C1085.75 1160.03 1075.53 1179.27 1061.98 1195.9C1061.62 1196.34 1061.27 1196.78 1060.9 1197.24C1057.91 1200.89 1054.64 1203.82 1051.03 1206.84C1050.43 1207.36 1049.84 1207.87 1049.23 1208.41C1036.08 1219.5 1020.47 1226.32 1003.85 1230.38C1002.89 1230.64 1001.93 1230.89 1000.94 1231.15C979.14 1235.97 953.461 1234.56 933.094 1225.34C931.843 1224.8 931.843 1224.8 930.566 1224.24C912.469 1215.89 899.454 1200.6 891.816 1182.45C891.557 1181.54 891.557 1181.54 891.293 1180.61C890.772 1178.81 890.279 1177.31 889.289 1175.72C886.9 1174.74 885.294 1174.29 882.813 1173.93C876.461 1172.68 871.991 1171.12 867.926 1165.81C865.229 1161.31 864.74 1156.45 865.702 1151.33C867.923 1146.35 871.023 1142.95 875.811 1140.4C878.164 1139.61 879.736 1139.39 882.181 1139.35C883.173 1139.31 883.173 1139.31 884.185 1139.28C886.58 1139.54 888.434 1140.06 890.707 1140.81C895.216 1142.22 899.331 1142.46 904.031 1142.4C904.766 1142.4 905.501 1142.41 906.259 1142.42C912.404 1142.4 918.742 1141.87 923.449 1137.61C925.032 1135.2 926.58 1132.79 928.039 1130.31C928.485 1129.59 928.932 1128.88 929.392 1128.14C936.782 1114.63 930.911 1095.38 927.661 1081.27C927.197 1079.01 927.197 1079.01 927.197 1076.48C926.709 1076.5 926.222 1076.51 925.72 1076.52C903.108 1077.05 885.909 1069.61 869.253 1054.03C861.6 1046.08 856.903 1037.01 856.857 1025.92C857.028 1017.64 858.26 1010.83 863.754 1004.34C882.95 985.954 916.195 979.221 941.517 974.722C942.865 974.462 942.865 974.462 944.239 974.197C960.95 971.326 981.78 970.218 995.454 981.582Z" fill="#232222"/>
<path d="M620.567 1536.5C941.367 1536.5 1262.17 1536.5 1592.69 1536.5C1591.44 1542.75 1591.44 1542.75 1590.16 1549.12C1590.16 1554.6 1590.87 1558.09 1593.67 1562.75C1600.13 1569.03 1608.43 1568.17 1616.81 1568.22C1618.44 1568.25 1620.07 1568.27 1621.7 1568.29C1627.16 1568.37 1632.63 1568.41 1638.09 1568.45C1641.27 1568.47 1644.45 1568.5 1647.64 1568.53C1666.72 1568.69 1685.8 1568.8 1704.88 1568.9C1713.06 1568.94 1721.24 1568.99 1729.42 1569.03C1746.18 1569.13 1762.94 1569.22 1779.7 1569.3C1779.7 1569.58 1779.7 1569.86 1779.7 1570.14C1705.91 1570.22 1632.12 1570.29 1540.26 1570.39C1539.04 1570.39 1537.83 1570.39 1536.61 1570.39C1511.06 1570.41 1485.51 1570.44 1459.96 1570.46C1447.1 1570.48 1434.25 1570.49 1421.39 1570.5C1419.45 1570.5 1417.51 1570.51 1415.58 1570.51C1378.02 1570.54 1340.47 1570.58 1302.92 1570.62C1242.59 1570.68 1182.26 1570.74 1121.92 1570.8C1120.1 1570.8 1118.27 1570.8 1116.45 1570.81C1057.55 1570.86 998.658 1570.92 588.556 1570.99C590.512 1568.99 592.543 1567.31 594.768 1565.62C603.753 1558.47 616.836 1547.68 620.567 1536.5Z" fill="#332C2A"/>
<path d="M1924.59 1173.19C1936.16 1183.25 1945.31 1197.61 1946.68 1213.15C1947.14 1223.59 1947.31 1233.17 1940.33 1241.58C1939.32 1242.63 1938.28 1243.67 1937.23 1244.68C1936.8 1245.11 1936.36 1245.54 1935.92 1245.98C1904.15 1275.33 1845.25 1280.22 1804.23 1280.16C1803.35 1280.16 1803.35 1280.16 1802.44 1280.16C1787.22 1280.12 1769.93 1279.74 1756.95 1270.75C1756.43 1270.39 1755.91 1270.03 1755.36 1269.66C1748.39 1264.29 1743.71 1254.96 1742.37 1246.34C1739.97 1226.55 1743.89 1209.14 1755.48 1192.71C1767.78 1177.22 1782.82 1166.19 1800.76 1158.06C1801.28 1157.82 1801.8 1157.58 1802.34 1157.33C1840.33 1140.23 1892.8 1146.1 1924.59 1173.19Z" fill="#FFDA7E"/>
<path d="M1414.26 743.869C1415.9 745.4 1417.53 746.946 1419.16 748.494C1419.86 749.138 1420.55 749.782 1421.27 750.446C1450.47 778.179 1465.91 819.275 1467.31 858.888C1468.17 893.777 1457.24 930.047 1436 957.902C1435.34 958.814 1434.67 959.728 1434.01 960.641C1416.58 984.139 1392.39 1001.88 1365.24 1012.57C1364.59 1012.82 1363.94 1013.08 1363.27 1013.35C1347.77 1019.41 1331.39 1023.33 1314.7 1023.5C1313.95 1023.51 1313.21 1023.52 1312.44 1023.53C1265.78 1024.18 1225.24 1008.66 1191.46 976.433C1166.89 952.442 1152.59 921.126 1146.61 887.717C1146.36 886.362 1146.08 885.013 1145.76 883.675C1145.21 880.361 1145.21 877.084 1145.18 873.73C1145.17 872.985 1145.16 872.24 1145.15 871.473C1145.13 869.06 1145.12 866.648 1145.11 864.236C1145.11 863.417 1145.11 862.598 1145.11 861.755C1145.1 849.429 1145.74 837.869 1148.75 825.866C1149 824.746 1149.24 823.626 1149.48 822.505C1155.95 795.266 1171.37 770.555 1190.59 750.51C1191.54 749.508 1192.49 748.495 1193.43 747.479C1208.47 731.73 1228.26 720.668 1248.15 712.332C1249.02 711.967 1249.88 711.603 1250.78 711.228C1256.61 708.96 1262.67 707.654 1268.77 706.303C1271.59 705.759 1271.59 705.759 1273.42 704.763C1324.02 695.745 1376.13 709.067 1414.26 743.869ZM1202.66 767.837C1199.97 770.813 1197.49 773.885 1195.08 777.088C1194.52 777.799 1193.96 778.51 1193.39 779.243C1183 792.884 1175.63 808.694 1170.65 825.025C1170.4 825.799 1170.15 826.573 1169.89 827.37C1166.37 838.929 1166.12 851.248 1166.17 863.237C1166.18 863.878 1166.18 864.519 1166.18 865.18C1166.21 874.717 1166.69 883.855 1168.96 893.145C1169.2 894.19 1169.43 895.235 1169.68 896.312C1178.4 932.197 1201.46 962.952 1232.76 982.354C1264.08 1001.27 1301.64 1008.07 1337.46 999.619C1372.21 990.601 1402.15 970.54 1422.43 940.778C1423.26 939.553 1424.12 938.339 1424.97 937.126C1437.45 918.704 1445.38 893.535 1445.41 871.348C1445.41 870.659 1445.42 869.969 1445.42 869.259C1445.42 867.81 1445.43 866.36 1445.43 864.911C1445.43 862.732 1445.44 860.553 1445.46 858.374C1445.5 847.075 1444.54 836.448 1441.32 825.55C1440.99 824.427 1440.99 824.427 1440.66 823.28C1438.55 816.288 1435.8 809.732 1432.63 803.159C1432 801.799 1432 801.799 1431.34 800.412C1414.86 766.271 1384.87 742.319 1349.59 729.855C1297.37 711.833 1240.39 729.04 1202.66 767.837Z" fill="#040C2E"/>
<path d="M578.954 843.307C581.501 843.316 584.047 843.307 586.594 843.297C588.242 843.298 589.889 843.3 591.537 843.303C592.284 843.3 593.031 843.296 593.8 843.293C598.49 843.327 602.888 843.865 607.487 844.787C609.594 845.204 611.701 845.53 613.827 845.839C655.337 853.417 691.819 880.259 715.757 914.17C725.018 928.275 731.865 943.56 736.711 959.689C736.942 960.449 737.174 961.209 737.412 961.993C741.065 974.839 742.296 987.717 742.2 1001.03C742.187 1003.26 742.2 1005.49 742.217 1007.72C742.233 1020.77 740.96 1033.87 737.185 1046.42C736.977 1047.12 736.769 1047.83 736.555 1048.56C728.944 1073.39 716.086 1095.68 698.382 1114.64C697.613 1115.47 697.613 1115.47 696.827 1116.31C680.706 1133.28 660.998 1145.31 639.358 1153.92C637.704 1154.58 636.059 1155.26 634.416 1155.95C597.874 1170.33 553.744 1167.12 518.103 1152.08C507.525 1147.46 497.731 1142 488.31 1135.35C487.829 1135.01 487.348 1134.68 486.852 1134.33C455.318 1111.9 430.221 1075.11 423.439 1036.68C422.99 1033.91 422.593 1031.14 422.219 1028.36C421.868 1025.25 421.868 1025.25 420.919 1022.66C420.838 1021.46 420.803 1020.26 420.797 1019.06C420.788 1017.97 420.788 1017.97 420.78 1016.86C420.779 1016.08 420.778 1015.29 420.777 1014.49C420.775 1013.68 420.772 1012.86 420.769 1012.03C420.765 1010.3 420.763 1008.58 420.763 1006.85C420.761 1004.25 420.746 1001.64 420.73 999.03C420.706 990.786 420.704 982.794 422.604 974.722C422.731 974.127 422.859 973.532 422.99 972.92C428.37 948.676 437.818 926.408 452.93 906.601C453.481 905.872 454.033 905.142 454.601 904.39C457.795 900.286 461.216 896.404 464.723 892.567C465.323 891.908 465.323 891.908 465.934 891.235C486.747 868.802 514.399 855.03 543.593 847.153C544.215 846.983 544.838 846.813 545.479 846.637C556.637 843.722 567.484 843.259 578.954 843.307ZM541.276 869.387C540.234 869.708 540.234 869.708 539.17 870.036C525.065 874.516 512.198 881.293 500.104 889.781C499.266 890.365 498.427 890.948 497.564 891.549C472.92 909.537 456.046 934.906 447.033 963.789C446.718 964.782 446.403 965.775 446.079 966.798C442.407 978.908 441.633 990.739 441.663 1003.32C441.663 1004.04 441.664 1004.76 441.664 1005.5C441.697 1016.83 442.289 1027.67 445.348 1038.64C445.529 1039.29 445.709 1039.94 445.895 1040.61C452.266 1062.76 463.68 1085.04 480.729 1100.87C484.941 1105.08 484.941 1105.08 486.195 1106.47C501.719 1123.18 524.885 1133.36 546.436 1139.56C547.928 1140 547.928 1140 549.45 1140.46C583.163 1149.6 620.974 1142.17 650.971 1125.5C664.418 1117.78 677.203 1107.76 687.115 1095.82C687.704 1095.14 688.293 1094.46 688.899 1093.76C702.804 1077.35 714.196 1056.5 718.284 1035.27C718.397 1034.75 718.51 1034.22 718.626 1033.69C726.389 996.888 718.999 958.389 698.741 926.896C694.164 919.999 689.008 913.77 683.247 907.832C682.067 906.608 680.914 905.363 679.761 904.114C665.121 888.552 646.361 878.477 626.463 871.279C625.863 871.062 625.264 870.846 624.646 870.622C611.194 865.864 597.698 864.113 583.474 864.223C581.395 864.236 579.318 864.223 577.239 864.207C564.981 864.19 552.997 865.69 541.276 869.387Z" fill="#040C2E"/>
<path d="M694.696 391.914C696.825 394.47 697.9 396.805 698.921 399.959C699.225 400.894 699.529 401.829 699.842 402.793C700.159 403.799 700.476 404.806 700.803 405.843C701.136 406.888 701.468 407.933 701.811 409.01C705.192 419.741 708.039 430.603 710.701 441.533C710.858 442.168 711.014 442.803 711.175 443.457C713.866 454.395 716.294 465.356 718.336 476.434C718.479 477.212 718.623 477.99 718.771 478.791C723.325 503.817 726.071 529.608 725.022 555.067C725.003 555.687 724.985 556.307 724.965 556.946C724.382 575.709 721.983 597.819 708.648 612.202C704.14 616.368 699.591 617.815 693.518 617.586C679.444 615.751 668.083 603.07 659.735 592.464C641.19 568.133 628.486 539.456 618.143 510.862C617.915 510.231 617.686 509.6 617.451 508.949C614.327 500.281 611.455 491.555 608.772 482.741C608.508 481.881 608.245 481.021 607.973 480.135C605.034 470.47 602.348 460.762 599.979 450.941C599.761 450.038 599.543 449.135 599.318 448.205C597.821 441.865 597.821 441.865 597.821 439.01C629.559 421.997 661.551 406.032 694.696 391.914Z" fill="#E2A203"/>
<path d="M1845.41 758.586C1887.52 847.643 1887.52 847.643 1887.52 867.074C1873.06 872.089 1858.59 877.082 1844.12 882.05C1842.28 882.68 1840.44 883.31 1838.61 883.941C1730.75 920.991 1730.75 920.991 1689.56 921.265C1688.21 921.278 1688.21 921.278 1686.84 921.291C1680.57 921.221 1675.17 920.3 1669.71 917.113C1667.6 913.438 1667.82 909.868 1668.5 905.76C1669.74 902.346 1671.52 899.502 1673.56 896.509C1674.12 895.677 1674.69 894.846 1675.27 893.989C1680.37 886.932 1686.52 880.827 1692.67 874.696C1693.09 874.278 1693.51 873.861 1693.94 873.43C1698.79 868.611 1703.72 863.925 1708.94 859.505C1709.38 859.12 1709.83 858.734 1710.29 858.337C1715.84 853.56 1721.49 848.956 1727.28 844.471C1730.61 841.875 1733.85 839.186 1737.05 836.43C1742.06 832.137 1747.3 828.188 1752.6 824.266C1755.56 822.081 1758.48 819.856 1761.39 817.616C1768.71 811.978 1776.17 806.538 1783.69 801.161C1786.86 798.892 1790.02 796.609 1793.18 794.328C1794.45 793.414 1795.72 792.499 1796.98 791.585C1799.46 789.8 1801.93 788.011 1804.4 786.217C1813.85 779.36 1823.42 772.672 1833.04 766.044C1834.59 764.961 1836.14 763.867 1837.69 762.764C1838.45 762.224 1839.2 761.685 1839.98 761.129C1841 760.396 1841 760.396 1842.04 759.648C1843.72 758.586 1843.72 758.586 1845.41 758.586Z" fill="#E2A203"/>
<path d="M1076.3 311.178C1078.94 333.709 1081.15 356.264 1083.08 378.865C1083.25 380.809 1083.42 382.753 1083.58 384.697C1085.1 402.338 1086.42 419.938 1086.88 437.643C1086.9 438.295 1086.92 438.947 1086.94 439.619C1088.75 509.34 1088.75 509.34 1077.51 524.935C1075.52 526.94 1073.95 527.995 1071.14 528.437C1064.01 528.164 1058.21 523.259 1053.49 518.283C1026.29 486.328 1008.86 444.291 992.063 406.211C991.589 405.14 991.589 405.14 991.106 404.047C981.685 382.736 972.527 361.33 963.778 339.734C961.98 335.299 960.125 330.89 958.237 326.492C957.525 324.634 957.525 324.634 957.525 322.952C956.691 322.675 955.857 322.397 954.998 322.111C971.284 319.478 987.592 317.614 1004 315.972C1007.82 315.588 1011.62 315.177 1015.43 314.744C1023.17 313.864 1030.91 313.121 1038.67 312.497C1039.99 312.389 1041.31 312.278 1042.62 312.164C1053.86 311.186 1065.02 311.042 1076.3 311.178Z" fill="#E2A203"/>
<path d="M579.061 864.287C581.17 864.289 583.278 864.27 585.386 864.248C598.968 864.192 611.553 866.12 624.409 870.597C625.382 870.93 626.354 871.263 627.355 871.606C640.29 876.127 651.568 881.804 662.686 889.782C664.016 890.709 664.016 890.709 665.374 891.654C678.191 900.975 689.432 912.673 698.066 925.945C698.399 926.452 698.731 926.96 699.074 927.483C713.992 950.559 720.982 975.535 721.074 1002.95C721.077 1003.6 721.079 1004.24 721.082 1004.91C721.114 1042.48 706.274 1076.32 680.376 1103.39C678.205 1105.45 675.941 1107.37 673.637 1109.28C672.954 1109.87 672.271 1110.46 671.567 1111.06C648.479 1130.57 618.14 1143.26 587.713 1143.76C587.17 1143.78 586.627 1143.79 586.068 1143.81C576.937 1144.07 568.105 1143.39 559.071 1142.08C558.232 1141.96 557.392 1141.84 556.528 1141.71C525.912 1136.7 495.522 1119.66 475.674 1095.83C474.835 1094.88 474.835 1094.88 473.979 1093.91C461.641 1079.58 453.454 1063.04 447.542 1045.22C447.123 1043.95 446.687 1042.7 446.246 1041.44C442.425 1029.94 441.556 1017.84 441.649 1005.81C441.662 1003.74 441.649 1001.66 441.633 999.587C441.616 987.35 443.119 975.385 446.822 963.684C447.037 962.99 447.251 962.297 447.472 961.582C451.96 947.5 458.748 934.655 467.25 922.581C467.834 921.744 468.419 920.907 469.021 920.045C487.039 895.442 512.45 878.596 541.381 869.598C542.376 869.284 543.37 868.969 544.395 868.645C555.899 865.169 567.102 864.255 579.061 864.287ZM543.066 890.623C542.022 890.986 540.979 891.349 539.903 891.723C518.847 899.592 500.194 913.052 486.625 930.991C486.127 931.643 485.628 932.296 485.115 932.968C477.088 943.934 470.672 956.24 466.984 969.325C466.6 970.679 466.19 972.027 465.753 973.365C459.325 993.192 460.497 1016.33 466.408 1036.11C466.629 1036.86 466.85 1037.6 467.077 1038.36C476.535 1069.17 497.376 1093.99 525.66 1109.39C552.457 1123.56 585.237 1127.51 614.45 1118.68C638.887 1110.91 660.646 1097.14 676.164 1076.48C676.786 1075.65 677.408 1074.83 678.049 1073.97C688.547 1059.42 695.237 1043.57 698.909 1026.02C699.122 1025.03 699.122 1025.03 699.34 1024.01C700.479 1018.34 700.86 1012.93 700.804 1007.15C700.795 1005.84 700.795 1005.84 700.785 1004.51C700.598 990.881 699.195 978.369 694.697 965.471C694.375 964.523 694.054 963.574 693.723 962.597C688.583 948.365 680.591 935.428 670.257 924.381C668.904 922.926 667.652 921.458 666.424 919.9C653.827 905.389 635.069 895.969 617.196 889.782C615.717 889.262 615.717 889.262 614.208 888.731C592.064 881.673 564.822 882.885 543.066 890.623Z" fill="#FCED00"/>
<path d="M1348.92 729.678C1349.8 729.975 1350.68 730.273 1351.59 730.58C1386.02 742.48 1415.63 767.874 1431.79 800.672C1433.61 804.534 1435.25 808.456 1436.85 812.41C1437.16 813.164 1437.48 813.917 1437.81 814.693C1442.65 826.874 1445.39 840.411 1445.41 853.497C1445.41 854.19 1445.42 854.882 1445.42 855.596C1445.42 857.054 1445.43 858.512 1445.43 859.97C1445.43 862.166 1445.44 864.362 1445.46 866.557C1445.5 877.749 1444.29 888.117 1441.27 898.927C1440.94 900.121 1440.94 900.121 1440.6 901.339C1430.39 937.167 1406.44 966.626 1374.24 985.129C1369.37 987.821 1364.52 990.312 1359.34 992.383C1358.79 992.607 1358.23 992.831 1357.66 993.062C1329.58 1004.16 1298.38 1006.39 1269.21 998.27C1268.44 998.062 1267.68 997.855 1266.89 997.642C1232.42 988.019 1201.91 963.654 1184.34 932.62C1181.16 926.884 1178.28 921.041 1175.7 915.011C1175.33 914.152 1174.96 913.292 1174.58 912.406C1172.51 907.352 1170.92 902.284 1169.65 896.983C1169.45 896.172 1169.45 896.172 1169.25 895.344C1166.99 885.366 1166.16 875.524 1166.22 865.329C1166.23 863.458 1166.22 861.588 1166.21 859.718C1166.19 848.615 1166.78 837.29 1170.02 826.602C1170.2 825.975 1170.38 825.348 1170.57 824.703C1175.73 807.608 1183.9 791.065 1195.08 777.089C1195.46 776.607 1195.84 776.125 1196.24 775.629C1218.51 747.946 1251.42 728.099 1287.04 724.005C1307.76 722.012 1329.11 722.979 1348.92 729.678ZM1273.21 747.811C1272.61 747.991 1272.01 748.171 1271.39 748.356C1240.25 758.011 1214.87 779.797 1199.55 808.363C1192.09 822.665 1187.26 838.148 1186.71 854.352C1186.67 855.638 1186.62 856.923 1186.56 858.207C1185.71 877.688 1189.32 895.678 1197.61 913.329C1197.89 913.949 1198.18 914.568 1198.47 915.206C1211.81 943.519 1236.61 964.77 1265.84 975.563C1268.23 976.381 1270.63 977.143 1273.05 977.876C1273.6 978.043 1274.14 978.21 1274.71 978.382C1284.56 981.212 1294.5 981.77 1304.69 981.713C1305.31 981.71 1305.92 981.708 1306.55 981.705C1337.94 981.523 1366.07 970.429 1388.83 948.651C1389.51 948.024 1390.19 947.398 1390.89 946.752C1405.72 932.665 1415.07 914.683 1420.8 895.268C1421.33 893.477 1421.9 891.695 1422.52 889.934C1425.31 881.124 1425.35 871.711 1425.31 862.554C1425.31 861.983 1425.31 861.413 1425.31 860.824C1425.27 852.26 1424.81 844.26 1422.52 835.958C1422.23 834.81 1421.95 833.663 1421.66 832.515C1413.58 801.894 1393.35 775.951 1366.22 759.756C1347.86 749.186 1327.54 743.949 1306.4 744.071C1304.54 744.08 1302.67 744.071 1300.8 744.06C1291.31 744.05 1282.32 745.078 1273.21 747.811Z" fill="#FCED00"/>
<path d="M995.455 981.582C1001.23 986.968 1003.68 993.124 1004.1 1000.98C1004.68 1020.3 996.636 1036.66 984.142 1051.06C974.68 1061.01 963.498 1067.35 950.364 1071.07C949.019 1071.45 949.019 1071.45 947.646 1071.84C926.288 1077.8 908.249 1079.02 888.418 1068.18C875.269 1060.67 863.652 1050.88 858.019 1036.52C855.683 1027.29 856.221 1016.49 860.872 1008.13C874.999 987.327 912.609 980.568 935.464 975.826C937.48 975.449 939.499 975.081 941.518 974.722C942.865 974.462 942.865 974.462 944.24 974.197C960.951 971.326 981.781 970.218 995.455 981.582Z" fill="#020A2F"/>
<path d="M221.272 1181.61C247.199 1181.47 272.915 1181.96 298.772 1184.02C300.071 1184.13 300.071 1184.13 301.397 1184.23C360.854 1188.97 360.854 1188.97 371.218 1200.11C375.368 1206.07 375.977 1211.5 375.43 1218.61C372.45 1228.52 364.572 1233 355.943 1237.71C337.794 1246.81 316.359 1252.07 296.219 1254.36C293.304 1254.7 290.416 1255.16 287.521 1255.64C278.967 1257.06 270.404 1258.09 261.775 1258.92C259.577 1259.14 257.381 1259.36 255.184 1259.59C248.078 1260.3 241.06 1260.92 233.907 1260.66C230.406 1242.96 227.022 1225.25 224.273 1207.41C224.115 1206.4 224.115 1206.4 223.953 1205.37C222.725 1197.45 221.736 1189.61 221.272 1181.61Z" fill="#E2A303"/>
<path d="M1864.28 1008.04C1876.93 1014.78 1884 1026.55 1888.45 1039.69C1892.22 1053.74 1890.5 1067.59 1883.47 1080.32C1879.12 1086.89 1873.39 1091.51 1865.62 1093.3C1855.6 1094.57 1848.59 1092.55 1840.59 1086.53C1829.88 1077.46 1823.03 1064.44 1821.82 1050.41C1821.1 1036.72 1823.46 1024.29 1832.55 1013.57C1841.3 1005.07 1853.06 1003.33 1864.28 1008.04Z" fill="#FFDA7E"/>
<path d="M1753.18 1036.51C1763.58 1042.91 1770.24 1051.65 1774.65 1063.02C1774.99 1063.91 1775.34 1064.79 1775.7 1065.71C1779.04 1078.21 1778.84 1094.16 1772.57 1105.65C1771.38 1107.5 1770.11 1109.23 1768.75 1110.96C1768.23 1111.72 1767.71 1112.49 1767.17 1113.27C1763.02 1117.66 1757.43 1120.71 1751.42 1121.4C1741.09 1121.64 1734.39 1119.22 1726.37 1112.43C1719.56 1105.91 1715.53 1098.74 1712.31 1089.94C1712.01 1089.14 1711.71 1088.35 1711.4 1087.53C1709.8 1082.11 1709.63 1076.63 1709.62 1071.01C1709.61 1070.42 1709.6 1069.82 1709.59 1069.21C1709.56 1058.63 1714.08 1048.27 1721.26 1040.52C1730.19 1032.31 1742.36 1030.76 1753.18 1036.51Z" fill="#FFDA7E"/>
<path d="M1700.26 1128.9C1712.33 1137.67 1720.47 1149.01 1723.71 1163.71C1725.56 1176.58 1724.23 1190.91 1716.52 1201.79C1716.16 1202.31 1715.8 1202.83 1715.43 1203.37C1711.37 1208.64 1705.47 1212.62 1698.83 1213.56C1689.99 1214.46 1683.04 1212.73 1675.94 1207.31C1665.57 1198.48 1657.63 1186.4 1656.53 1172.53C1655.97 1157.95 1656.79 1146.42 1665.98 1134.51C1674.45 1125.5 1689.32 1122.38 1700.26 1128.9Z" fill="#FFDA7E"/>
<path d="M1959.17 1063.19C1971.12 1070.48 1979.02 1082.28 1982.51 1095.74C1985.07 1108.99 1984.19 1122.55 1977.66 1134.51C1972.81 1141.02 1967.86 1145.71 1959.97 1147.97C1950.91 1148.9 1943.03 1147.59 1935.44 1142.45C1924.49 1133.51 1918.09 1120.59 1916.17 1106.76C1914.96 1093.18 1916.64 1080.55 1925.25 1069.51C1934.26 1059.66 1947.11 1057.49 1959.17 1063.19Z" fill="#FFDA7E"/>
<path d="M961.736 1138.71C962.603 1139.15 963.471 1139.59 964.365 1140.04C972.838 1144.22 981.18 1147.42 990.377 1149.65C991.247 1149.87 992.117 1150.09 993.014 1150.31C1000.18 1152 1006.93 1152.57 1014.28 1152.49C1015.88 1152.48 1015.88 1152.48 1017.51 1152.47C1027.76 1152.31 1037.11 1150.96 1046.8 1147.51C1048.79 1147.06 1049.94 1147.42 1051.87 1147.97C1048.12 1156.46 1044.37 1164.31 1038.39 1171.51C1037.5 1172.6 1037.5 1172.6 1036.58 1173.71C1024.19 1188.06 1006.28 1197.64 987.201 1199.17C969.098 1200.14 950.201 1200.27 935.628 1187.87C931.186 1183.72 927.764 1179.71 925.513 1174.04C926.154 1173.79 926.796 1173.55 927.457 1173.29C944.757 1166.44 953.264 1154.61 961.736 1138.71Z" fill="#F6898C"/>
<path d="M1356.27 784.148C1363.66 788.608 1367.61 795.107 1370.3 803.159C1371.01 812.876 1369.97 820.764 1363.57 828.356C1357.5 834.493 1350.3 837.667 1341.71 838.008C1334.41 837.804 1327.67 835.026 1322.28 830.071C1315.75 823.051 1313.2 815.546 1313.54 806.011C1314.46 797.705 1318.57 791.796 1324.81 786.339C1334.61 780.173 1345.74 779.106 1356.27 784.148Z" fill="#FBFBFB"/>
<path d="M641.827 925.76C642.561 926.267 642.561 926.267 643.311 926.785C644.145 927.34 644.979 927.895 645.838 928.467C645.838 929.022 645.838 929.577 645.838 930.149C646.394 930.149 646.95 930.149 647.523 930.149C653.002 937.403 655.122 944.697 654.262 953.697C652.83 961.624 648.774 967.763 642.485 972.77C635.243 977.497 627.345 978.18 618.881 977.245C616.087 976.467 613.772 975.38 611.3 973.881C609.971 973.152 609.971 973.152 608.615 972.409C605.474 969.901 603.349 967.159 601.191 963.789C600.839 963.245 600.487 962.702 600.125 962.143C596.581 955.628 596.766 947.322 598.407 940.234C601.243 932.454 606.58 927.272 613.827 923.421C623.602 919.339 633.015 919.908 641.827 925.76Z" fill="#FBFBFC"/>
</g>
<defs>
<clipPath id="clip0_1861_3114">
<rect width="2219.71" height="1582.75" fill="white" transform="translate(8.14587 12.626)"/>
</clipPath>
</defs>
</svg>
