<svg width="22" height="22" viewBox="0 0 22 22" fill="none" xmlns="http://www.w3.org/2000/svg">
<path d="M18.7643 5.16084C19.1218 5.51834 19.1218 6.08667 18.7643 6.44417L8.36926 16.8392C8.28537 16.9241 8.18545 16.9915 8.0753 17.0375C7.96516 17.0835 7.84697 17.1072 7.7276 17.1072C7.60823 17.1072 7.49004 17.0835 7.37989 17.0375C7.26975 16.9915 7.16983 16.9241 7.08593 16.8392L3.23593 12.9892C3.15101 12.9053 3.08359 12.8054 3.03757 12.6952C2.99156 12.5851 2.96786 12.4669 2.96786 12.3475C2.96786 12.2281 2.99156 12.1099 3.03757 11.9998C3.08359 11.8896 3.15101 11.7897 3.23593 11.7058C3.31983 11.6209 3.41974 11.5535 3.52989 11.5075C3.64004 11.4615 3.75822 11.4378 3.8776 11.4378C3.99697 11.4378 4.11516 11.4615 4.2253 11.5075C4.33545 11.5535 4.43537 11.6209 4.51926 11.7058L7.7276 14.9142L17.4809 5.16084C17.5648 5.07592 17.6647 5.00849 17.7749 4.96248C17.885 4.91646 18.0032 4.89277 18.1226 4.89277C18.242 4.89277 18.3602 4.91646 18.4703 4.96248C18.5805 5.00849 18.6804 5.07592 18.7643 5.16084ZM16.8301 3.2175L7.7276 12.32L5.1701 9.7625C4.4551 9.0475 3.29093 9.0475 2.57593 9.7625L1.2926 11.0458C0.577598 11.7608 0.577598 12.925 1.2926 13.64L6.42593 18.7733C7.14093 19.4883 8.3051 19.4883 9.0201 18.7733L20.7076 7.095C21.4226 6.38 21.4226 5.21583 20.7076 4.50083L19.4243 3.2175C18.7001 2.5025 17.5451 2.5025 16.8301 3.2175Z" fill="#59A7F2"/>
</svg>
