<svg width="117" height="100" viewBox="0 0 117 100" fill="none" xmlns="http://www.w3.org/2000/svg">
<path d="M0 18.72C0 8.38122 8.38123 0 18.72 0H98.28C108.619 0 117 8.38123 117 18.72V98.28H0V18.72Z" fill="#EFF5FB"/>
<g clip-path="url(#clip0_2114_2176)">
<path d="M84.2761 16.6521C84.3213 16.656 84.3665 16.6598 84.4131 16.6637C85.6897 16.8076 87.0299 18.2149 87.8061 19.1428C87.8734 19.2282 87.9399 19.3142 88.0059 19.4005C88.0278 19.4286 88.0498 19.4567 88.0724 19.4857C90.5516 22.6723 91.6649 26.8459 94.3053 46.1638C94.3097 46.2511 94.3097 46.2511 94.3142 46.3401C94.3278 46.6121 94.3406 46.8841 94.3521 47.1561C94.3565 47.2516 94.361 47.3471 94.3655 47.4425C94.367 47.4851 94.3685 47.5277 94.3701 47.5715C94.3876 47.9266 94.4908 48.1622 94.6858 48.4617C94.7152 48.5071 94.7445 48.5524 94.7747 48.5991C94.8058 48.6467 94.8368 48.6942 94.8688 48.7431C94.9013 48.7932 94.9337 48.8434 94.9661 48.8935C95.0299 48.9923 95.0938 49.091 95.1578 49.1897C96.0154 50.5158 96.8175 51.8828 97.5384 53.2876C97.5914 53.39 97.6454 53.4917 97.7002 53.5931C99.3795 56.7076 100.664 60.0686 101.532 63.4962C101.544 63.545 101.544 63.545 101.557 63.5947C101.656 63.9827 101.74 64.3703 101.808 64.7647C101.822 64.8415 101.836 64.9182 101.85 64.9949C101.877 65.1406 101.9 65.2863 101.921 65.4329C101.975 65.7592 102.032 65.9845 102.305 66.1903C102.385 66.2441 102.467 66.2944 102.55 66.343C103.068 66.6479 103.435 67.1489 103.794 67.6189C103.812 67.6422 103.83 67.6655 103.848 67.6896C103.902 67.7628 103.902 67.7628 103.952 67.8436C104.094 68.0661 104.24 68.15 104.482 68.2476C105.918 68.8775 106.889 70.1485 107.452 71.5804C107.517 71.7544 107.575 71.93 107.632 72.107C107.643 72.1431 107.655 72.1792 107.667 72.2163C107.825 72.719 107.933 73.228 108.02 73.7471C108.029 73.7977 108.038 73.8483 108.047 73.9004C108.217 74.9756 108.22 76.0697 108.227 77.1555C108.244 79.7824 108.481 82.352 108.942 84.9383C109.438 87.7234 109.835 90.5239 110.104 93.3403C110.109 93.3844 110.113 93.4286 110.117 93.474C110.223 94.5648 110.277 95.6597 110.34 96.7536C110.385 96.7533 110.385 96.7533 110.431 96.7531C111.165 96.7492 111.898 96.7462 112.632 96.7444C112.986 96.7435 113.341 96.7422 113.696 96.7402C114.005 96.7384 114.314 96.7373 114.624 96.7369C114.787 96.7367 114.951 96.7361 115.115 96.7348C115.297 96.7334 115.48 96.7334 115.663 96.7334C115.717 96.7328 115.771 96.7322 115.827 96.7315C116.2 96.7333 116.429 96.7906 116.723 97.0306C116.954 97.3122 117.032 97.543 117.017 97.9106C116.978 98.2142 116.837 98.4043 116.609 98.601C116.267 98.8086 115.954 98.8116 115.564 98.8094C115.503 98.8095 115.442 98.8097 115.382 98.81C115.215 98.8105 115.048 98.8102 114.882 98.8098C114.7 98.8094 114.518 98.8099 114.336 98.8102C114.016 98.8107 113.695 98.8107 113.375 98.8104C112.896 98.8099 112.416 98.8102 111.937 98.8106C111.12 98.8113 110.303 98.8114 109.486 98.8112C108.658 98.811 107.829 98.8111 107.001 98.8115C106.923 98.8115 106.923 98.8115 106.843 98.8116C106.576 98.8117 106.31 98.8118 106.043 98.812C105.497 98.8123 104.951 98.8125 104.404 98.8128C104.349 98.8128 104.294 98.8128 104.237 98.8129C103.028 98.8134 101.818 98.8135 100.608 98.8136C98.5773 98.8138 96.5465 98.8144 94.5157 98.8156C94.4712 98.8156 94.4712 98.8156 94.4258 98.8156C93.7021 98.816 92.9784 98.8165 92.2547 98.8169C91.1199 98.8176 89.9852 98.8183 88.8504 98.8189C88.7264 98.819 88.6024 98.8191 88.4784 98.8192C85.5554 98.8209 82.6323 98.8222 79.7093 98.8235C79.5476 98.8235 79.386 98.8236 79.2243 98.8237C76.2365 98.8249 73.2487 98.826 70.2609 98.8267C70.1635 98.8267 70.0662 98.8267 69.9688 98.8267C69.2882 98.8269 68.6076 98.827 67.9269 98.8272C67.8299 98.8272 67.7328 98.8272 67.6358 98.8272C67.5711 98.8272 67.5064 98.8273 67.4417 98.8273C67.4097 98.8273 67.3777 98.8273 67.3448 98.8273C67.1832 98.8273 67.0216 98.8274 66.86 98.8274C63.8756 98.828 60.8912 98.8289 57.9067 98.8307C57.8448 98.8308 57.7828 98.8308 57.7208 98.8308C56.4647 98.8316 55.2086 98.8324 53.9525 98.8334C53.3498 98.8338 52.7472 98.8342 52.1445 98.8347C52.0846 98.8347 52.0246 98.8347 51.9647 98.8348C50.0233 98.8361 48.0819 98.8364 46.1405 98.8362C44.2157 98.8359 42.2908 98.8365 40.3659 98.8385C40.1 98.8387 39.8341 98.839 39.5682 98.8392C39.5161 98.8393 39.464 98.8393 39.4103 98.8394C38.5844 98.8401 37.7585 98.8399 36.9326 98.8391C36.1208 98.8385 35.3091 98.8389 34.4973 98.8405C34.0212 98.8414 33.5451 98.8414 33.0689 98.8402C32.7528 98.8395 32.4366 98.8399 32.1205 98.8412C31.9412 98.8419 31.762 98.8421 31.5827 98.841C30.6013 98.8307 30.6013 98.8307 29.7057 99.1916C28.4721 99.698 27.1361 99.6055 25.8729 99.2857C25.4937 99.1811 25.4937 99.1811 25.1308 99.3003C25.0917 99.3247 25.0917 99.3247 25.0518 99.3496C23.8935 100.016 22.3826 100.174 21.0917 99.8566C20.5849 99.7113 20.0649 99.4835 19.6264 99.1916C19.4449 99.2097 19.2806 99.279 19.1102 99.3412C17.8353 99.7778 16.3351 99.6969 15.118 99.1168C14.8158 98.9549 14.8158 98.9549 14.7421 98.8813C14.6715 98.8772 14.6007 98.8761 14.5299 98.8763C14.4837 98.8763 14.4374 98.8762 14.3898 98.8762C14.3384 98.8765 14.287 98.8767 14.2341 98.8769C14.1529 98.877 14.1529 98.877 14.0701 98.8771C13.9192 98.8773 13.7682 98.8777 13.6173 98.8781C13.4548 98.8786 13.2923 98.8788 13.1298 98.879C12.8479 98.8795 12.566 98.8801 12.2841 98.8807C11.8384 98.8818 11.3927 98.8823 10.9469 98.8828C10.7945 98.883 10.6421 98.8832 10.4897 98.8834C10.4516 98.8834 10.4135 98.8835 10.3742 98.8835C9.94012 98.884 9.50605 98.8846 9.07197 98.8853C9.03227 98.8854 8.99258 98.8854 8.95168 98.8855C8.3091 98.8865 7.66653 98.8878 7.02395 98.8892C6.36434 98.8906 5.70474 98.8916 5.04513 98.892C4.63827 98.8924 4.23142 98.8931 3.82456 98.8944C3.54547 98.8952 3.26637 98.8956 2.98728 98.8956C2.82634 98.8956 2.66542 98.8958 2.50448 98.8966C2.32974 98.8975 2.155 98.8973 1.98026 98.897C1.92975 98.8974 1.87924 98.8979 1.82721 98.8983C1.41058 98.8962 1.04024 98.8464 0.728884 98.551C0.503884 98.3032 0.469757 98.0506 0.474091 97.7265C0.503886 97.4654 0.610007 97.2508 0.798609 97.0673C1.0533 96.8677 1.23483 96.8367 1.55852 96.8369C1.59022 96.8369 1.62192 96.8368 1.65458 96.8368C1.7608 96.8367 1.86701 96.837 1.97323 96.8372C2.04937 96.8372 2.12552 96.8372 2.20166 96.8372C2.40843 96.8372 2.61519 96.8374 2.82196 96.8377C3.03802 96.838 3.25408 96.838 3.47014 96.8381C3.87932 96.8382 4.28849 96.8386 4.69766 96.839C5.16348 96.8395 5.62929 96.8398 6.09511 96.84C7.05335 96.8405 8.0116 96.8412 8.96984 96.8422C8.97166 96.7905 8.97166 96.7905 8.97351 96.7378C8.97908 96.5802 8.98476 96.4227 8.99044 96.2652C8.99234 96.2109 8.99425 96.1567 8.99621 96.1008C9.0092 95.7431 9.02825 95.3888 9.06975 95.0331C9.07546 94.9826 9.08117 94.9322 9.08705 94.8802C9.3546 92.6191 9.87396 89.9921 11.2337 88.0984C11.2548 88.0688 11.2758 88.0392 11.2976 88.0087C11.3371 87.9543 11.3779 87.9007 11.42 87.8482C11.5267 87.7036 11.546 87.63 11.528 87.4503C11.5058 87.374 11.4816 87.2983 11.4564 87.223C11.4391 87.1695 11.4219 87.116 11.4041 87.0609C11.3515 86.8999 11.2971 86.7396 11.2423 86.5794C10.2259 83.6017 9.5986 80.516 9.32506 77.3821C9.32028 77.3276 9.32028 77.3276 9.31541 77.2721C9.1855 75.7741 9.15831 74.2749 9.14745 72.7719C9.14716 72.7319 9.14687 72.6918 9.14657 72.6506C9.14395 72.2315 9.14989 71.8137 9.16965 71.395C9.17622 71.2551 9.18223 71.1155 9.18564 70.9756C9.19185 70.8214 9.19185 70.8214 9.21168 70.6467C9.26595 70.0558 9.00946 69.7089 8.66735 69.2478C8.61784 69.1787 8.56849 69.1095 8.51932 69.0402C8.44597 68.9369 8.37249 68.8338 8.29831 68.7312C8.06939 68.4142 7.85664 68.088 7.64685 67.7581C7.56866 67.6353 7.48956 67.5131 7.41056 67.3908C7.03643 66.8091 6.66746 66.2245 6.30571 65.635C6.27704 65.5885 6.24838 65.5419 6.21885 65.494C5.7595 64.7475 5.31391 63.9944 4.88423 63.2305C4.84063 63.153 4.79695 63.0756 4.75325 62.9981C3.00577 59.8974 1.43751 56.6379 0.133789 47.0171C0.142707 46.9575 0.142707 46.9575 0.151806 46.8968C0.280491 46.0794 0.488752 45.1856 1.02183 44.5347C1.0544 44.4927 1.08697 44.4507 1.12053 44.4074C1.49438 43.9356 1.91626 43.5613 2.39831 43.2048C2.42317 43.1864 2.44804 43.168 2.47367 43.1491C3.63447 42.3048 5.02413 41.7822 6.39451 41.3874C6.44191 41.3736 6.48931 41.3599 6.53815 41.3457C10.4444 40.2272 14.5921 39.9642 18.6334 39.8286C18.6637 39.8276 18.6941 39.8266 18.7253 39.8255C19.6853 39.7935 20.642 39.7913 21.6022 39.8128C21.8038 39.8173 22.0053 39.8209 22.2068 39.8244C22.2742 39.8255 22.3416 39.8267 22.409 39.8279C22.5101 39.8296 22.6112 39.8314 22.7123 39.8331C23.0874 39.8395 23.4624 39.8477 23.8375 39.8603C25.9843 39.96 25.9843 39.96 27.8017 38.9311C27.974 38.7765 28.1584 38.6627 28.3601 38.5509C28.4171 38.5176 28.474 38.4842 28.531 38.4507C28.584 38.4202 28.637 38.3897 28.69 38.3592C28.7462 38.3265 28.8023 38.2937 28.8584 38.2609C28.9414 38.2124 29.0244 38.164 29.1076 38.1158C29.2736 38.0195 29.4383 37.9214 29.6025 37.8221C29.9386 37.6188 30.2796 37.429 30.6271 37.2454C30.6819 37.2164 30.7366 37.1873 30.7914 37.1582C30.8992 37.101 31.0069 37.0439 31.1148 36.9869C31.2359 36.9229 31.3568 36.8585 31.4776 36.7939C31.6853 36.6831 31.8941 36.5745 32.1034 36.4669C32.1537 36.4411 32.2041 36.4152 32.2559 36.3885C33.0623 35.9752 33.877 35.5935 34.7124 35.2423C34.8364 35.1899 34.9598 35.1364 35.0829 35.082C39.2543 33.2444 43.7155 32.0718 50.8856 30.9259C50.948 30.918 50.948 30.918 51.0117 30.9099C52.8103 30.683 54.6145 30.5434 56.4248 30.4521C56.5103 30.4477 56.5103 30.4477 56.5975 30.4432C57.1905 30.4129 57.7814 30.3902 58.3752 30.3946C58.4695 30.3948 58.5637 30.395 58.658 30.3951C58.8306 30.3955 59.0027 30.3993 59.1752 30.4053C59.5155 30.4109 59.7842 30.413 60.045 30.174C60.1529 30.0607 60.2479 29.9417 60.3433 29.8177C60.3992 29.7542 60.4554 29.6911 60.5122 29.6284C60.536 29.6007 60.5597 29.5729 60.5842 29.5443C60.7086 29.3997 60.8396 29.2611 60.9705 29.1223C61.0151 29.0748 61.0151 29.0748 61.0607 29.0263C61.3587 28.7119 61.6654 28.4064 61.9741 28.1025C62.1695 27.9094 62.3573 27.7139 62.5363 27.5056C62.6499 27.3759 62.7711 27.2543 62.8936 27.133C62.9189 27.1079 62.9441 27.0828 62.9701 27.0569C63.1222 26.9067 63.2783 26.7643 63.4416 26.6262C63.6123 26.4725 63.7716 26.3072 63.9333 26.1441C64.0968 25.9798 64.2635 25.8229 64.4406 25.6731C64.5217 25.6024 64.597 25.528 64.6725 25.4513C64.8051 25.3169 64.9438 25.1925 65.0869 25.0693C65.1942 24.9763 65.2997 24.8815 65.4051 24.7864C65.596 24.6146 65.7881 24.4446 65.9824 24.2766C66.015 24.2483 66.015 24.2483 66.0482 24.2193C66.3568 23.9512 66.6692 23.6907 66.9927 23.4407C67.1772 23.2973 67.3547 23.1474 67.5309 22.9939C67.799 22.7613 68.0779 22.5476 68.3636 22.3372C68.5014 22.2356 68.6374 22.132 68.7726 22.0269C69.3103 21.61 69.864 21.2265 70.4338 20.8547C70.5423 20.7835 70.6499 20.7114 70.7572 20.6384C73.6948 18.6413 77.0093 17.1421 80.5463 16.6521C80.587 16.6463 80.6278 16.6405 80.6697 16.6345C81.8368 16.4751 83.1106 16.4901 84.2761 16.6521Z" fill="#FEBE1C"/>
<path d="M84.2758 16.6521C84.3211 16.656 84.3663 16.6598 84.4129 16.6637C85.6894 16.8076 87.0296 18.2149 87.8058 19.1428C87.8731 19.2282 87.9396 19.3142 88.0056 19.4005C88.0276 19.4286 88.0495 19.4567 88.0721 19.4857C90.5513 22.6723 91.6647 26.8459 94.305 46.1638C94.3094 46.2511 94.3094 46.2511 94.3139 46.3401C94.3275 46.6121 94.3403 46.8841 94.3518 47.1562C94.3563 47.2516 94.3607 47.3471 94.3652 47.4425C94.3667 47.4851 94.3683 47.5277 94.3698 47.5715C94.3874 47.9266 94.4905 48.1622 94.6856 48.4618C94.7149 48.5071 94.7443 48.5524 94.7745 48.5992C94.8055 48.6467 94.8366 48.6942 94.8686 48.7431C94.901 48.7932 94.9335 48.8434 94.9659 48.8935C95.0297 48.9923 95.0936 49.091 95.1575 49.1897C96.0151 50.5158 96.8172 51.8828 97.5382 53.2876C97.5911 53.39 97.6451 53.4917 97.6999 53.5931C99.3793 56.7076 100.664 60.0687 101.532 63.4962C101.544 63.545 101.544 63.545 101.557 63.5947C101.656 63.9827 101.74 64.3703 101.808 64.7647C101.822 64.8415 101.836 64.9182 101.85 64.9949C101.876 65.1406 101.899 65.2863 101.921 65.4329C101.975 65.7592 102.032 65.9846 102.305 66.1904C102.385 66.2442 102.466 66.2944 102.55 66.343C103.068 66.6479 103.435 67.1489 103.794 67.6189C103.812 67.6422 103.83 67.6655 103.848 67.6896C103.902 67.7628 103.902 67.7628 103.952 67.8436C104.094 68.0661 104.24 68.15 104.482 68.2476C105.917 68.8775 106.889 70.1485 107.452 71.5804C107.516 71.7544 107.575 71.93 107.631 72.107C107.643 72.1431 107.655 72.1792 107.667 72.2164C107.824 72.719 107.932 73.228 108.02 73.7471C108.029 73.7977 108.038 73.8483 108.047 73.9004C108.217 74.9756 108.22 76.0698 108.227 77.1555C108.243 79.7824 108.481 82.352 108.941 84.9383C109.437 87.7235 109.835 90.5239 110.104 93.3403C110.108 93.3844 110.113 93.4286 110.117 93.4741C110.223 94.5648 110.277 95.6597 110.34 96.7536C110.385 96.7533 110.385 96.7533 110.431 96.7531C111.165 96.7492 111.898 96.7462 112.632 96.7444C112.986 96.7435 113.341 96.7422 113.696 96.7402C114.005 96.7384 114.314 96.7373 114.623 96.7369C114.787 96.7367 114.951 96.7361 115.114 96.7348C115.297 96.7334 115.48 96.7334 115.663 96.7335C115.717 96.7328 115.771 96.7322 115.827 96.7315C116.2 96.7333 116.429 96.7907 116.723 97.0306C116.954 97.3122 117.032 97.543 117.017 97.9106C116.977 98.2142 116.836 98.4044 116.608 98.601C116.267 98.8087 115.953 98.8116 115.563 98.8094C115.503 98.8096 115.442 98.8098 115.382 98.81C115.215 98.8105 115.048 98.8102 114.881 98.8098C114.699 98.8094 114.518 98.8099 114.336 98.8102C114.015 98.8107 113.695 98.8107 113.375 98.8104C112.895 98.8099 112.416 98.8102 111.937 98.8106C111.12 98.8114 110.303 98.8115 109.486 98.8112C108.657 98.811 107.829 98.8111 107.001 98.8115C106.923 98.8115 106.923 98.8115 106.843 98.8116C106.576 98.8117 106.31 98.8119 106.043 98.812C105.497 98.8123 104.95 98.8126 104.404 98.8128C104.349 98.8128 104.294 98.8129 104.237 98.8129C103.027 98.8134 101.818 98.8136 100.608 98.8137C98.5771 98.8139 96.5462 98.8144 94.5154 98.8156C94.4709 98.8156 94.4709 98.8156 94.4255 98.8157C93.7018 98.8161 92.9781 98.8165 92.2544 98.8169C91.1196 98.8176 89.9849 98.8183 88.8501 98.819C88.7261 98.819 88.6021 98.8191 88.4781 98.8192C85.5551 98.8209 82.6321 98.8223 79.709 98.8235C79.5474 98.8236 79.3857 98.8236 79.2241 98.8237C76.2363 98.825 73.2485 98.826 70.2607 98.8267C70.1633 98.8267 70.0659 98.8267 69.9685 98.8268C69.2879 98.8269 68.6073 98.827 67.9267 98.8272C67.8296 98.8272 67.7326 98.8272 67.6355 98.8273C67.5708 98.8273 67.5062 98.8273 67.4415 98.8273C67.4095 98.8273 67.3775 98.8273 67.3445 98.8273C67.1829 98.8273 67.0213 98.8274 66.8597 98.8274C63.8753 98.828 60.8909 98.8289 57.9065 98.8307C57.8445 98.8308 57.7825 98.8308 57.7205 98.8309C56.4644 98.8316 55.2083 98.8325 53.9522 98.8334C53.3496 98.8338 52.7469 98.8343 52.1443 98.8347C52.0843 98.8347 52.0244 98.8348 51.9644 98.8348C50.0231 98.8362 48.0817 98.8365 46.1403 98.8362C44.2154 98.8359 42.2905 98.8365 40.3656 98.8385C40.0997 98.8388 39.8339 98.839 39.568 98.8393C39.5159 98.8393 39.4637 98.8394 39.41 98.8394C38.5841 98.8402 37.7582 98.8399 36.9323 98.8392C36.1205 98.8385 35.3088 98.8389 34.4971 98.8405C34.0209 98.8414 33.5448 98.8414 33.0687 98.8402C32.7525 98.8395 32.4364 98.8399 32.1202 98.8412C31.941 98.8419 31.7617 98.8422 31.5825 98.841C30.601 98.8307 30.601 98.8307 29.7054 99.1917C28.4718 99.698 27.1358 99.6055 25.8726 99.2857C25.4934 99.1811 25.4934 99.1811 25.1305 99.3004C25.0914 99.3247 25.0914 99.3247 25.0515 99.3496C23.8933 100.016 22.3823 100.174 21.0914 99.8566C20.5846 99.7113 20.0646 99.4835 19.6261 99.1917C19.4447 99.2097 19.2803 99.279 19.11 99.3413C17.8351 99.7779 16.3349 99.6969 15.1177 99.1169C14.8156 98.9549 14.8156 98.9549 14.7419 98.8814C14.6712 98.8772 14.6004 98.8761 14.5296 98.8763C14.4834 98.8763 14.4372 98.8763 14.3896 98.8763C14.3382 98.8765 14.2868 98.8767 14.2338 98.8769C14.1526 98.877 14.1526 98.877 14.0698 98.8771C13.9189 98.8773 13.768 98.8777 13.6171 98.8782C13.4545 98.8786 13.292 98.8788 13.1295 98.8791C12.8476 98.8795 12.5657 98.8801 12.2838 98.8807C11.8381 98.8818 11.3924 98.8824 10.9467 98.8829C10.7942 98.883 10.6418 98.8832 10.4894 98.8834C10.4513 98.8834 10.4132 98.8835 10.3739 98.8835C9.93986 98.884 9.50578 98.8847 9.07171 98.8853C9.03201 98.8854 8.99232 98.8854 8.95142 98.8855C8.30884 98.8865 7.66626 98.8878 7.02369 98.8892C6.36408 98.8907 5.70448 98.8916 5.04487 98.8921C4.63801 98.8924 4.23116 98.8931 3.8243 98.8944C3.54521 98.8952 3.26611 98.8956 2.98702 98.8956C2.82608 98.8956 2.66516 98.8958 2.50422 98.8966C2.32948 98.8975 2.15474 98.8973 1.98 98.8971C1.92949 98.8975 1.87898 98.8979 1.82695 98.8983C1.41032 98.8962 1.03998 98.8465 0.728623 98.551C0.503624 98.3032 0.469497 98.0506 0.473831 97.7266C0.503626 97.4654 0.609747 97.2508 0.798349 97.0674C1.05304 96.8677 1.23456 96.8367 1.55826 96.8369C1.58996 96.8369 1.62166 96.8368 1.65432 96.8368C1.76054 96.8367 1.86675 96.837 1.97297 96.8372C2.04911 96.8372 2.12526 96.8372 2.2014 96.8372C2.40817 96.8372 2.61493 96.8374 2.8217 96.8378C3.03776 96.838 3.25382 96.8381 3.46988 96.8381C3.87906 96.8382 4.28823 96.8386 4.6974 96.8391C5.16322 96.8396 5.62903 96.8398 6.09485 96.84C7.05309 96.8405 8.01134 96.8413 8.96958 96.8423C8.9714 96.7906 8.9714 96.7906 8.97325 96.7378C8.97882 96.5803 8.9845 96.4227 8.99018 96.2652C8.99208 96.2109 8.99399 96.1567 8.99594 96.1009C9.00893 95.7431 9.02799 95.3888 9.06949 95.0331C9.0752 94.9827 9.0809 94.9322 9.08679 94.8803C9.35433 92.6191 9.8737 89.9922 11.2334 88.0985C11.2545 88.0689 11.2756 88.0392 11.2973 88.0087C11.3369 87.9543 11.3776 87.9007 11.4197 87.8482C11.5265 87.7036 11.5457 87.63 11.5277 87.4503C11.5056 87.374 11.4814 87.2983 11.4561 87.223C11.4389 87.1695 11.4216 87.116 11.4038 87.0609C11.3513 86.9 11.2968 86.7397 11.242 86.5795C10.2257 83.6017 9.59834 80.5161 9.3248 77.3821C9.32002 77.3277 9.32002 77.3276 9.31515 77.2721C9.18524 75.7742 9.15804 74.2749 9.14719 72.7719C9.1469 72.7319 9.14661 72.6919 9.14631 72.6506C9.14369 72.2315 9.14963 71.8137 9.16939 71.395C9.17596 71.2552 9.18197 71.1156 9.18538 70.9756C9.19159 70.8215 9.19159 70.8215 9.21142 70.6467C9.26569 70.0558 9.00919 69.7089 8.66709 69.2478C8.61758 69.1787 8.56823 69.1095 8.51905 69.0402C8.44571 68.937 8.37223 68.8338 8.29805 68.7312C8.06912 68.4142 7.85638 68.088 7.64659 67.7581C7.5684 67.6353 7.4893 67.5131 7.4103 67.3909C7.03617 66.8091 6.66719 66.2245 6.30545 65.635C6.27678 65.5885 6.24812 65.542 6.21859 65.494C5.75924 64.7475 5.31365 63.9944 4.88397 63.2305C4.84037 63.153 4.79669 63.0756 4.75299 62.9981C3.00551 59.8974 -0.214768 53.8687 0.133529 47.0171C0.142447 46.9575 0.142447 46.9575 0.151546 46.8968C0.280231 46.0794 0.488491 45.1856 1.02157 44.5347C1.05414 44.4927 1.08671 44.4507 1.12027 44.4074C1.49412 43.9356 1.916 43.5613 2.39804 43.2049C2.42291 43.1865 2.44778 43.1681 2.47341 43.1491C3.63421 42.3048 5.02387 41.7822 6.39425 41.3874C6.44165 41.3736 6.48905 41.3599 6.53789 41.3457C10.4442 40.2272 14.5918 39.9642 18.6331 39.8286C18.6635 39.8276 18.6938 39.8266 18.725 39.8255C19.685 39.7935 20.6418 39.7914 21.602 39.8128C21.8035 39.8173 22.005 39.8209 22.2066 39.8244C22.2739 39.8256 22.3413 39.8267 22.4087 39.8279C22.5098 39.8296 22.6109 39.8314 22.712 39.8331C23.0872 39.8395 23.4622 39.8477 23.8372 39.8603C25.9841 39.96 25.9841 39.96 27.8014 38.9311C27.9737 38.7765 28.1581 38.6627 28.3598 38.5509C28.4168 38.5176 28.4738 38.4842 28.5307 38.4507C28.5837 38.4202 28.6367 38.3897 28.6897 38.3592C28.7459 38.3265 28.802 38.2937 28.8582 38.2609C28.9412 38.2125 29.0242 38.164 29.1073 38.1158C29.2733 38.0195 29.4381 37.9214 29.6022 37.8221C29.9383 37.6188 30.2794 37.429 30.6268 37.2455C30.6816 37.2164 30.7364 37.1873 30.7912 37.1582C30.8989 37.101 31.0067 37.0439 31.1145 36.9869C31.2356 36.9229 31.3566 36.8585 31.4774 36.7939C31.6851 36.6831 31.8938 36.5745 32.1032 36.4669C32.1535 36.4411 32.2038 36.4152 32.2556 36.3885C33.062 35.9752 33.8767 35.5935 34.7121 35.2423C34.8361 35.1899 34.9595 35.1364 35.0826 35.082C39.254 33.2444 43.7152 32.0718 50.8853 30.9259C50.9478 30.918 50.9478 30.918 51.0114 30.9099C52.81 30.683 54.6142 30.5434 56.4245 30.4521C56.51 30.4477 56.51 30.4477 56.5973 30.4432C57.1902 30.4129 57.7811 30.3902 58.3749 30.3946C58.4692 30.3948 58.5635 30.395 58.6578 30.3951C58.8304 30.3955 59.0024 30.3993 59.1749 30.4053C59.5152 30.4109 59.7839 30.413 60.0447 30.174C60.1526 30.0607 60.2476 29.9417 60.343 29.8177C60.3989 29.7542 60.4552 29.6911 60.512 29.6284C60.5357 29.6007 60.5594 29.5729 60.5839 29.5443C60.7084 29.3997 60.8394 29.2611 60.9702 29.1223C61.0149 29.0748 61.0149 29.0748 61.0605 29.0264C61.3584 28.7119 61.6652 28.4064 61.9739 28.1025C62.1692 27.9094 62.357 27.7139 62.536 27.5056C62.6496 27.3759 62.7708 27.2543 62.8934 27.133C62.9186 27.1079 62.9439 27.0828 62.9699 27.0569C63.1219 26.9067 63.278 26.7643 63.4413 26.6262C63.612 26.4725 63.7714 26.3072 63.933 26.1441C64.0965 25.9798 64.2632 25.8229 64.4403 25.6731C64.5215 25.6024 64.5968 25.528 64.6722 25.4513C64.8048 25.3169 64.9436 25.1925 65.0866 25.0693C65.1939 24.9763 65.2994 24.8815 65.4049 24.7864C65.5957 24.6146 65.7879 24.4446 65.9821 24.2766C66.0147 24.2483 66.0147 24.2483 66.048 24.2193C66.3565 23.9512 66.6689 23.6907 66.9924 23.4407C67.177 23.2973 67.3545 23.1474 67.5306 22.9939C67.7987 22.7613 68.0776 22.5476 68.3633 22.3372C68.5012 22.2356 68.6371 22.132 68.7723 22.0269C69.31 21.61 69.8637 21.2265 70.4336 20.8547C70.542 20.7835 70.6497 20.7114 70.7569 20.6384C73.6946 18.6413 77.009 17.1421 80.5461 16.6521C80.5868 16.6463 80.6275 16.6405 80.6694 16.6345C81.8366 16.4751 83.1103 16.4901 84.2758 16.6521ZM80.4376 18.494C80.322 18.5143 80.2062 18.5321 80.0902 18.5498C78.5068 18.8016 76.9767 19.3453 75.5286 20.0211C75.477 20.045 75.4253 20.069 75.3721 20.0937C74.6359 20.4361 73.918 20.8029 73.2197 21.218C73.1741 21.245 73.1285 21.2721 73.0815 21.3C72.3543 21.7344 71.6506 22.1975 70.9552 22.6808C70.9078 22.7135 70.9078 22.7135 70.8595 22.7469C70.5095 22.9892 70.1723 23.2465 69.8372 23.5089C69.6156 23.6824 69.3915 23.8517 69.1652 24.019C68.9223 24.199 68.6884 24.3864 68.4594 24.5838C68.2891 24.7301 68.1138 24.8684 67.9358 25.0053C67.6692 25.2111 67.4217 25.4329 67.1763 25.6634C67.0465 25.785 66.914 25.9022 66.7794 26.0184C66.6754 26.109 66.573 26.2012 66.4705 26.2936C66.3411 26.4102 66.2111 26.526 66.0792 26.6399C65.676 26.9914 65.2884 27.3572 64.9142 27.7393C64.8203 27.8333 64.7224 27.9205 64.6214 28.0068C64.4209 28.1813 64.2326 28.3662 64.0449 28.5541C64.0097 28.5893 63.9744 28.6244 63.9381 28.6606C63.8642 28.7344 63.7902 28.8083 63.7164 28.8822C63.6041 28.9945 63.4916 29.1066 63.3791 29.2186C63.3069 29.2908 63.2346 29.363 63.1624 29.4352C63.1292 29.4682 63.096 29.5013 63.0617 29.5354C62.8805 29.7171 62.7067 29.9027 62.5395 30.0975C62.4273 30.2262 62.3041 30.3431 62.1815 30.4618C62.0651 30.5811 61.9566 30.7056 61.8473 30.8314C61.6828 31.0178 61.5102 31.1967 61.3389 31.377C61.2136 31.5096 61.0903 31.642 60.9751 31.7835C60.8339 31.9508 60.6837 32.0537 60.4762 32.1227C60.3968 32.1287 60.3172 32.1323 60.2376 32.1345C60.1635 32.1367 60.1635 32.1367 60.088 32.139C60.034 32.1405 59.9799 32.1419 59.9243 32.1434C59.8377 32.1459 59.7511 32.1484 59.6645 32.151C59.5718 32.1537 59.479 32.1563 59.3863 32.1589C59.1925 32.1643 58.9987 32.1701 58.805 32.176C58.7725 32.177 58.7401 32.178 58.7066 32.179C58.6409 32.181 58.5751 32.183 58.5093 32.185C58.3438 32.19 58.1784 32.195 58.0129 32.2C57.9484 32.2019 57.884 32.2039 57.8195 32.2058C57.7014 32.2094 57.5833 32.2129 57.4653 32.2165C55.5265 32.2746 53.5985 32.397 51.673 32.6344C51.5127 32.654 51.3523 32.6725 51.1918 32.6907C50.7778 32.7379 50.3662 32.7875 49.9566 32.8647C49.6441 32.9228 49.3297 32.968 49.0153 33.0143C48.5361 33.085 48.0582 33.1569 47.5847 33.26C47.3916 33.3016 47.1993 33.3324 47.0034 33.3584C46.6204 33.4115 46.2452 33.4939 45.8679 33.5773C45.7948 33.5933 45.7218 33.6092 45.6487 33.6252C45.4718 33.6639 45.2951 33.7029 45.1183 33.7421C45.0336 33.7608 44.9488 33.7795 44.864 33.7982C44.4221 33.8957 43.9825 33.9975 43.5459 34.117C43.4313 34.1483 43.3166 34.1787 43.2015 34.2081C42.7456 34.3248 42.2931 34.4521 41.8411 34.583C41.8127 34.5912 41.7842 34.5994 41.7549 34.6079C40.3673 35.0092 39.0007 35.4712 37.6528 35.9898C37.5655 36.0233 37.4782 36.0565 37.3907 36.0897C35.9168 36.6492 34.4797 37.2877 33.0689 37.9907C33.0256 38.0123 32.9822 38.0338 32.9375 38.056C32.332 38.3577 31.7402 38.6797 31.1534 39.0161C30.9972 39.1054 30.8404 39.1935 30.6836 39.2817C29.6946 39.839 28.7393 40.4397 27.7998 41.0761C27.7668 41.0984 27.7338 41.1206 27.6998 41.1435C27.6382 41.1851 27.5768 41.2268 27.5155 41.2687C27.4324 41.3247 27.3481 41.3782 27.2633 41.4317C27.2149 41.4628 27.1665 41.4938 27.1166 41.5258C26.8425 41.6594 26.5452 41.6319 26.2472 41.6285C26.1804 41.6283 26.1136 41.6283 26.0468 41.6283C25.8657 41.6282 25.6846 41.627 25.5035 41.6256C25.312 41.6243 25.1205 41.624 24.929 41.6237C24.5647 41.6229 24.2004 41.6213 23.836 41.6193C23.1894 41.6158 22.5427 41.6139 21.896 41.6121C21.6704 41.6114 21.4448 41.6104 21.2193 41.6092C19.7657 41.6012 18.3138 41.6338 16.8621 41.7088C16.8079 41.7115 16.7538 41.7143 16.698 41.7172C9.77618 42.0204 4.88397 42.8131 2.67903 45.3468C2.12687 45.9813 1.96416 46.8212 1.86522 47.6377C1.85884 47.6892 1.85884 47.6892 1.85234 47.7418C1.8141 48.0967 1.81406 48.4509 1.81503 48.8074C1.81526 48.9113 1.81503 49.0153 1.81474 49.1192C1.81434 49.7617 1.85349 50.3891 1.96235 51.0233C1.97208 51.0806 1.98182 51.1379 1.99184 51.197C2.07944 51.7026 2.19183 52.2009 2.3208 52.6976C2.35156 52.8161 2.38135 52.9348 2.41105 53.0536C3.25984 56.368 4.82764 59.5611 6.54784 62.5031C6.62472 62.6352 6.70066 62.7678 6.77653 62.9005C7.10473 63.4736 7.44256 64.039 7.79359 64.5984C7.87583 64.7303 7.95652 64.863 8.03708 64.9959C8.65934 66.0211 9.32664 67.0166 9.99396 68.0128C10.0189 68.0501 10.0439 68.0874 10.0696 68.1259C10.2044 68.3272 10.3396 68.5283 10.4754 68.7289C10.5321 68.813 10.5887 68.8971 10.6454 68.9811C10.6719 69.0201 10.6985 69.0591 10.7258 69.0993C10.7627 69.1541 10.7627 69.1541 10.8003 69.21C10.8219 69.242 10.8436 69.274 10.8659 69.3069C10.9969 69.5262 11.0251 69.7108 11.0204 69.9626C11.02 69.9953 11.0196 70.0281 11.0192 70.0618C11.0152 70.3166 11.0067 70.571 10.996 70.8256C10.9679 71.5022 10.9588 72.1779 10.9594 72.855C10.9594 72.9101 10.9594 72.9652 10.9593 73.022C10.96 74.0443 10.9909 75.063 11.0506 76.0835C11.0561 76.1789 11.0614 76.2742 11.0665 76.3696C11.1856 78.5272 11.4631 80.7533 12.0315 82.841C12.0775 83.0109 12.1217 83.1813 12.1653 83.3519C12.4015 84.2684 12.6734 85.1703 12.9658 86.0704C13.1161 86.0371 13.1969 85.9926 13.3155 85.8931C14.1723 85.2129 15.1827 84.7526 16.2072 84.386C16.261 84.3666 16.261 84.3666 16.3159 84.3469C17.8814 83.7904 19.5208 83.5328 21.1802 83.5354C21.217 83.5355 21.2538 83.5355 21.2917 83.5356C23.022 83.5406 24.8224 83.7007 26.4669 84.2751C26.5214 84.2941 26.5759 84.3131 26.6321 84.3326C28.455 84.979 30.121 86.136 31.2595 87.7106C31.2796 87.7382 31.2997 87.7659 31.3203 87.7943C31.795 88.4536 32.1993 89.1492 32.5472 89.8827C32.5672 89.924 32.5672 89.924 32.5876 89.9661C33.348 91.5491 33.6799 93.5896 33.0897 95.2837C33.0629 95.353 33.0629 95.353 33.0356 95.4237C33.0195 95.4667 33.0195 95.4667 33.003 95.5105C32.848 95.9201 32.6666 96.3004 32.4407 96.6757C32.3653 96.7958 32.3653 96.7958 32.3252 96.9309C35.3329 96.9315 38.3407 96.9303 41.3485 96.9273C41.9101 96.9268 42.4717 96.9262 43.0334 96.9257C44.0686 96.9247 45.1038 96.9237 46.1391 96.9227C47.1601 96.9217 48.1811 96.9207 49.2021 96.9197C49.2342 96.9197 49.2662 96.9197 49.2992 96.9196C49.592 96.9194 49.8848 96.9191 50.1777 96.9188C50.9046 96.9181 51.6316 96.9174 52.3586 96.9167C52.3916 96.9167 52.4247 96.9166 52.4588 96.9166C54.0556 96.9151 55.6524 96.9135 57.2492 96.912C57.8013 96.9114 58.3535 96.9109 58.9056 96.9104C58.957 96.9103 58.957 96.9103 59.0094 96.9103C60.6106 96.9087 62.2117 96.9072 63.8129 96.9056C63.9172 96.9055 64.0215 96.9054 64.1258 96.9053C64.8173 96.9046 65.5088 96.904 66.2002 96.9033C67.5754 96.902 68.9505 96.9007 70.3256 96.8994C70.3911 96.8993 70.4565 96.8992 70.522 96.8992C74.2772 96.8956 78.0325 96.8919 83.521 96.8866C83.5497 96.7655 83.5784 96.6445 83.607 96.5234C83.6151 96.4893 83.6232 96.4552 83.6315 96.42C83.685 96.1937 83.735 95.9674 83.7761 95.7385C83.7822 95.7055 83.7882 95.6724 83.7945 95.6384C83.8138 95.5318 83.8326 95.4251 83.8512 95.3185C83.8578 95.2807 83.8645 95.2429 83.8713 95.204C84.4366 91.9389 84.5321 88.5382 84.283 85.2349C84.2756 85.1362 84.2685 85.0374 84.2614 84.9386C84.1515 83.4171 83.9634 81.9055 83.743 80.3964C83.7317 80.3187 83.7317 80.3187 83.7201 80.2395C83.6526 79.7804 83.5801 79.3224 83.4983 78.8655C83.3654 78.1213 83.2417 77.3854 83.2102 76.6285C83.2082 76.5853 83.2063 76.5421 83.2043 76.4977C83.1476 75.045 83.4502 73.6384 84.4321 72.5314C84.5423 72.4173 84.5423 72.4173 84.6441 72.3555C84.7352 72.2847 84.7352 72.2847 84.7407 72.1392C84.7417 72.0786 84.7421 72.018 84.7421 71.9574C84.7644 71.2365 84.92 70.5509 85.2083 69.8906C85.2283 69.8443 85.2484 69.7981 85.269 69.7505C85.9155 68.3667 87.2092 67.4448 88.6116 66.9227C88.7191 66.8837 88.8267 66.8453 88.9344 66.8073C88.966 66.7962 88.9976 66.785 89.0301 66.7735C89.1017 66.7482 89.1732 66.723 89.2447 66.6977C89.361 66.6438 89.4185 66.5635 89.4961 66.4639C89.5929 66.3494 89.7056 66.2565 89.8199 66.1597C89.8817 66.1068 89.9424 66.0526 90.0017 65.9969C91.264 64.8184 92.8164 64.3394 94.5153 64.3795C94.8756 64.392 95.2062 64.4316 95.554 64.5268C95.6031 64.5387 95.6522 64.5505 95.7028 64.5627C96.2565 64.7056 96.8146 64.9175 97.3162 65.1918C97.5739 65.3262 97.7972 65.2952 98.078 65.2576C98.3747 65.2244 98.6721 65.2297 98.9702 65.2305C99.0282 65.2304 99.0862 65.2302 99.146 65.23C99.4612 65.2303 99.7704 65.2401 100.083 65.2804C99.8067 63.9837 99.4694 62.7053 99.0532 61.446C99.0118 61.3179 98.9728 61.1893 98.9338 61.0606C98.8365 60.7438 98.729 60.431 98.6178 60.1189C98.6073 60.0894 98.5968 60.06 98.586 60.0296C98.2455 59.0765 97.8628 58.1431 97.4522 57.2182C97.4376 57.1853 97.4231 57.1524 97.4081 57.1185C97.2274 56.7117 97.0369 56.3113 96.8357 55.9143C96.7188 55.6832 96.6086 55.449 96.4976 55.2151C96.0937 54.3709 95.654 53.5489 95.1877 52.7376C95.1052 52.5942 95.0232 52.4506 94.9411 52.3071C94.6534 51.8054 94.3621 51.3075 94.0505 50.8203C94 50.7408 93.9502 50.6608 93.9007 50.5807C93.7266 50.2993 93.5493 50.0204 93.3663 49.7445C93.3496 49.7192 93.3328 49.6938 93.3156 49.6677C93.2316 49.5408 93.1473 49.4141 93.0625 49.2877C92.9731 49.1528 92.8861 49.0167 92.8011 48.8789C92.7712 48.8306 92.7712 48.8306 92.7407 48.7813C92.5861 48.4905 92.5916 48.1739 92.5823 47.8519C92.5765 47.656 92.5676 47.4602 92.5593 47.2644C92.5575 47.2211 92.5557 47.1778 92.5539 47.1332C92.5286 46.5344 92.4898 45.9363 92.4514 45.3382C92.4485 45.2931 92.4485 45.2931 92.4456 45.247C92.1807 41.1203 89.5194 24.7864 87.1176 21.2623C87.1003 21.237 87.0831 21.2116 87.0653 21.1856C86.7952 20.7914 86.5013 20.4236 86.1851 20.0654C86.1649 20.0422 86.1447 20.019 86.1239 19.9951C85.844 19.6745 85.5494 19.3913 85.2083 19.1345C85.1836 19.1159 85.1589 19.0972 85.1334 19.078C84.9546 18.9439 84.7726 18.8154 84.5867 18.6912C84.5321 18.6545 84.5321 18.6545 84.4765 18.6171C84.2569 18.4888 84.039 18.447 83.7885 18.4206C83.7537 18.4169 83.719 18.4132 83.6832 18.4093C83.2504 18.3669 82.8177 18.3654 82.3832 18.3671C82.3403 18.3671 82.2975 18.3672 82.2533 18.3673C81.6407 18.369 81.0423 18.388 80.4376 18.494Z" fill="#222221"/>
<path d="M97.0206 66.9969C97.1786 67.0648 97.295 67.07 97.4665 67.0676C97.4959 67.0672 97.5252 67.0668 97.5554 67.0665C97.736 67.0621 97.908 67.0421 98.0854 67.0094C99.1689 66.8222 100.308 66.9873 101.238 67.5857C101.896 68.0547 102.357 68.6525 102.758 69.3453C102.928 69.5667 103.164 69.6555 103.419 69.7495C104.476 70.158 105.219 70.9573 105.677 71.9825C106.294 73.4463 106.413 75.0191 106.413 76.5875C106.414 76.9459 106.417 77.3043 106.421 77.6628C106.421 77.6984 106.422 77.734 106.422 77.7707C106.433 78.7812 106.491 79.788 106.566 80.7955C106.57 80.8517 106.57 80.8517 106.575 80.9091C106.635 81.7309 106.722 82.5456 106.854 83.3594C106.877 83.4983 106.899 83.6372 106.92 83.7763C106.993 84.2466 107.073 84.7156 107.157 85.1841C107.411 86.5947 107.645 88.006 107.84 89.4261C107.853 89.5216 107.866 89.6171 107.88 89.7125C107.995 90.5333 108.09 91.3556 108.176 92.1799C108.197 92.3892 108.22 92.5984 108.244 92.8075C108.34 93.6674 108.412 94.527 108.464 95.3907C108.467 95.4376 108.47 95.4846 108.473 95.533C108.481 95.6677 108.489 95.8024 108.497 95.9372C108.499 95.9767 108.502 96.0162 108.504 96.0569C108.515 96.2572 108.521 96.4565 108.521 96.6572C108.52 96.7004 108.52 96.7436 108.52 96.7881C108.52 96.8207 108.52 96.8532 108.52 96.8868C105.772 96.8882 103.024 96.885 100.276 96.8782C99.7566 96.8769 99.237 96.8757 98.7174 96.8745C97.7918 96.8723 96.8662 96.8701 95.9406 96.8678C95.0449 96.8657 94.1492 96.8635 93.2535 96.8614C93.1977 96.8612 93.1419 96.8611 93.0844 96.861C92.8042 96.8603 92.5241 96.8596 92.2439 96.859C89.9432 96.8535 87.6426 96.848 85.3419 96.8424C85.3485 96.7797 85.3552 96.7171 85.3619 96.6544C85.3656 96.6195 85.3694 96.5846 85.3732 96.5486C85.3937 96.3849 85.4292 96.2251 85.4641 96.0639C85.7235 94.8108 85.8771 93.5381 85.9825 92.2637C85.9882 92.1955 85.9939 92.1272 85.9998 92.059C86.0977 90.9005 86.1044 89.737 86.1026 88.5752C86.1023 88.4104 86.1025 88.2457 86.1027 88.081C86.1042 86.9521 86.0623 85.8306 85.9775 84.7048C85.9737 84.6551 85.97 84.6055 85.9662 84.5543C85.868 83.2562 85.7134 81.9648 85.5392 80.6749C85.534 80.6368 85.5289 80.5988 85.5237 80.5596C85.4899 80.3127 85.4506 80.0671 85.409 79.8215C85.3481 79.4611 85.2909 79.1001 85.2328 78.7392C85.2168 78.6402 85.2008 78.5412 85.1847 78.4422C84.9249 76.8404 84.9249 76.8404 84.9284 76.2602C84.9286 76.2173 84.9288 76.1745 84.929 76.1303C84.938 75.546 85.0046 74.9473 85.2531 74.4123C85.2718 74.3715 85.2905 74.3307 85.3097 74.2886C85.4912 73.9251 85.7391 73.634 86.0857 73.4176C86.2852 73.2811 86.3718 73.0835 86.452 72.8608C86.4806 72.6783 86.4828 72.4994 86.4825 72.315C86.4845 72.2166 86.4867 72.1183 86.4891 72.0199C86.4906 71.9502 86.4906 71.9502 86.4922 71.8791C86.5237 70.9318 86.9455 70.1149 87.6203 69.4617C88.2716 68.9003 89.0465 68.5785 89.8622 68.3338C90.2089 68.2262 90.4113 68.0936 90.6452 67.8129C91.4023 66.9341 92.5043 66.2004 93.6821 66.0841C94.8864 66.0147 95.9874 66.4098 97.0206 66.9969Z" fill="#FEBE1C"/>
<path d="M52.1007 65.3136C52.1361 65.3135 52.1716 65.3135 52.2081 65.3135C53.3534 65.315 54.4705 65.4432 55.5918 65.6793C55.627 65.6864 55.6622 65.6935 55.6985 65.7009C57.6056 66.0889 59.5407 66.9309 61.0533 68.1617C61.0903 68.1897 61.1273 68.2177 61.1655 68.2465C62.4442 69.234 63.4973 70.6171 63.895 72.1956C63.9072 72.2353 63.9194 72.275 63.932 72.3159C64.1228 72.94 64.1326 73.598 64.131 74.2452C64.1309 74.3646 64.1319 74.484 64.1331 74.6034C64.1357 75.2993 64.045 75.956 63.8423 76.6229C63.8289 76.6676 63.8155 76.7122 63.8017 76.7583C63.3688 78.167 62.649 79.4298 61.643 80.5085C61.5589 80.5994 61.4793 80.6919 61.4002 80.787C60.9348 81.3175 60.3792 81.7563 59.81 82.1695C59.784 82.1884 59.758 82.2073 59.7313 82.2267C58.3298 83.2387 56.7508 83.8931 55.1034 84.3859C55.0634 84.3979 55.0234 84.41 54.9822 84.4224C54.4619 84.5755 53.9283 84.661 53.3939 84.7488C53.3598 84.7544 53.3258 84.7601 53.2907 84.7659C52.3958 84.9124 51.5205 84.9769 50.613 84.9737C50.4518 84.9732 50.2906 84.9737 50.1294 84.9743C49.5885 84.9746 49.0664 84.9572 48.5318 84.8735C48.4521 84.8641 48.3723 84.8551 48.2925 84.8466C45.6472 84.5401 42.9311 83.3184 41.2252 81.2263C40.9383 80.8633 40.6795 80.4882 40.4506 80.086C40.4216 80.0363 40.3926 79.9866 40.3627 79.9354C40.1848 79.623 40.0397 79.3016 39.9095 78.9667C39.8889 78.9146 39.8889 78.9146 39.8679 78.8614C39.6226 78.2085 39.4774 77.5211 39.3711 76.8334C39.3654 76.7968 39.3597 76.7603 39.3539 76.7226C39.0289 74.5761 39.3464 72.4003 40.6282 70.5997C40.6572 70.5584 40.6572 70.5584 40.6868 70.5162C42.6762 67.6989 46.1178 66.1788 49.4199 65.5463C50.3107 65.3944 51.1975 65.3143 52.1007 65.3136Z" fill="#FEDA7E"/>
<path d="M30.0873 60.3484C30.2215 60.3489 30.3557 60.3484 30.49 60.3479C30.5768 60.3479 30.6636 60.348 30.7505 60.3482C30.7899 60.348 30.8292 60.3478 30.8698 60.3477C31.117 60.3495 31.3488 60.3778 31.5912 60.4264C31.7023 60.4484 31.8134 60.4656 31.9254 60.4819C34.1134 60.8813 36.0363 62.2961 37.2981 64.0836C37.7863 64.827 38.1472 65.6327 38.4026 66.4828C38.4148 66.5229 38.427 66.563 38.4395 66.6043C38.6321 67.2814 38.697 67.9602 38.6919 68.6618C38.6912 68.7794 38.6919 68.897 38.6928 69.0147C38.6936 69.7025 38.6265 70.3929 38.4276 71.0542C38.4166 71.0915 38.4056 71.1289 38.3944 71.1673C37.9932 72.4762 37.3155 73.6508 36.3823 74.6504C36.3417 74.6938 36.3417 74.6938 36.3003 74.7382C35.4506 75.6326 34.4118 76.2669 33.2712 76.7207C33.184 76.7554 33.0972 76.7914 33.0107 76.8276C31.0845 77.5855 28.7584 77.4167 26.8798 76.6235C26.3223 76.3804 25.806 76.0925 25.3095 75.7419C25.2841 75.7241 25.2587 75.7063 25.2326 75.688C23.5704 74.506 22.2476 72.5668 21.8901 70.541C21.8665 70.3951 21.8455 70.249 21.8258 70.1025C21.8073 69.9386 21.8073 69.9386 21.7573 69.8019C21.753 69.7388 21.7512 69.6755 21.7508 69.6122C21.7504 69.5548 21.7504 69.5548 21.75 69.4964C21.7499 69.4551 21.7499 69.4138 21.7498 69.3713C21.7497 69.3285 21.7495 69.2856 21.7494 69.2415C21.7492 69.1506 21.7491 69.0597 21.7491 68.9689C21.749 68.8314 21.7482 68.6939 21.7473 68.5565C21.7461 68.122 21.746 67.7007 21.8461 67.2752C21.8528 67.2439 21.8595 67.2125 21.8665 67.1802C22.15 65.9024 22.648 64.7286 23.4446 63.6846C23.4737 63.6462 23.5027 63.6077 23.5327 63.5681C23.701 63.3517 23.8813 63.1471 24.0662 62.9449C24.0978 62.9101 24.0978 62.9101 24.13 62.8746C25.227 61.6922 26.6846 60.9663 28.2234 60.5511C28.2562 60.5422 28.289 60.5332 28.3228 60.5239C28.9109 60.3703 29.4827 60.3459 30.0873 60.3484Z" fill="#030A2F"/>
<path d="M74.1156 55.1069C74.2022 55.1876 74.2879 55.2691 74.3737 55.3507C74.4105 55.3847 74.4474 55.4186 74.4854 55.4536C76.0241 56.9154 76.8379 59.0815 76.9119 61.1695C76.9571 63.0085 76.3813 64.9203 75.2617 66.3885C75.2267 66.4366 75.1916 66.4848 75.1566 66.5329C74.2381 67.7715 72.9631 68.7065 71.5319 69.2698C71.4976 69.2835 71.4633 69.2971 71.428 69.3112C70.6112 69.6306 69.7475 69.8374 68.8678 69.8461C68.8285 69.8467 68.7891 69.8473 68.7486 69.848C66.2893 69.8821 64.1525 69.0638 62.3717 67.3653C61.0769 66.1008 60.3229 64.4501 60.0078 62.6891C59.9949 62.6177 59.9802 62.5466 59.9632 62.4761C59.9341 62.3014 59.934 62.1287 59.9324 61.9519C59.9319 61.9126 59.9315 61.8733 59.9311 61.8329C59.9299 61.7057 59.9294 61.5786 59.9291 61.4514C59.9289 61.4083 59.9288 61.3651 59.9287 61.3207C59.9285 60.671 59.9621 60.0616 60.1205 59.4289C60.1336 59.3699 60.1466 59.3109 60.1594 59.2518C60.5003 57.8161 61.3132 56.5135 62.3258 55.457C62.3763 55.4042 62.4262 55.3508 62.476 55.2972C63.2685 54.4671 64.3118 53.884 65.36 53.4446C65.4057 53.4254 65.4515 53.4062 65.4986 53.3864C65.806 53.2669 66.1254 53.1981 66.4467 53.1269C66.5954 53.0982 66.5954 53.0982 66.6921 53.0456C69.3591 52.5703 72.1056 53.2725 74.1156 55.1069Z" fill="#030A2F"/>
<path d="M22.0238 85.2717C22.0806 85.2734 22.1374 85.2751 22.1959 85.2769C23.3607 85.3203 24.5974 85.488 25.7092 85.848C25.7467 85.8599 25.7843 85.8719 25.823 85.8843C26.9143 86.2388 27.9226 86.7745 28.758 87.5673C28.8482 87.6526 28.9406 87.731 29.0366 87.8095C30.0801 88.7192 30.9606 90.2103 31.3483 91.522C31.3603 91.5621 31.3723 91.6022 31.3847 91.6435C31.7799 93.0089 31.7196 94.3201 31.068 95.5864C30.6273 96.3738 30.0081 97.0812 29.1754 97.4537C29.1341 97.4722 29.1341 97.4722 29.092 97.4911C28.633 97.6844 28.1893 97.749 27.6934 97.7418C27.6434 97.742 27.5933 97.7421 27.5417 97.7423C27.2843 97.7406 27.062 97.7271 26.8193 97.6393C26.8729 97.4678 26.9369 97.3059 27.0129 97.143C27.4446 96.2088 27.9178 94.7835 27.632 93.7609C27.5406 93.5515 27.4043 93.4251 27.2189 93.2952C26.9429 93.2033 26.6168 93.2006 26.353 93.3229C26.1226 93.5414 25.9793 93.7136 25.9565 94.0397C25.9518 94.103 25.9518 94.103 25.9469 94.1675C25.9436 94.2124 25.9402 94.2573 25.9368 94.3036C25.846 95.4073 25.5943 96.6727 24.709 97.4314C23.8528 98.1118 22.8192 98.2552 21.7574 98.1713C21.4899 98.1228 21.2454 98.0265 21.0026 97.9053C21.0346 97.7354 21.1108 97.5963 21.1885 97.4426C21.3228 97.1656 21.4204 96.8851 21.5049 96.5893C21.5156 96.552 21.5263 96.5147 21.5374 96.4762C21.5688 96.362 21.5972 96.2475 21.6242 96.1322C21.633 96.0958 21.6418 96.0595 21.6509 96.022C21.7407 95.5848 21.7264 95.1386 21.7246 94.6943C21.7241 94.553 21.7246 94.4117 21.7251 94.2704C21.7251 94.1793 21.725 94.0882 21.7248 93.9971C21.7251 93.9347 21.7251 93.9347 21.7253 93.871C21.7222 93.4283 21.676 93.0747 21.38 92.73C21.1731 92.5578 20.964 92.5646 20.7037 92.5693C20.4933 92.5934 20.3536 92.659 20.2033 92.8075C20.1288 92.9088 20.08 93.003 20.0257 93.1178C20.0111 93.1471 19.9964 93.1764 19.9813 93.2065C19.978 93.2773 19.9775 93.3482 19.9784 93.419C19.9788 93.4633 19.9792 93.5076 19.9797 93.5532C19.9807 93.6254 19.9807 93.6254 19.9817 93.6991C19.9824 93.8013 19.9832 93.9034 19.9839 94.0055C19.9853 94.1664 19.9868 94.3273 19.9889 94.4881C19.9908 94.6435 19.9918 94.7988 19.9928 94.9542C19.994 95.0249 19.994 95.0249 19.9953 95.0971C19.9977 95.8395 19.7722 96.6367 19.2709 97.1961C18.7256 97.7302 17.9776 97.7903 17.2574 97.7885C16.4976 97.7778 15.8539 97.5796 15.2929 97.048C14.7045 96.3996 14.3763 95.5055 14.234 94.6555C14.1739 94.3055 14.0877 94.0731 13.8038 93.852C13.5477 93.713 13.2811 93.6891 12.9987 93.7656C12.7182 93.8865 12.6089 94.0963 12.4773 94.359C12.4539 94.7077 12.5262 95.0144 12.6133 95.3509C12.634 95.4325 12.634 95.4325 12.6551 95.5157C12.7601 95.9181 12.8885 96.3058 13.0419 96.6922C13.099 96.8414 13.099 96.8414 13.099 96.9301C12.337 96.9301 11.5751 96.9301 10.79 96.9301C10.79 95.9895 10.79 95.9895 10.8233 95.5808C10.8272 95.5328 10.831 95.4847 10.835 95.4352C10.9073 94.5957 11.0386 93.7603 11.2341 92.9405C11.2472 92.8845 11.2472 92.8845 11.2607 92.8273C11.6303 91.2765 12.1627 89.783 13.1434 88.5077C13.1705 88.4715 13.1977 88.4352 13.2257 88.3979C13.9093 87.5115 14.7989 86.8909 15.8075 86.4242C15.8418 86.4082 15.876 86.3922 15.9113 86.3758C17.8536 85.4785 19.9061 85.2074 22.0238 85.2717Z" fill="#FEBE1C"/>
<path d="M81.3891 23.5678C81.4278 23.5801 81.4666 23.5925 81.5065 23.6052C82.4083 23.926 82.9973 24.7344 83.476 25.5182C83.5057 25.566 83.5354 25.6138 83.566 25.663C84.1321 26.6075 84.5091 27.6915 84.7847 28.7534C84.8064 28.8367 84.829 28.9197 84.8516 29.0027C84.8886 29.1386 84.9248 29.2746 84.9604 29.4108C84.9785 29.4802 84.9967 29.5495 85.015 29.6188C85.2937 30.6795 85.5067 31.7495 85.6579 32.8357C85.6806 32.9974 85.7064 33.1577 85.737 33.3181C85.8874 34.1296 85.9725 34.9524 86.0634 35.7721C86.0737 35.8646 86.084 35.9571 86.0942 36.0496C86.198 36.9838 86.288 37.9179 86.3499 38.856C86.362 39.0386 86.3756 39.2211 86.3895 39.4036C86.4303 39.9476 86.4664 40.4875 86.4509 41.0332C86.2021 40.8797 85.9727 40.7073 85.746 40.5234C85.3547 40.2067 84.9492 39.9103 84.5416 39.6147C84.5083 39.5904 84.4749 39.5661 84.4405 39.5411C83.2392 38.6672 82.0182 37.8233 80.7412 37.0631C80.6494 37.0083 80.5578 36.953 80.4665 36.8973C80.3012 36.7969 80.135 36.6982 79.9682 36.6003C79.9273 36.5763 79.8863 36.5522 79.8442 36.5274C77.6113 35.2202 75.2553 34.1028 72.803 33.2715C72.6735 33.227 72.5446 33.181 72.4157 33.1348C71.795 32.9136 71.1722 32.7238 70.5335 32.5618C70.3966 32.527 70.2599 32.4917 70.1233 32.4562C69.1101 32.1935 68.083 31.9341 67.0399 31.8272C66.9345 31.8152 66.8381 31.7975 66.7363 31.7685C66.7363 31.6799 66.7363 31.6799 66.7953 31.6205C66.8235 31.5971 66.8516 31.5737 66.8806 31.5497C67.0431 31.4119 67.2014 31.2702 67.358 31.1258C67.6827 30.8276 68.0159 30.5401 68.3511 30.2539C68.5206 30.1091 68.6893 29.9634 68.8576 29.8171C69.1132 29.595 69.3708 29.3765 69.6343 29.1637C69.746 29.0724 69.856 28.9795 69.9657 28.8859C70.2219 28.6671 70.4836 28.4576 70.7521 28.254C70.9 28.1418 71.0462 28.0275 71.1924 27.9131C72.5004 26.8909 73.8632 25.9426 75.306 25.1193C75.3373 25.1012 75.3686 25.0832 75.4008 25.0646C76.5978 24.377 77.8625 23.8251 79.2134 23.5235C79.2547 23.5134 79.296 23.5033 79.3386 23.493C79.9849 23.3575 80.7603 23.3552 81.3891 23.5678Z" fill="#FFDA7E"/>
<path d="M47.067 33.3643C47.4692 34.7826 47.797 36.2089 48.0862 37.6542C48.1166 37.8059 48.1474 37.9575 48.1786 38.109C48.2883 38.644 48.3819 39.1807 48.4685 39.7198C48.4752 39.7616 48.482 39.8033 48.4889 39.8463C48.5861 40.4477 48.6813 41.0489 48.7543 41.6537C48.7598 41.6978 48.7653 41.742 48.7709 41.7875C48.8509 42.4391 48.9088 43.0899 48.9477 43.745C48.9508 43.798 48.954 43.851 48.9573 43.9056C48.9599 43.9523 48.9625 43.999 48.9653 44.0471C48.974 44.1791 48.974 44.1791 48.9988 44.3023C49.0222 44.4561 49.0267 44.6018 49.0272 44.7574C49.0273 44.7874 49.0275 44.8174 49.0277 44.8482C49.0281 44.9469 49.0282 45.0456 49.0282 45.1444C49.0284 45.2141 49.0285 45.2838 49.0287 45.3535C49.0289 45.5 49.029 45.6465 49.029 45.793C49.029 45.9411 49.0293 46.0893 49.0299 46.2375C49.0332 47.0634 49.0291 47.8804 48.9319 48.7019C48.9259 48.757 48.9199 48.8122 48.9137 48.869C48.7919 49.9128 48.5621 51.3555 47.6847 52.0563C47.377 52.2768 47.0522 52.391 46.6674 52.3368C45.2711 51.9819 44.3205 50.451 43.6248 49.3C41.4456 45.6222 40.1652 41.3691 39.0386 36.5476C39.0311 36.5135 39.0236 36.4795 39.0159 36.4444C38.995 36.349 38.9746 36.2534 38.9544 36.1578C38.9432 36.1048 38.932 36.0519 38.9205 35.9973C38.8962 35.8412 38.8929 35.694 38.897 35.5364C40.3039 35.029 40.3039 35.029 40.9327 34.8545C41.0434 34.8228 41.1532 34.7888 41.263 34.7545C41.8374 34.5755 42.4146 34.4214 42.9993 34.2794C43.291 34.2076 43.5808 34.1282 43.8706 34.0492C44.4384 33.8946 45.0093 33.7646 45.5851 33.6441C45.7084 33.6181 45.8316 33.592 45.9549 33.5659C46.0305 33.5499 46.1062 33.534 46.1819 33.5181C46.2337 33.5072 46.2337 33.5072 46.2866 33.4961C46.3202 33.4891 46.3537 33.482 46.3882 33.4748C46.4584 33.4597 46.5284 33.444 46.5984 33.4277C46.6334 33.4196 46.6685 33.4115 46.7046 33.4031C46.7515 33.3919 46.7515 33.3919 46.7993 33.3806C46.8894 33.3643 46.8894 33.3643 47.067 33.3643Z" fill="#E2A203"/>
<path d="M16.8628 45.4979C17.1426 45.4984 17.4225 45.4981 17.7024 45.4976C18.9827 45.4956 20.2574 45.515 21.5351 45.5981C21.4531 45.7766 21.3342 45.8958 21.1938 46.0303C21.0145 46.2032 20.8468 46.3815 20.6838 46.5698C20.5448 46.7277 20.3984 46.8785 20.253 47.0305C20.019 47.2767 19.7956 47.5253 19.5842 47.7912C19.4858 47.9115 19.382 48.0249 19.2762 48.1387C19.0868 48.3441 18.9133 48.5579 18.7423 48.7784C18.6129 48.9452 18.4802 49.1081 18.3437 49.2691C17.8785 49.823 17.4525 50.4081 17.0321 50.9963C16.9857 51.0613 16.9391 51.1263 16.8925 51.1912C16.583 51.6216 16.2865 52.0585 16.0019 52.5058C15.9406 52.6018 15.8785 52.6975 15.8164 52.793C14.4451 54.9146 13.368 57.2 12.5437 59.5837C12.5326 59.6157 12.5215 59.6476 12.51 59.6806C12.3776 60.0633 12.2596 60.4464 12.1597 60.839C12.1138 61.01 12.0556 61.1709 11.9886 61.3347C11.7988 61.1586 11.6579 60.9675 11.5141 60.7529C11.4896 60.7167 11.4651 60.6805 11.4398 60.6433C11.3561 60.5193 11.2727 60.3951 11.1894 60.2708C11.1581 60.2244 11.1268 60.178 11.0946 60.1302C9.27067 57.4232 7.4845 54.5795 6.61595 51.4052C6.60529 51.3667 6.59463 51.3282 6.58365 51.2886C6.44371 50.7609 6.42161 50.2385 6.41892 49.6957C6.41849 49.6474 6.41849 49.6474 6.41805 49.5981C6.41396 48.8454 6.56044 48.215 7.05998 47.6372C7.08167 47.6114 7.10336 47.5855 7.12571 47.5588C8.20957 46.371 10.1547 46.0444 11.6612 45.8115C11.6974 45.8058 11.7337 45.8002 11.771 45.7944C12.301 45.713 12.831 45.646 13.3651 45.5981C13.4069 45.5941 13.4486 45.5901 13.4917 45.586C14.6128 45.4813 15.7379 45.4959 16.8628 45.4979Z" fill="#FFDA7E"/>
<path d="M52.0407 67.637C52.345 67.921 52.4743 68.2454 52.4962 68.6595C52.5269 69.678 52.103 70.5403 51.4444 71.2993C51.0796 71.683 50.6513 71.9682 50.1746 72.1959C50.4555 73.453 50.4555 73.453 51.2403 74.4123C52.0599 74.8722 53.0572 75.0142 53.9738 74.7836C54.0846 74.7509 54.1948 74.7158 54.304 74.6783C54.3319 74.6688 54.3597 74.6593 54.3884 74.6495C55.0339 74.424 55.589 74.0823 56.1245 73.6587C56.1624 73.629 56.2002 73.5993 56.2392 73.5687C56.3934 73.4465 56.5462 73.3229 56.6969 73.1964C56.7397 73.1606 56.7825 73.1249 56.8266 73.088C56.8848 73.0388 56.8848 73.0388 56.9441 72.9886C57.1911 72.806 57.4236 72.7809 57.723 72.8165C58.0169 72.8983 58.197 73.0872 58.3446 73.3485C58.4199 73.5807 58.4391 73.8374 58.3514 74.0679C58.135 74.4307 57.7294 74.7807 57.3555 74.976C57.1722 75.1296 57.1614 75.3032 57.1208 75.5316C57.1027 75.6205 57.0844 75.7093 57.0658 75.7981C57.0525 75.8635 57.0525 75.8635 57.0388 75.9301C56.8001 77.0428 56.2613 78.0569 55.5473 78.9338C55.5286 78.957 55.5098 78.9802 55.4905 79.004C55.3329 79.1967 55.1606 79.3512 54.9701 79.5101C54.9387 79.5375 54.9073 79.5648 54.875 79.593C54.1823 80.1776 53.3592 80.537 52.4835 80.7513C52.4328 80.7646 52.3821 80.7779 52.3299 80.7916C51.1808 81.0459 49.8273 80.9713 48.7538 80.4853C48.6878 80.4568 48.6878 80.4568 48.6206 80.4277C47.6666 79.9875 46.9806 79.1815 46.578 78.2246C46.5644 78.1765 46.5644 78.1765 46.5505 78.1275C46.523 78.0326 46.497 77.954 46.4448 77.8699C46.3189 77.8182 46.2343 77.7944 46.1035 77.7758C45.7687 77.7098 45.5331 77.6275 45.3188 77.3479C45.1767 77.1102 45.1509 76.8543 45.2016 76.5844C45.3186 76.3219 45.482 76.1425 45.7344 76.0082C45.8584 75.9669 45.9413 75.9552 46.0702 75.9527C46.1225 75.951 46.1225 75.951 46.1758 75.9493C46.3021 75.9628 46.3997 75.9905 46.5196 76.03C46.7572 76.1043 46.9742 76.1167 47.2219 76.1134C47.2606 76.1139 47.2994 76.1145 47.3393 76.115C47.6632 76.1136 47.9973 76.0859 48.2454 75.8613C48.3288 75.7343 48.4104 75.6073 48.4873 75.4762C48.5109 75.4386 48.5344 75.401 48.5586 75.3623C48.9482 74.6498 48.6387 73.635 48.4674 72.8913C48.4429 72.7722 48.4429 72.7722 48.4429 72.6392C48.4173 72.6399 48.3916 72.6406 48.3651 72.6413C47.1732 72.6694 46.2667 72.2769 45.3887 71.4558C44.9853 71.0368 44.7378 70.5585 44.7354 69.9739C44.7444 69.5376 44.8093 69.1787 45.0989 68.8366C46.1107 67.8675 47.863 67.5126 49.1978 67.2755C49.2688 67.2617 49.2688 67.2617 49.3412 67.2478C50.2221 67.0965 51.32 67.038 52.0407 67.637Z" fill="#232222"/>
<path d="M32.281 96.8867C49.1903 96.8867 66.0996 96.8867 83.5213 96.8867C83.4553 97.2159 83.4553 97.2159 83.3881 97.5516C83.3881 97.8404 83.4255 98.0243 83.5728 98.2703C83.9136 98.6011 84.3512 98.5557 84.7928 98.5586C84.8787 98.5597 84.9645 98.561 85.0504 98.5623C85.3384 98.5663 85.6264 98.5684 85.9144 98.5705C86.0821 98.5718 86.2498 98.5732 86.4175 98.5747C87.4231 98.5831 88.4288 98.589 89.4345 98.5941C89.8657 98.5964 90.2969 98.5988 90.728 98.6012C91.6115 98.6062 92.4951 98.6109 93.3786 98.6155C93.3786 98.6302 93.3786 98.6448 93.3786 98.6599C89.4891 98.6638 85.5996 98.6678 80.7576 98.6725C80.6936 98.6726 80.6296 98.6727 80.5656 98.6727C79.2188 98.6741 77.872 98.6754 76.5253 98.6767C75.8475 98.6774 75.1698 98.678 74.4921 98.6787C74.3899 98.6788 74.2878 98.6789 74.1856 98.679C72.2063 98.6809 70.227 98.6829 68.2477 98.6849C65.0676 98.6882 61.8875 98.6914 58.7074 98.6944C58.6112 98.6945 58.5151 98.6946 58.4189 98.6947C55.3145 98.6976 52.2101 98.7005 30.5938 98.7042C30.6969 98.5992 30.8039 98.5107 30.9212 98.4216C31.3948 98.0445 32.0844 97.4756 32.281 96.8867Z" fill="#332C2A"/>
<path d="M101.015 77.7367C101.625 78.267 102.107 79.0235 102.18 79.8429C102.204 80.3932 102.213 80.8978 101.845 81.3412C101.791 81.3967 101.737 81.4512 101.681 81.5047C101.659 81.5272 101.636 81.5498 101.612 81.5731C99.938 83.1203 96.833 83.3782 94.6713 83.3748C94.6246 83.3747 94.6246 83.3747 94.5769 83.3747C93.7747 83.3728 92.8629 83.3529 92.1792 82.8788C92.1516 82.8598 92.1239 82.8408 92.0955 82.8212C91.7276 82.5384 91.4812 82.0468 91.4104 81.5923C91.2843 80.5489 91.4907 79.6315 92.1017 78.7653C92.7498 77.9489 93.5428 77.3677 94.4881 76.9388C94.5156 76.9263 94.5431 76.9137 94.5714 76.9007C96.5741 75.9993 99.3395 76.3087 101.015 77.7367Z" fill="#FFDA7E"/>
<path d="M74.1156 55.1069C74.2022 55.1876 74.2879 55.2691 74.3737 55.3507C74.4105 55.3847 74.4474 55.4186 74.4854 55.4536C76.0241 56.9154 76.8379 59.0815 76.9119 61.1695C76.9571 63.0085 76.3813 64.9203 75.2617 66.3885C75.2267 66.4366 75.1916 66.4848 75.1566 66.5329C74.2381 67.7715 72.9631 68.7065 71.5319 69.2698C71.4976 69.2835 71.4633 69.2971 71.428 69.3112C70.6112 69.6306 69.7475 69.8374 68.8678 69.8461C68.8285 69.8467 68.7891 69.8473 68.7486 69.848C66.2893 69.8821 64.1525 69.0638 62.3717 67.3653C61.0769 66.1008 60.3229 64.4501 60.0078 62.6891C59.9949 62.6177 59.9802 62.5466 59.9632 62.4761C59.9341 62.3014 59.934 62.1287 59.9324 61.9519C59.9319 61.9126 59.9315 61.8733 59.9311 61.8329C59.9299 61.7057 59.9294 61.5786 59.9291 61.4514C59.9289 61.4083 59.9288 61.3651 59.9287 61.3207C59.9285 60.671 59.9621 60.0616 60.1205 59.4289C60.1336 59.3699 60.1466 59.3109 60.1594 59.2518C60.5003 57.8161 61.3132 56.5135 62.3258 55.457C62.3763 55.4042 62.4262 55.3508 62.476 55.2972C63.2685 54.4671 64.3118 53.884 65.36 53.4446C65.4057 53.4254 65.4515 53.4062 65.4986 53.3864C65.806 53.2669 66.1254 53.1981 66.4467 53.1269C66.5954 53.0982 66.5954 53.0982 66.6921 53.0456C69.3591 52.5703 72.1056 53.2725 74.1156 55.1069ZM62.9623 56.3703C62.8206 56.5272 62.6897 56.6891 62.5627 56.8579C62.5333 56.8954 62.5039 56.9329 62.4737 56.9715C61.9261 57.6905 61.5375 58.5238 61.275 59.3846C61.2618 59.4254 61.2486 59.4662 61.2349 59.5082C61.0497 60.1175 61.036 60.7668 61.0391 61.3988C61.0392 61.4326 61.0393 61.4664 61.0393 61.5012C61.0411 62.0039 61.0662 62.4855 61.1862 62.9752C61.1986 63.0303 61.2109 63.0854 61.2237 63.1421C61.6835 65.0336 62.8988 66.6547 64.5489 67.6774C66.1998 68.6743 68.1794 69.0331 70.0677 68.5874C71.899 68.1121 73.4771 67.0547 74.5461 65.4859C74.5902 65.4213 74.6351 65.3574 74.6802 65.2935C75.338 64.3224 75.7559 62.9957 75.7576 61.8263C75.7578 61.79 75.7579 61.7536 75.7581 61.7162C75.7583 61.6398 75.7584 61.5634 75.7584 61.487C75.7585 61.3721 75.7593 61.2573 75.7601 61.1424C75.7622 60.5469 75.7117 59.9867 75.542 59.4123C75.5248 59.3531 75.5248 59.3531 75.5072 59.2927C75.3961 58.9241 75.2508 58.5785 75.0841 58.2321C75.0505 58.1604 75.0505 58.1604 75.0161 58.0873C74.1472 56.2877 72.5667 55.0252 70.707 54.3683C67.9545 53.4183 64.9508 54.3253 62.9623 56.3703Z" fill="#040C2E"/>
<path d="M30.0873 60.3484C30.2215 60.3489 30.3557 60.3484 30.49 60.3479C30.5768 60.3479 30.6636 60.348 30.7505 60.3482C30.7899 60.348 30.8292 60.3478 30.8698 60.3477C31.117 60.3495 31.3488 60.3778 31.5912 60.4264C31.7023 60.4484 31.8134 60.4656 31.9254 60.4819C34.1134 60.8813 36.0363 62.2961 37.2981 64.0836C37.7863 64.827 38.1472 65.6327 38.4026 66.4828C38.4148 66.5229 38.427 66.563 38.4395 66.6043C38.6321 67.2814 38.697 67.9602 38.6919 68.6618C38.6912 68.7794 38.6919 68.897 38.6928 69.0147C38.6936 69.7025 38.6265 70.3929 38.4276 71.0542C38.4166 71.0915 38.4056 71.1289 38.3944 71.1673C37.9932 72.4762 37.3155 73.6508 36.3823 74.6504C36.3417 74.6938 36.3417 74.6938 36.3003 74.7382C35.4506 75.6326 34.4118 76.2669 33.2712 76.7207C33.184 76.7554 33.0972 76.7914 33.0107 76.8276C31.0845 77.5855 28.7584 77.4167 26.8798 76.6235C26.3223 76.3804 25.806 76.0925 25.3095 75.7419C25.2841 75.7241 25.2587 75.7063 25.2326 75.688C23.5704 74.506 22.2476 72.5668 21.8901 70.541C21.8665 70.3951 21.8455 70.249 21.8258 70.1025C21.8073 69.9386 21.8073 69.9386 21.7573 69.8019C21.753 69.7388 21.7512 69.6755 21.7508 69.6122C21.7504 69.5548 21.7504 69.5548 21.75 69.4964C21.7499 69.4551 21.7499 69.4138 21.7498 69.3713C21.7497 69.3285 21.7495 69.2856 21.7494 69.2415C21.7492 69.1506 21.7491 69.0597 21.7491 68.9689C21.749 68.8314 21.7482 68.6939 21.7473 68.5565C21.7461 68.122 21.746 67.7007 21.8461 67.2752C21.8528 67.2439 21.8595 67.2125 21.8665 67.1802C22.15 65.9024 22.648 64.7286 23.4446 63.6846C23.4737 63.6462 23.5027 63.6077 23.5327 63.5681C23.701 63.3517 23.8813 63.1471 24.0662 62.9449C24.0978 62.9101 24.0978 62.9101 24.13 62.8746C25.227 61.6922 26.6846 60.9663 28.2234 60.5511C28.2562 60.5422 28.289 60.5332 28.3228 60.5239C28.9109 60.3703 29.4827 60.3459 30.0873 60.3484ZM28.1013 61.7231C28.0463 61.74 28.0463 61.74 27.9903 61.7573C27.2468 61.9934 26.5686 62.3506 25.9311 62.798C25.8869 62.8288 25.8427 62.8595 25.7972 62.8912C24.4983 63.8393 23.6088 65.1765 23.1338 66.6989C23.1172 66.7513 23.1006 66.8036 23.0835 66.8576C22.8899 67.4959 22.8491 68.1195 22.8507 68.7824C22.8507 68.8205 22.8507 68.8585 22.8508 68.8978C22.8525 69.4946 22.8837 70.0661 23.045 70.6442C23.0545 70.6785 23.064 70.7128 23.0738 70.7482C23.4096 71.9156 24.0112 73.0901 24.9099 73.9245C25.1319 74.1461 25.1319 74.1461 25.1979 74.2199C26.0162 75.1002 27.2373 75.6369 28.3732 75.9636C28.4519 75.9871 28.4519 75.9871 28.5321 76.011C30.3091 76.493 32.3021 76.1013 33.8833 75.2228C34.592 74.8159 35.2659 74.2874 35.7884 73.6585C35.8194 73.6226 35.8505 73.5866 35.8824 73.5496C36.6153 72.685 37.2158 71.5857 37.4313 70.4669C37.4372 70.4392 37.4432 70.4116 37.4493 70.3832C37.8585 68.4436 37.469 66.4143 36.4012 64.7543C36.1599 64.3908 35.8882 64.0625 35.5845 63.7495C35.5223 63.685 35.4615 63.6194 35.4008 63.5535C34.6291 62.7333 33.6402 62.2022 32.5914 61.8228C32.5598 61.8114 32.5282 61.7999 32.4957 61.7882C31.7866 61.5373 31.0753 61.4451 30.3255 61.4508C30.2159 61.4516 30.1064 61.4508 29.9969 61.45C29.3508 61.4491 28.7191 61.5282 28.1013 61.7231Z" fill="#040C2E"/>
<path d="M36.1873 36.5547C36.2995 36.6894 36.3562 36.8125 36.41 36.9788C36.426 37.028 36.442 37.0773 36.4585 37.1281C36.4753 37.1811 36.492 37.2342 36.5092 37.2889C36.5268 37.344 36.5443 37.3991 36.5624 37.4558C36.7406 38.0215 36.8906 38.594 37.031 39.1701C37.0392 39.2035 37.0475 39.237 37.0559 39.2715C37.1977 39.848 37.3257 40.4258 37.4334 41.0097C37.4409 41.0507 37.4485 41.0917 37.4563 41.134C37.6964 42.4531 37.8411 43.8125 37.7858 45.1544C37.7848 45.1871 37.7838 45.2198 37.7828 45.2534C37.7521 46.2424 37.6256 47.4079 36.9227 48.166C36.6851 48.3856 36.4453 48.4618 36.1252 48.4498C35.3834 48.353 34.7846 47.6846 34.3445 47.1256C33.3671 45.8431 32.6974 44.3315 32.1523 42.8244C32.1402 42.7911 32.1282 42.7579 32.1158 42.7236C31.9511 42.2667 31.7997 41.8067 31.6583 41.3422C31.6444 41.2968 31.6305 41.2515 31.6162 41.2048C31.4613 40.6953 31.3197 40.1836 31.1948 39.666C31.1833 39.6184 31.1718 39.5708 31.16 39.5218C31.0811 39.1876 31.0811 39.1876 31.0811 39.0371C32.754 38.1403 34.4403 37.2988 36.1873 36.5547Z" fill="#E2A203"/>
<path d="M96.8419 55.8828C99.062 60.577 99.062 60.577 99.062 61.6012C98.2998 61.8655 97.5371 62.1287 96.774 62.3905C96.6772 62.4238 96.5804 62.457 96.4836 62.4902C90.7982 64.4431 90.7982 64.4431 88.6275 64.4576C88.5564 64.4583 88.5564 64.4583 88.4838 64.459C88.1535 64.4552 87.8687 64.4067 87.5813 64.2387C87.4697 64.045 87.4814 63.8568 87.5174 63.6403C87.5825 63.4603 87.6762 63.3104 87.7838 63.1527C87.8137 63.1088 87.8436 63.065 87.8744 63.0199C88.1431 62.6479 88.467 62.3261 88.7912 62.0029C88.8133 61.9809 88.8354 61.9589 88.8581 61.9362C89.1137 61.6822 89.3736 61.4352 89.6487 61.2022C89.6723 61.1819 89.6959 61.1616 89.7202 61.1407C90.0125 60.8889 90.3106 60.6462 90.6155 60.4098C90.7913 60.2729 90.9618 60.1312 91.1307 59.986C91.3949 59.7597 91.6707 59.5515 91.9504 59.3448C92.1061 59.2296 92.2599 59.1123 92.4133 58.9943C92.7995 58.6971 93.1924 58.4103 93.5887 58.1269C93.7558 58.0073 93.9224 57.887 94.089 57.7668C94.1559 57.7186 94.2228 57.6704 94.2896 57.6222C94.4201 57.5281 94.5504 57.4338 94.6806 57.3392C95.1789 56.9778 95.6831 56.6253 96.1899 56.2759C96.2721 56.2188 96.3538 56.1612 96.4352 56.103C96.4751 56.0746 96.515 56.0461 96.5561 56.0168C96.6097 55.9782 96.6097 55.9782 96.6645 55.9388C96.7531 55.8828 96.7531 55.8828 96.8419 55.8828Z" fill="#E2A203"/>
<path d="M56.3021 32.3002C56.4412 33.4877 56.5578 34.6766 56.6596 35.8679C56.6684 35.9704 56.6772 36.0728 56.686 36.1753C56.7657 37.1052 56.8354 38.0328 56.8599 38.966C56.8608 39.0004 56.8618 39.0348 56.8627 39.0702C56.9583 42.7452 56.9583 42.7452 56.366 43.5672C56.2611 43.6729 56.1781 43.7285 56.0298 43.7518C55.6542 43.7374 55.3483 43.4788 55.0998 43.2165C53.6662 41.5322 52.7474 39.3165 51.8619 37.3093C51.8369 37.2528 51.8369 37.2528 51.8115 37.1952C51.3149 36.0719 50.8322 34.9436 50.371 33.8053C50.2762 33.5715 50.1785 33.3391 50.079 33.1073C50.0414 33.0094 50.0414 33.0094 50.0414 32.9207C49.9975 32.9061 49.9535 32.8915 49.9082 32.8764C50.7666 32.7376 51.6263 32.6394 52.4913 32.5528C52.6922 32.5326 52.893 32.5109 53.0937 32.4881C53.5015 32.4417 53.9096 32.4025 54.3187 32.3696C54.3881 32.364 54.4575 32.3581 54.5269 32.3521C55.1193 32.3006 55.7076 32.293 56.3021 32.3002Z" fill="#E2A203"/>
<path d="M30.0934 61.4542C30.2046 61.4544 30.3157 61.4533 30.4268 61.4522C31.1427 61.4493 31.8061 61.5509 32.4837 61.7868C32.5349 61.8044 32.5862 61.8219 32.639 61.84C33.3208 62.0783 33.9152 62.3775 34.5012 62.7981C34.5714 62.8469 34.5714 62.8469 34.6429 62.8968C35.3185 63.3881 35.911 64.0047 36.3661 64.7042C36.3836 64.731 36.4012 64.7577 36.4192 64.7853C37.2056 66.0016 37.574 67.3181 37.5789 68.763C37.579 68.7972 37.5791 68.8314 37.5793 68.8666C37.581 70.847 36.7987 72.6304 35.4337 74.0575C35.3193 74.1661 35.1999 74.2672 35.0785 74.3678C35.0425 74.3988 35.0065 74.4297 34.9694 74.4616C33.7524 75.4898 32.1533 76.159 30.5494 76.1853C30.5208 76.1861 30.4922 76.1869 30.4627 76.1878C29.9814 76.2016 29.5159 76.1658 29.0397 76.0966C28.9955 76.0902 28.9513 76.0838 28.9057 76.0772C27.2919 75.813 25.6901 74.9146 24.6439 73.6585C24.5997 73.6085 24.5997 73.6085 24.5546 73.5574C23.9042 72.8021 23.4727 71.9303 23.1611 70.9909C23.139 70.9244 23.116 70.8582 23.0928 70.7921C22.8914 70.1857 22.8456 69.5481 22.8505 68.914C22.8512 68.8046 22.8505 68.6953 22.8496 68.5859C22.8487 67.9409 22.9279 67.3102 23.1231 66.6934C23.1344 66.6569 23.1458 66.6203 23.1574 66.5826C23.3939 65.8404 23.7517 65.1633 24.1999 64.5269C24.2307 64.4828 24.2615 64.4387 24.2932 64.3932C25.2429 63.0964 26.5824 62.2085 28.1073 61.7342C28.1597 61.7176 28.2122 61.7011 28.2662 61.684C28.8726 61.5007 29.4631 61.4526 30.0934 61.4542ZM28.1961 62.8424C28.1411 62.8616 28.0861 62.8807 28.0294 62.9004C26.9196 63.3152 25.9363 64.0247 25.2211 64.9702C25.1949 65.0046 25.1686 65.039 25.1415 65.0744C24.7184 65.6524 24.3802 66.3011 24.1858 66.9908C24.1656 67.0622 24.144 67.1332 24.121 67.2037C23.7822 68.2488 23.8439 69.4683 24.1555 70.5112C24.1671 70.5503 24.1788 70.5895 24.1908 70.6298C24.6893 72.2538 25.7878 73.562 27.2786 74.3734C28.6911 75.1205 30.419 75.3285 31.9587 74.863C33.2468 74.4538 34.3937 73.7278 35.2117 72.639C35.2445 72.5953 35.2773 72.5517 35.311 72.5067C35.8643 71.7397 36.217 70.9042 36.4105 69.9793C36.4218 69.9268 36.4218 69.9268 36.4333 69.8733C36.4933 69.5745 36.5134 69.289 36.5104 68.9847C36.5099 68.9156 36.5099 68.9156 36.5094 68.8452C36.4996 68.127 36.4256 67.4675 36.1885 66.7876C36.1716 66.7376 36.1546 66.6876 36.1372 66.6361C35.8663 65.886 35.445 65.2041 34.9003 64.6218C34.829 64.5451 34.763 64.4677 34.6983 64.3856C34.0343 63.6207 33.0456 63.1242 32.1035 62.7981C32.0255 62.7707 32.0255 62.7707 31.946 62.7427C30.7788 62.3707 29.3429 62.4346 28.1961 62.8424Z" fill="#FCED00"/>
<path d="M70.6728 54.3592C70.7192 54.3749 70.7657 54.3906 70.8135 54.4068C72.6284 55.034 74.1889 56.3725 75.0411 58.1013C75.1366 58.3049 75.2229 58.5116 75.3073 58.72C75.324 58.7597 75.3408 58.7994 75.3581 58.8404C75.6131 59.4824 75.7578 60.1959 75.7588 60.8857C75.7589 60.9222 75.7591 60.9587 75.7592 60.9963C75.7594 61.0732 75.7595 61.15 75.7595 61.2269C75.7596 61.3426 75.7604 61.4584 75.7613 61.5741C75.7633 62.164 75.6998 62.7105 75.5404 63.2803C75.5229 63.3432 75.5229 63.3432 75.5051 63.4074C74.9668 65.2959 73.7044 66.8487 72.0076 67.824C71.7508 67.9659 71.4948 68.0971 71.2223 68.2063C71.1929 68.2181 71.1636 68.2299 71.1333 68.2421C69.6534 68.827 68.0089 68.9446 66.4712 68.5166C66.4309 68.5057 66.3907 68.4948 66.3492 68.4835C64.5321 67.9763 62.9239 66.692 61.9977 65.0562C61.8302 64.7539 61.6785 64.4459 61.5426 64.1281C61.523 64.0828 61.5034 64.0375 61.4832 63.9908C61.3741 63.7244 61.2905 63.4572 61.2234 63.1778C61.2131 63.135 61.2131 63.135 61.2026 63.0914C61.0835 62.5655 61.0395 62.0467 61.0426 61.5093C61.043 61.4107 61.0426 61.3122 61.042 61.2136C61.0414 60.6284 61.0723 60.0314 61.2429 59.4681C61.2525 59.435 61.2622 59.402 61.2722 59.3679C61.5439 58.4669 61.9745 57.5949 62.5638 56.8582C62.584 56.8328 62.6042 56.8075 62.625 56.7813C63.7987 55.3221 65.5336 54.276 67.4113 54.0602C68.503 53.9552 69.6288 54.0061 70.6728 54.3592ZM66.6821 55.315C66.6505 55.3245 66.6188 55.334 66.5862 55.3437C64.9448 55.8527 63.6072 57.001 62.7997 58.5067C62.4062 59.2605 62.1518 60.0766 62.123 60.9308C62.1207 60.9985 62.1179 61.0663 62.1147 61.134C62.07 62.1608 62.2602 63.1091 62.697 64.0394C62.7121 64.0721 62.7272 64.1047 62.7428 64.1384C63.4456 65.6307 64.7531 66.7509 66.2936 67.3197C66.4196 67.3628 66.5463 67.403 66.6738 67.4416C66.7026 67.4505 66.7313 67.4593 66.761 67.4683C67.2803 67.6175 67.8043 67.6469 68.3417 67.6439C68.3739 67.6438 68.4061 67.6436 68.4393 67.6435C70.0942 67.6339 71.5768 67.0491 72.7763 65.9012C72.8122 65.8682 72.8481 65.8352 72.8851 65.8011C73.6669 65.0586 74.1595 64.1108 74.4617 63.0874C74.4897 62.993 74.5194 62.8991 74.5523 62.8062C74.6991 62.3419 74.7016 61.8457 74.6995 61.3631C74.6994 61.333 74.6994 61.3029 74.6993 61.2719C74.6972 60.8205 74.6727 60.3988 74.5524 59.9612C74.5372 59.9007 74.5219 59.8402 74.5066 59.7797C74.081 58.1657 73.0146 56.7983 71.5848 55.9446C70.6171 55.3875 69.5457 55.1115 68.4317 55.1179C68.3333 55.1183 68.2349 55.1179 68.1366 55.1173C67.6364 55.1168 67.1622 55.1709 66.6821 55.315Z" fill="#FCED00"/>
<path d="M52.0409 67.637C52.3452 67.921 52.4745 68.2454 52.4964 68.6595C52.5271 69.678 52.1032 70.5403 51.4446 71.2993C50.9459 71.8238 50.3565 72.1577 49.6642 72.3538C49.5933 72.374 49.5933 72.374 49.521 72.3945C48.3952 72.7087 47.4444 72.773 46.3991 72.2014C45.706 71.8057 45.0937 71.2897 44.7968 70.5326C44.6736 70.0463 44.702 69.4773 44.9471 69.0361C45.6918 67.9398 47.6742 67.5836 48.8788 67.3336C48.9851 67.3138 49.0915 67.2944 49.198 67.2755C49.269 67.2617 49.269 67.2617 49.3414 67.2478C50.2223 67.0965 51.3202 67.038 52.0409 67.637Z" fill="#020A2F"/>
<path d="M11.2344 78.1799C12.601 78.1725 13.9565 78.1984 15.3194 78.3073C15.3879 78.3127 15.3879 78.3127 15.4577 78.3182C18.5917 78.5678 18.5917 78.5678 19.138 79.1551C19.3568 79.4693 19.3888 79.7554 19.36 80.1303C19.203 80.6529 18.7877 80.8887 18.3328 81.1373C17.3762 81.6169 16.2464 81.8943 15.1848 82.0145C15.0312 82.0327 14.879 82.0568 14.7264 82.0822C14.2755 82.157 13.8241 82.2111 13.3693 82.2552C13.2535 82.2665 13.1377 82.2784 13.0219 82.2902C12.6474 82.3278 12.2774 82.3607 11.9004 82.3468C11.7158 81.4137 11.5375 80.4803 11.3926 79.5402C11.3842 79.4868 11.3842 79.4868 11.3757 79.4324C11.311 79.0152 11.2588 78.6016 11.2344 78.1799Z" fill="#E2A303"/>
<path d="M97.8365 69.0306C98.503 69.3859 98.8755 70.0061 99.1104 70.6989C99.3091 71.4394 99.2182 72.1696 98.8478 72.8404C98.6185 73.187 98.3165 73.4304 97.907 73.5247C97.3787 73.5914 97.0091 73.4853 96.5875 73.1678C96.023 72.69 95.6619 72.0037 95.5981 71.2639C95.5603 70.5425 95.6846 69.8873 96.1639 69.3223C96.6249 68.8741 97.2449 68.7825 97.8365 69.0306Z" fill="#FFDA7E"/>
<path d="M91.98 70.5317C92.5281 70.8689 92.8795 71.3301 93.1116 71.9294C93.1299 71.9761 93.1482 72.0227 93.1671 72.0707C93.3432 72.73 93.3328 73.5708 93.0023 74.176C92.9392 74.2735 92.8724 74.3648 92.8008 74.4562C92.7733 74.4964 92.7458 74.5366 92.7175 74.5781C92.4987 74.8094 92.2043 74.9701 91.8876 75.0061C91.3431 75.0189 90.9898 74.8913 90.5668 74.5337C90.2078 74.1897 89.9954 73.8121 89.8258 73.3479C89.8101 73.3061 89.7943 73.2643 89.7781 73.2212C89.6937 72.9352 89.6845 72.6466 89.6843 72.3506C89.6837 72.3192 89.6832 72.2878 89.6826 72.2555C89.6811 71.6977 89.9192 71.1519 90.2976 70.7433C90.7681 70.3105 91.4098 70.2286 91.98 70.5317Z" fill="#FFDA7E"/>
<path d="M89.1913 75.4005C89.8272 75.8629 90.2564 76.4607 90.4269 77.2354C90.5248 77.914 90.4546 78.6693 90.0483 79.2427C90.0292 79.2702 90.0102 79.2978 89.9905 79.3261C89.7768 79.6039 89.466 79.8138 89.1158 79.8633C88.65 79.9105 88.2832 79.8196 87.9092 79.5339C87.3628 79.0685 86.9439 78.4316 86.8859 77.7006C86.8568 76.9319 86.8997 76.3243 87.3841 75.6964C87.8309 75.2213 88.6147 75.0571 89.1913 75.4005Z" fill="#FFDA7E"/>
<path d="M102.839 71.9382C103.469 72.3221 103.885 72.9442 104.069 73.6537C104.204 74.3523 104.158 75.0666 103.813 75.6973C103.558 76.0402 103.297 76.2876 102.881 76.4066C102.403 76.4557 101.988 76.387 101.588 76.1157C101.011 75.6448 100.674 74.9636 100.572 74.2345C100.508 73.5188 100.597 72.8531 101.051 72.2712C101.526 71.7522 102.203 71.6375 102.839 71.9382Z" fill="#FFDA7E"/>
<path d="M50.2648 75.9189C50.3105 75.942 50.3562 75.965 50.4034 75.9887C50.85 76.2089 51.2897 76.378 51.7744 76.4952C51.8203 76.5068 51.8662 76.5183 51.9134 76.5302C52.2912 76.6192 52.6468 76.6493 53.0344 76.6448C53.1186 76.6443 53.1186 76.6443 53.2046 76.6438C53.7448 76.6355 54.2377 76.5643 54.7487 76.3823C54.8532 76.3589 54.9141 76.3779 55.0158 76.4066C54.8182 76.8541 54.6203 77.2683 54.3054 77.6478C54.2581 77.705 54.2581 77.705 54.2098 77.7634C53.5566 78.5199 52.6125 79.0251 51.607 79.1053C50.6528 79.1566 49.6568 79.1636 48.8886 78.5099C48.6545 78.2912 48.4741 78.0798 48.3555 77.7807C48.3893 77.7678 48.4231 77.7549 48.458 77.7416C49.3699 77.3802 49.8182 76.7566 50.2648 75.9189Z" fill="#F6898C"/>
<path d="M71.0591 57.23C71.4487 57.465 71.657 57.8076 71.7987 58.232C71.8361 58.7442 71.7812 59.16 71.4441 59.5602C71.1239 59.8836 70.7448 60.051 70.2918 60.0689C69.907 60.0581 69.5517 59.9117 69.2677 59.6505C68.9237 59.2806 68.7893 58.8849 68.8072 58.3823C68.8552 57.9445 69.072 57.6331 69.401 57.3455C69.9177 57.0204 70.5044 56.9642 71.0591 57.23Z" fill="#FBFBFB"/>
<path d="M33.4009 64.6948C33.4396 64.7216 33.4396 64.7216 33.4791 64.7489C33.5231 64.7781 33.567 64.8074 33.6123 64.8375C33.6123 64.8668 33.6123 64.896 33.6123 64.9262C33.6416 64.9262 33.6709 64.9262 33.7011 64.9262C33.9899 65.3085 34.1017 65.693 34.0563 66.1674C33.9809 66.5852 33.7671 66.9088 33.4356 67.1727C33.0538 67.4219 32.6376 67.4579 32.1914 67.4086C32.0441 67.3676 31.9221 67.3103 31.7918 67.2313C31.7217 67.1929 31.7217 67.1929 31.6503 67.1537C31.4848 67.0215 31.3727 66.877 31.259 66.6993C31.2404 66.6707 31.2219 66.6421 31.2028 66.6126C31.016 66.2691 31.0257 65.8314 31.1122 65.4578C31.2617 65.0477 31.543 64.7745 31.925 64.5715C32.4403 64.3564 32.9364 64.3864 33.4009 64.6948Z" fill="#FBFBFC"/>
</g>
<defs>
<clipPath id="clip0_2114_2176">
<rect width="117" height="83.4261" fill="white" transform="translate(0 16.5635)"/>
</clipPath>
</defs>
</svg>
