<svg width="22" height="22" viewBox="0 0 22 22" fill="none" xmlns="http://www.w3.org/2000/svg">
<path d="M9.05451 3.89618C9.19684 3.49405 9.46031 3.14591 9.80866 2.89969C10.157 2.65346 10.5731 2.52125 10.9997 2.52125C11.4263 2.52125 11.8424 2.65346 12.1907 2.89969C12.539 3.14591 12.8025 3.49405 12.9448 3.89618C12.9749 3.98135 13.0215 4.05975 13.0819 4.12692C13.1423 4.19409 13.2153 4.2487 13.2968 4.28765C13.3783 4.32659 13.4667 4.3491 13.5569 4.35389C13.6471 4.35867 13.7374 4.34565 13.8225 4.31555C13.9077 4.28546 13.9861 4.23888 14.0533 4.17849C14.1205 4.11809 14.1751 4.04506 14.214 3.96356C14.253 3.88205 14.2755 3.79368 14.2803 3.70348C14.285 3.61328 14.272 3.52301 14.2419 3.43785C14.0049 2.76745 13.5659 2.18702 12.9853 1.77649C12.4048 1.36595 11.7112 1.14551 11.0001 1.14551C10.2891 1.14551 9.59551 1.36595 9.01494 1.77649C8.43436 2.18702 7.99535 2.76745 7.75834 3.43785C7.72652 3.52335 7.71204 3.61433 7.71573 3.70549C7.71943 3.79664 7.74123 3.88615 7.77987 3.9688C7.81851 4.05144 7.87321 4.12557 7.94078 4.18687C8.00836 4.24816 8.08746 4.29539 8.17347 4.3258C8.25948 4.35622 8.35069 4.36921 8.44177 4.36402C8.53286 4.35883 8.622 4.33556 8.704 4.29558C8.786 4.25559 8.85923 4.19968 8.9194 4.13111C8.97958 4.06254 9.02551 3.98268 9.05451 3.89618ZM2.52051 5.50035C2.52051 5.31801 2.59294 5.14314 2.72187 5.01421C2.8508 4.88528 3.02567 4.81285 3.20801 4.81285H18.7913C18.9737 4.81285 19.1485 4.88528 19.2775 5.01421C19.4064 5.14314 19.4788 5.31801 19.4788 5.50035C19.4788 5.68268 19.4064 5.85755 19.2775 5.98648C19.1485 6.11541 18.9737 6.18785 18.7913 6.18785H3.20801C3.02567 6.18785 2.8508 6.11541 2.72187 5.98648C2.59294 5.85755 2.52051 5.68268 2.52051 5.50035ZM4.69026 7.10635C4.87209 7.09427 5.05127 7.15488 5.18844 7.27486C5.3256 7.39483 5.40952 7.56436 5.42176 7.74618L5.84342 14.0712C5.92592 15.3059 5.98459 16.1658 6.11292 16.812C6.23851 17.4399 6.41267 17.7718 6.66292 18.0064C6.91409 18.2411 7.25692 18.3933 7.89126 18.4758C8.54576 18.561 9.40742 18.5628 10.6449 18.5628H11.3544C12.5919 18.5628 13.4536 18.561 14.1081 18.4758C14.7424 18.3933 15.0853 18.2411 15.3364 18.0064C15.5867 17.7718 15.7608 17.4399 15.8864 16.812C16.0148 16.1658 16.0734 15.3059 16.1559 14.0712L16.5776 7.74618C16.5836 7.65608 16.6073 7.56804 16.6474 7.4871C16.6874 7.40616 16.743 7.3339 16.811 7.27444C16.8789 7.21498 16.9579 7.1695 17.0435 7.14058C17.129 7.11166 17.2194 7.09987 17.3095 7.10589C17.3997 7.11191 17.4877 7.13561 17.5686 7.17566C17.6496 7.2157 17.7218 7.27129 17.7813 7.33926C17.8407 7.40723 17.8862 7.48624 17.9152 7.57179C17.9441 7.65734 17.9559 7.74774 17.9498 7.83785L17.5245 14.2105C17.4466 15.3857 17.3833 16.3353 17.2348 17.0815C17.0799 17.8561 16.8178 18.5033 16.2751 19.0102C15.7333 19.518 15.0697 19.7371 14.2859 19.8388C13.5324 19.9378 12.5809 19.9378 11.403 19.9378H10.5963C9.41843 19.9378 8.46692 19.9378 7.71342 19.8388C6.92967 19.7371 6.26601 19.518 5.72426 19.0102C5.18159 18.5033 4.91942 17.8552 4.76451 17.0815C4.61601 16.3353 4.55367 15.3857 4.47484 14.2105L4.04951 7.83785C4.04353 7.74774 4.05537 7.65734 4.08434 7.57181C4.11331 7.48628 4.15884 7.40729 4.21835 7.33936C4.27785 7.27143 4.35015 7.21589 4.43112 7.17591C4.51209 7.13593 4.60015 7.11229 4.69026 7.10635Z" fill="#030A30"/>
</svg>
