<svg width="22" height="22" viewBox="0 0 22 22" fill="none" xmlns="http://www.w3.org/2000/svg">
<path d="M5.04183 2.52051C4.37326 2.52051 3.73208 2.78609 3.25933 3.25884C2.78658 3.73159 2.521 4.37277 2.521 5.04134V7.79134C2.521 8.45991 2.78658 9.10109 3.25933 9.57384C3.73208 10.0466 4.37326 10.3122 5.04183 10.3122H7.79183C8.4604 10.3122 9.10158 10.0466 9.57433 9.57384C10.0471 9.10109 10.3127 8.45991 10.3127 7.79134V5.04134C10.3127 4.37277 10.0471 3.73159 9.57433 3.25884C9.10158 2.78609 8.4604 2.52051 7.79183 2.52051H5.04183ZM3.896 5.04134C3.896 4.40884 4.40933 3.89551 5.04183 3.89551H7.79183C8.42433 3.89551 8.93766 4.40884 8.93766 5.04134V7.79134C8.93766 8.42384 8.42433 8.93717 7.79183 8.93717H5.04183C4.40933 8.93717 3.896 8.42384 3.896 7.79134V5.04134ZM5.04183 11.6872C4.37326 11.6872 3.73208 11.9528 3.25933 12.4255C2.78658 12.8983 2.521 13.5394 2.521 14.208V16.958C2.521 17.6266 2.78658 18.2678 3.25933 18.7405C3.73208 19.2133 4.37326 19.4788 5.04183 19.4788H7.79183C8.4604 19.4788 9.10158 19.2133 9.57433 18.7405C10.0471 18.2678 10.3127 17.6266 10.3127 16.958V14.208C10.3127 13.5394 10.0471 12.8983 9.57433 12.4255C9.10158 11.9528 8.4604 11.6872 7.79183 11.6872H5.04183ZM3.896 14.208C3.896 13.5755 4.40933 13.0622 5.04183 13.0622H7.79183C8.42433 13.0622 8.93766 13.5755 8.93766 14.208V16.958C8.93766 17.5905 8.42433 18.1038 7.79183 18.1038H5.04183C4.40933 18.1038 3.896 17.5905 3.896 16.958V14.208ZM11.6877 5.04134C11.6877 4.37277 11.9532 3.73159 12.426 3.25884C12.8987 2.78609 13.5399 2.52051 14.2085 2.52051H16.9585C17.6271 2.52051 18.2682 2.78609 18.741 3.25884C19.2137 3.73159 19.4793 4.37277 19.4793 5.04134V7.79134C19.4793 8.45991 19.2137 9.10109 18.741 9.57384C18.2682 10.0466 17.6271 10.3122 16.9585 10.3122H14.2085C13.5399 10.3122 12.8987 10.0466 12.426 9.57384C11.9532 9.10109 11.6877 8.45991 11.6877 7.79134V5.04134ZM14.2085 3.89551C13.576 3.89551 13.0627 4.40884 13.0627 5.04134V7.79134C13.0627 8.42384 13.576 8.93717 14.2085 8.93717H16.9585C17.591 8.93717 18.1043 8.42384 18.1043 7.79134V5.04134C18.1043 4.40884 17.591 3.89551 16.9585 3.89551H14.2085ZM14.2085 11.6872C13.5399 11.6872 12.8987 11.9528 12.426 12.4255C11.9532 12.8983 11.6877 13.5394 11.6877 14.208V16.958C11.6877 17.6266 11.9532 18.2678 12.426 18.7405C12.8987 19.2133 13.5399 19.4788 14.2085 19.4788H16.9585C17.6271 19.4788 18.2682 19.2133 18.741 18.7405C19.2137 18.2678 19.4793 17.6266 19.4793 16.958V14.208C19.4793 13.5394 19.2137 12.8983 18.741 12.4255C18.2682 11.9528 17.6271 11.6872 16.9585 11.6872H14.2085ZM13.0627 14.208C13.0627 13.5755 13.576 13.0622 14.2085 13.0622H16.9585C17.591 13.0622 18.1043 13.5755 18.1043 14.208V16.958C18.1043 17.5905 17.591 18.1038 16.9585 18.1038H14.2085C13.576 18.1038 13.0627 17.5905 13.0627 16.958V14.208Z" fill="#030A30"/>
</svg>
