<svg width="22" height="22" viewBox="0 0 22 22" fill="none" xmlns="http://www.w3.org/2000/svg">
<path fill-rule="evenodd" clip-rule="evenodd" d="M5.04134 2.52051C4.37277 2.52051 3.73159 2.78609 3.25884 3.25884C2.78609 3.73159 2.52051 4.37277 2.52051 5.04134V7.79134C2.52051 8.45991 2.78609 9.10109 3.25884 9.57384C3.73159 10.0466 4.37277 10.3122 5.04134 10.3122H7.79134C8.45991 10.3122 9.10109 10.0466 9.57384 9.57384C10.0466 9.10109 10.3122 8.45991 10.3122 7.79134V5.04134C10.3122 4.37277 10.0466 3.73159 9.57384 3.25884C9.10109 2.78609 8.45991 2.52051 7.79134 2.52051H5.04134ZM5.04134 11.6872C4.37277 11.6872 3.73159 11.9528 3.25884 12.4255C2.78609 12.8983 2.52051 13.5394 2.52051 14.208V16.958C2.52051 17.6266 2.78609 18.2678 3.25884 18.7405C3.73159 19.2133 4.37277 19.4788 5.04134 19.4788H7.79134C8.45991 19.4788 9.10109 19.2133 9.57384 18.7405C10.0466 18.2678 10.3122 17.6266 10.3122 16.958V14.208C10.3122 13.5394 10.0466 12.8983 9.57384 12.4255C9.10109 11.9528 8.45991 11.6872 7.79134 11.6872H5.04134ZM11.6872 5.04134C11.6872 4.37277 11.9528 3.73159 12.4255 3.25884C12.8983 2.78609 13.5394 2.52051 14.208 2.52051H16.958C17.6266 2.52051 18.2678 2.78609 18.7405 3.25884C19.2133 3.73159 19.4788 4.37277 19.4788 5.04134V7.79134C19.4788 8.45991 19.2133 9.10109 18.7405 9.57384C18.2678 10.0466 17.6266 10.3122 16.958 10.3122H14.208C13.5394 10.3122 12.8983 10.0466 12.4255 9.57384C11.9528 9.10109 11.6872 8.45991 11.6872 7.79134V5.04134ZM14.208 11.6872C13.5394 11.6872 12.8983 11.9528 12.4255 12.4255C11.9528 12.8983 11.6872 13.5394 11.6872 14.208V16.958C11.6872 17.6266 11.9528 18.2678 12.4255 18.7405C12.8983 19.2133 13.5394 19.4788 14.208 19.4788H16.958C17.6266 19.4788 18.2678 19.2133 18.7405 18.7405C19.2133 18.2678 19.4788 17.6266 19.4788 16.958V14.208C19.4788 13.5394 19.2133 12.8983 18.7405 12.4255C18.2678 11.9528 17.6266 11.6872 16.958 11.6872H14.208Z" fill="#FFCE38"/>
</svg>
