<svg width="22" height="22" viewBox="0 0 22 22" fill="none" xmlns="http://www.w3.org/2000/svg">
<path d="M8.73858 10.2211C8.42575 10.5344 8.25003 10.959 8.25 11.4018V13.7503H10.6132C11.0559 13.7503 11.4812 13.5743 11.7947 13.2608L18.7614 6.29044C18.9165 6.13535 19.0396 5.95122 19.1236 5.74856C19.2075 5.5459 19.2507 5.32868 19.2507 5.10932C19.2507 4.88996 19.2075 4.67274 19.1236 4.47008C19.0396 4.26742 18.9165 4.08329 18.7614 3.92819L18.073 3.23978C17.9179 3.08451 17.7337 2.96133 17.531 2.8773C17.3282 2.79326 17.1109 2.75 16.8914 2.75C16.6719 2.75 16.4546 2.79326 16.2519 2.8773C16.0491 2.96133 15.8649 3.08451 15.7098 3.23978L8.73858 10.2211Z" stroke="#030A30" stroke-width="1.375" stroke-linecap="round" stroke-linejoin="round"/>
<path d="M19.25 11C19.25 14.8894 19.25 16.8337 18.0418 18.0418C16.8337 19.25 14.8885 19.25 11 19.25C7.11058 19.25 5.16633 19.25 3.95817 18.0418C2.75 16.8337 2.75 14.8885 2.75 11C2.75 7.11058 2.75 5.16633 3.95817 3.95817C5.16633 2.75 7.1115 2.75 11 2.75" stroke="#030A30" stroke-width="1.375" stroke-linecap="round" stroke-linejoin="round"/>
</svg>
