<svg width="23" height="31" viewBox="0 0 23 31" fill="none" xmlns="http://www.w3.org/2000/svg">
<path d="M7.18511 25.4043C7.18511 24.97 7.29154 24.5784 7.5044 24.2293C7.71725 23.8802 7.99822 23.5992 8.3473 23.3864C8.7049 23.1735 9.09656 23.0671 9.52227 23.0671C9.95649 23.0671 10.3481 23.1735 10.6972 23.3864C11.0548 23.5992 11.3401 23.8802 11.5529 24.2293C11.7658 24.5784 11.8722 24.97 11.8722 25.4043C11.8722 25.83 11.7658 26.2216 11.5529 26.5792C11.3401 26.9368 11.0548 27.2178 10.6972 27.4221C10.3481 27.635 9.95649 27.7414 9.52227 27.7414C9.09656 27.7414 8.7049 27.635 8.3473 27.4221C7.99822 27.2178 7.71725 26.9368 7.5044 26.5792C7.29154 26.2216 7.18511 25.83 7.18511 25.4043ZM13.2643 8.48224C13.5282 8.48224 13.7666 8.41838 13.9795 8.29067C14.2008 8.15444 14.3754 7.9799 14.5031 7.76705C14.6393 7.54568 14.7074 7.30302 14.7074 7.03908C14.7074 6.76663 14.6393 6.52397 14.5031 6.31112C14.3754 6.08975 14.2008 5.9152 13.9795 5.78749C13.7666 5.65126 13.5282 5.58315 13.2643 5.58315C13.0003 5.58315 12.7577 5.65126 12.5363 5.78749C12.3149 5.9152 12.1404 6.08975 12.0127 6.31112C11.885 6.52397 11.8211 6.76663 11.8211 7.03908C11.8211 7.30302 11.885 7.54568 12.0127 7.76705C12.1404 7.9799 12.3149 8.15444 12.5363 8.29067C12.7577 8.41838 13.0003 8.48224 13.2643 8.48224ZM17.1595 11.5857C17.1595 11.7134 17.2021 11.8241 17.2872 11.9177C17.3809 12.0029 17.4916 12.0454 17.6193 12.0454C17.747 12.0454 17.8534 12.0029 17.9386 11.9177C18.0322 11.8241 18.0791 11.7134 18.0791 11.5857C18.0791 10.9897 17.9343 10.4533 17.6448 9.97649C17.3554 9.49118 16.968 9.10378 16.4826 8.8143C15.9973 8.52481 15.4609 8.38007 14.8735 8.38007C14.7457 8.38007 14.6351 8.4269 14.5414 8.52056C14.4563 8.6057 14.4137 8.71213 14.4137 8.83984C14.4137 8.96755 14.4563 9.07824 14.5414 9.17189C14.6351 9.25704 14.7457 9.29961 14.8735 9.29961C15.5035 9.29961 16.0399 9.52523 16.4826 9.97649C16.9339 10.4192 17.1595 10.9556 17.1595 11.5857ZM12.0765 18.1885C12.0425 18.4183 11.936 18.6099 11.7573 18.7632C11.5785 18.9164 11.3741 18.993 11.1442 18.993C10.9569 18.993 10.7951 19.0612 10.6589 19.1974C10.5227 19.3336 10.4546 19.4954 10.4546 19.6827C10.4546 19.8785 10.5227 20.0446 10.6589 20.1808C10.7951 20.3085 10.9569 20.3724 11.1442 20.3724C11.7232 20.3724 12.2298 20.1808 12.664 19.7976C13.0982 19.4145 13.3579 18.9377 13.4431 18.3673C13.4686 18.1799 13.4218 18.0097 13.3026 17.8564C13.1919 17.7031 13.0386 17.6137 12.8428 17.5882C12.6555 17.5627 12.4852 17.6095 12.332 17.7287C12.1872 17.8394 12.1021 17.9926 12.0765 18.1885ZM14.0305 12.4924C13.7496 12.4924 13.4984 12.5776 13.277 12.7479C13.0642 12.9096 12.9152 13.114 12.83 13.3609C12.7704 13.5482 12.6555 13.6844 12.4852 13.7696C12.3149 13.8547 12.1404 13.8675 11.9616 13.8079C11.7828 13.7483 11.6466 13.6333 11.5529 13.4631C11.4678 13.2928 11.455 13.114 11.5146 12.9267C11.6934 12.3988 12.0084 11.9646 12.4597 11.624C12.9194 11.2834 13.4431 11.1131 14.0305 11.1131C14.5925 11.1131 15.0948 11.2706 15.5376 11.5857C15.9888 11.8922 16.3081 12.2924 16.4954 12.7862C16.5635 12.965 16.5593 13.1438 16.4826 13.3226C16.4145 13.4929 16.2911 13.6121 16.1123 13.6802C15.9335 13.7483 15.7547 13.744 15.5759 13.6674C15.4056 13.5908 15.2864 13.4673 15.2183 13.297C15.1246 13.0586 14.9714 12.8671 14.7585 12.7223C14.5457 12.5691 14.303 12.4924 14.0305 12.4924ZM13.5197 2.40309C15.512 3.34817 17.2064 4.67638 18.6027 6.38774C19.999 8.0991 20.9611 10.0233 21.489 12.1604C22.0254 14.306 22.0722 16.4601 21.6295 18.6227C21.1953 20.7853 20.3183 22.7521 18.9986 24.523C17.6704 26.2855 16.0314 27.6861 14.0816 28.7248C12.1319 29.755 10.0544 30.317 7.84922 30.4106C5.64404 30.5043 3.524 30.1254 1.4891 29.274C1.04636 29.0867 0.69302 28.7929 0.429079 28.3927C0.165138 27.9926 0.0289105 27.5498 0.0203963 27.0645C0.0203963 26.5877 0.152367 26.1493 0.416308 25.7491C0.671734 25.3404 1.02082 25.0424 1.46356 24.8551C2.7492 24.2932 3.88585 23.5184 4.8735 22.5307C6.02292 21.3728 6.86157 20.0233 7.38945 18.4822L7.22343 18.3034C6.95949 18.048 6.75515 17.7542 6.6104 17.4222C6.46566 17.0816 6.39329 16.7283 6.39329 16.3622C6.39329 15.6129 6.65723 14.9658 7.18511 14.4209C7.25323 14.3528 7.32134 14.2889 7.38945 14.2293C7.46608 14.1612 7.54697 14.0931 7.63211 14.025C7.63211 14.0165 7.63637 14.008 7.64488 13.9995C7.69597 13.9569 7.75131 13.9143 7.81091 13.8717C7.87051 13.8207 7.91734 13.7738 7.95139 13.7313C7.94288 13.5354 7.93011 13.3396 7.91308 13.1438C7.87902 12.9054 7.83219 12.6414 7.77259 12.352L7.75982 12.3264C7.4448 10.862 6.85732 9.52098 5.99738 8.30344C5.25664 7.25619 4.35839 6.37071 3.30263 5.64701C2.90246 5.37455 2.60872 5.0127 2.42141 4.56144C2.24261 4.1187 2.20004 3.65894 2.29369 3.18214C2.38735 2.71386 2.60446 2.30943 2.94503 1.96886C3.27709 1.62829 3.67725 1.40692 4.14554 1.30475C5.15873 1.0919 6.18044 0.98547 7.21066 0.98547C9.41584 0.98547 11.5189 1.45801 13.5197 2.40309ZM5.93352 2.8884C5.45673 2.93097 4.98844 3.00334 4.52868 3.10551C4.41799 3.13105 4.32434 3.1864 4.24771 3.27154C4.17108 3.34817 4.12425 3.44182 4.10722 3.55251C4.08168 3.66319 4.09019 3.76962 4.13277 3.87179C4.17534 3.97396 4.24345 4.0591 4.33711 4.12722C5.58018 4.97013 6.63595 6.0046 7.5044 7.23065C8.50907 8.66104 9.19447 10.2277 9.56058 11.9305L9.57335 11.956C9.64147 12.2711 9.69681 12.5946 9.73938 12.9267C9.77344 13.2332 9.79472 13.5439 9.80324 13.859C9.76918 14.1825 9.66701 14.4805 9.49672 14.753C9.31793 15.0254 9.0923 15.2468 8.81984 15.4171C8.76024 15.4682 8.70064 15.5192 8.64105 15.5703C8.58996 15.6129 8.54313 15.6597 8.50056 15.7108C8.33028 15.8896 8.24513 16.1025 8.24513 16.3494C8.24513 16.6048 8.33453 16.8177 8.51333 16.9879L9.47118 17.9458C8.91776 20.2106 7.81942 22.1689 6.17618 23.8206C5.02676 24.9785 3.7028 25.8811 2.20429 26.5281C2.10212 26.5707 2.02124 26.6388 1.96164 26.7325C1.89352 26.8261 1.85947 26.9326 1.85947 27.0518C1.85947 27.1624 1.89352 27.2646 1.96164 27.3583C2.02124 27.4519 2.10212 27.5243 2.20429 27.5754C3.98377 28.3246 5.83987 28.6567 7.77259 28.5715C9.70532 28.4949 11.5274 28.0054 13.2387 27.1028C14.9501 26.2003 16.3847 24.9743 17.5427 23.4247C18.3004 22.4115 18.8964 21.3089 19.3306 20.1169C18.4963 20.0488 17.7938 19.7082 17.2234 19.0952C16.6529 18.4822 16.3677 17.75 16.3677 16.8985C16.3677 16.3111 16.5124 15.7747 16.8019 15.2894C17.0914 14.7955 17.4788 14.4039 17.9641 14.1144C18.4494 13.8249 18.9901 13.6802 19.5861 13.6802C19.7053 13.6802 19.8287 13.6887 19.9564 13.7057C19.8968 13.3396 19.8202 12.9735 19.7266 12.6074C19.2583 10.7343 18.4154 9.04844 17.1978 7.54993C15.9718 6.05143 14.4861 4.88924 12.7406 4.06336C12.5108 3.95268 12.2851 3.85476 12.0638 3.76962C11.8083 4.33156 11.4167 4.78707 10.8888 5.13615C10.3694 5.48524 9.78195 5.65978 9.12636 5.65978C8.30899 5.65978 7.59805 5.39584 6.99354 4.86795C6.39755 4.33156 6.04421 3.67171 5.93352 2.8884Z" fill="#FFCE38"/>
</svg>
