<svg width="26" height="25" viewBox="0 0 26 25" fill="none" xmlns="http://www.w3.org/2000/svg">
<path d="M5.62575 1.50652C5.80455 1.12338 6.07274 0.872212 6.43034 0.753013C6.79645 0.625299 7.15831 0.625299 7.51591 0.753013C7.88202 0.880726 8.15447 1.1319 8.33327 1.50652C8.43544 1.72789 8.59721 1.87689 8.81858 1.95352C9.04846 2.02163 9.26983 2.00035 9.48269 1.88966L9.73812 1.74918C10.0787 1.57038 10.415 1.53206 10.7471 1.63423C11.0791 1.73641 11.343 1.93223 11.5389 2.22172C11.7347 2.50268 11.7986 2.83048 11.7304 3.20511L11.6666 3.48608C11.624 3.72448 11.6708 3.94159 11.8071 4.13742C11.9518 4.32473 12.1391 4.43541 12.369 4.46947L12.6628 4.50778C13.0459 4.55887 13.3439 4.72915 13.5567 5.01864C13.7696 5.30812 13.8675 5.61889 13.8505 5.95094C15.1361 6.3426 16.226 7.04502 17.1199 8.05821C18.2268 8.00713 19.3209 8.17741 20.4022 8.56907C21.4835 8.95221 22.4498 9.56097 23.3013 10.3954C24.3145 11.383 25.0169 12.5197 25.4085 13.8053C25.8087 15.091 25.8981 16.3979 25.6767 17.7261C25.4554 19.0458 24.9275 20.2506 24.0931 21.3404C23.3949 22.3195 22.4967 23.1028 21.3983 23.6903C20.3 24.2863 19.1038 24.5843 17.8096 24.5843H6.12383C5.15321 24.5843 4.25496 24.3715 3.42908 23.9458C2.6032 23.52 1.9178 22.9496 1.37289 22.2344C0.964212 21.7235 0.644929 21.1531 0.415045 20.523C0.185161 19.8845 0.0702187 19.2161 0.0702187 18.5179C0.0702187 17.4622 0.321388 16.4916 0.823727 15.6061C1.33458 14.7206 2.0072 14.0139 2.8416 13.486C2.61171 13.3498 2.43292 13.154 2.3052 12.8985C2.17749 12.6431 2.14343 12.3622 2.20303 12.0556L2.25412 11.7747C2.29669 11.5448 2.24986 11.3362 2.11363 11.1489C1.9774 10.953 1.79009 10.8381 1.55169 10.8041L1.25795 10.7657C0.874813 10.7147 0.576815 10.5529 0.363959 10.2804C0.159618 9.99946 0.0617045 9.68443 0.0702187 9.33535C0.0787329 8.98626 0.223475 8.67975 0.504444 8.41581L0.721557 8.21147C0.891841 8.0497 0.976983 7.84962 0.976983 7.61122C0.976983 7.37282 0.891841 7.17274 0.721557 7.01097L0.504444 6.80662C0.231989 6.54268 0.0915042 6.23617 0.08299 5.88709C0.0744758 5.538 0.176646 5.22724 0.389502 4.95478C0.602358 4.68233 0.900355 4.52056 1.2835 4.46947L1.57724 4.43116C1.80712 4.3971 1.99018 4.28641 2.1264 4.0991C2.27114 3.90327 2.32223 3.69042 2.27966 3.46053L2.22857 3.17957C2.16046 2.80494 2.22432 2.47289 2.42014 2.1834C2.62449 1.89392 2.89268 1.70235 3.22474 1.60869C3.55679 1.50652 3.88885 1.54909 4.2209 1.73641L4.47633 1.87689C4.68918 1.98757 4.9063 2.00886 5.12767 1.94075C5.35755 1.86412 5.52358 1.71938 5.62575 1.50652ZM11.9731 5.6572C11.5814 4.65253 10.9301 3.8309 10.0191 3.19234C9.10806 2.54526 8.0821 2.22172 6.9412 2.22172C5.94503 2.22172 5.03401 2.46437 4.20813 2.94968C3.39076 3.43499 2.73943 4.09059 2.25412 4.91647C1.76881 5.73383 1.52615 6.6406 1.52615 7.63676C1.52615 8.71807 1.81563 9.6972 2.3946 10.5742C2.97357 11.4511 3.72708 12.1067 4.65513 12.541C4.6977 11.2638 5.04252 10.1059 5.6896 9.06715C6.33669 8.0199 7.19236 7.18976 8.25664 6.57674C9.32092 5.96372 10.4959 5.6572 11.7815 5.6572C11.8496 5.6572 11.9135 5.6572 11.9731 5.6572Z" fill="#FFCE38"/>
</svg>
