<svg width="14" height="18" viewBox="0 0 14 18" fill="none" xmlns="http://www.w3.org/2000/svg">
<path d="M3.87492 1.85412H2.66659C2.34612 1.85412 2.03877 1.98142 1.81216 2.20803C1.58556 2.43464 1.45825 2.74198 1.45825 3.06245V15.1458C1.45825 15.4663 1.58556 15.7736 1.81216 16.0002C2.03877 16.2268 2.34612 16.3541 2.66659 16.3541H3.87492C4.19539 16.3541 4.50273 16.2268 4.72934 16.0002C4.95595 15.7736 5.08325 15.4663 5.08325 15.1458V3.06245C5.08325 2.74198 4.95595 2.43464 4.72934 2.20803C4.50273 1.98142 4.19539 1.85412 3.87492 1.85412ZM11.7291 1.85412H10.5208C10.2003 1.85412 9.89294 1.98142 9.66633 2.20803C9.43973 2.43464 9.31242 2.74198 9.31242 3.06245V15.1458C9.31242 15.4663 9.43973 15.7736 9.66633 16.0002C9.89294 16.2268 10.2003 16.3541 10.5208 16.3541H11.7291C12.0496 16.3541 12.3569 16.2268 12.5835 16.0002C12.8101 15.7736 12.9374 15.4663 12.9374 15.1458V3.06245C12.9374 2.74198 12.8101 2.43464 12.5835 2.20803C12.3569 1.98142 12.0496 1.85412 11.7291 1.85412Z" stroke="#59A7F2" stroke-width="1.8125" stroke-linecap="round" stroke-linejoin="round"/>
</svg>
