<svg width="29" height="15" viewBox="0 0 29 15" fill="none" xmlns="http://www.w3.org/2000/svg">
<rect y="0.375977" width="29" height="14" rx="7" fill="#FFCE38"/>
<g clip-path="url(#clip0_2114_1257)">
<path fill-rule="evenodd" clip-rule="evenodd" d="M7.00022 11.2649C7.51091 11.2649 8.01661 11.1651 8.48843 10.9714C8.96025 10.7776 9.38896 10.4936 9.75008 10.1356C10.1112 9.77763 10.3976 9.35261 10.5931 8.88485C10.7885 8.41709 10.8891 7.91575 10.8891 7.40944C10.8891 6.90314 10.7885 6.4018 10.5931 5.93404C10.3976 5.46628 10.1112 5.04126 9.75008 4.68325C9.38896 4.32524 8.96025 4.04125 8.48843 3.8475C8.01661 3.65375 7.51091 3.55402 7.00022 3.55402C5.96882 3.55402 4.97967 3.96022 4.25036 4.68325C3.52105 5.40628 3.11133 6.38692 3.11133 7.40944C3.11133 8.43197 3.52105 9.41261 4.25036 10.1356C4.97967 10.8587 5.96882 11.2649 7.00022 11.2649ZM7.00022 5.37464C7.08617 5.37464 7.1686 5.40849 7.22937 5.46874C7.29015 5.52899 7.32429 5.61071 7.32429 5.69592V7.40944C7.32429 7.49465 7.29015 7.57637 7.22937 7.63663C7.1686 7.69688 7.08617 7.73073 7.00022 7.73073C6.91427 7.73073 6.83184 7.69688 6.77106 7.63663C6.71029 7.57637 6.67614 7.49465 6.67614 7.40944V5.69592C6.67614 5.61071 6.71029 5.52899 6.77106 5.46874C6.83184 5.40849 6.91427 5.37464 7.00022 5.37464ZM5.81195 2.69726C5.81195 2.61205 5.84609 2.53033 5.90686 2.47008C5.96764 2.40983 6.05007 2.37598 6.13602 2.37598H7.86441C7.95036 2.37598 8.03279 2.40983 8.09357 2.47008C8.15435 2.53033 8.18849 2.61205 8.18849 2.69726C8.18849 2.78247 8.15435 2.86419 8.09357 2.92444C8.03279 2.9847 7.95036 3.01855 7.86441 3.01855H6.13602C6.05007 3.01855 5.96764 2.9847 5.90686 2.92444C5.84609 2.86419 5.81195 2.78247 5.81195 2.69726Z" fill="white"/>
</g>
<circle cx="15" cy="7.37598" r="1" fill="white"/>
<path d="M25.7499 6.7838C25.8557 6.84207 25.944 6.92767 26.0054 7.03168C26.0669 7.13569 26.0993 7.25428 26.0993 7.3751C26.0993 7.49591 26.0669 7.61451 26.0054 7.71852C25.944 7.82252 25.8557 7.90813 25.7499 7.9664L21.2499 10.4405C21.1471 10.4969 21.0314 10.5256 20.9141 10.5237C20.7969 10.5219 20.6821 10.4895 20.5812 10.4297C20.4803 10.37 20.3967 10.285 20.3386 10.1831C20.2805 10.0813 20.25 9.96602 20.25 9.84875V4.90145C20.25 4.78415 20.2806 4.66889 20.3387 4.56701C20.3969 4.46514 20.4806 4.38017 20.5815 4.32048C20.6825 4.2608 20.7973 4.22846 20.9146 4.22664C21.0318 4.22483 21.1476 4.25361 21.2503 4.31015L25.7499 6.7838Z" fill="white"/>
<defs>
<clipPath id="clip0_2114_1257">
<rect width="10" height="10" fill="white" transform="translate(2 2.37598)"/>
</clipPath>
</defs>
</svg>
