<svg width="18" height="17" viewBox="0 0 18 17" fill="none" xmlns="http://www.w3.org/2000/svg">
<path d="M9 0.74707C7.39303 0.74707 5.82214 1.22359 4.486 2.11638C3.14985 3.00917 2.10844 4.27812 1.49348 5.76277C0.87852 7.24742 0.717618 8.88108 1.03112 10.4572C1.34463 12.0333 2.11846 13.481 3.25476 14.6173C4.39106 15.7536 5.8388 16.5274 7.4149 16.841C8.99099 17.1545 10.6247 16.9936 12.1093 16.3786C13.594 15.7636 14.8629 14.7222 15.7557 13.3861C16.6485 12.0499 17.125 10.479 17.125 8.87207C17.1227 6.71788 16.266 4.65258 14.7427 3.12934C13.2195 1.6061 11.1542 0.749345 9 0.74707ZM12.5672 7.43926L8.19219 11.8143C8.13415 11.8724 8.06522 11.9185 7.98934 11.9499C7.91347 11.9814 7.83214 11.9976 7.75 11.9976C7.66787 11.9976 7.58654 11.9814 7.51067 11.9499C7.43479 11.9185 7.36586 11.8724 7.30782 11.8143L5.43282 9.93926C5.31554 9.82198 5.24966 9.66292 5.24966 9.49707C5.24966 9.33122 5.31554 9.17216 5.43282 9.05488C5.55009 8.93761 5.70915 8.87172 5.875 8.87172C6.04086 8.87172 6.19992 8.93761 6.31719 9.05488L7.75 10.4885L11.6828 6.55488C11.7409 6.49681 11.8098 6.45075 11.8857 6.41932C11.9616 6.3879 12.0429 6.37172 12.125 6.37172C12.2071 6.37172 12.2884 6.3879 12.3643 6.41932C12.4402 6.45075 12.5091 6.49681 12.5672 6.55488C12.6253 6.61295 12.6713 6.68189 12.7027 6.75776C12.7342 6.83363 12.7504 6.91495 12.7504 6.99707C12.7504 7.07919 12.7342 7.16051 12.7027 7.23638C12.6713 7.31225 12.6253 7.38119 12.5672 7.43926Z" fill="#59A7F2"/>
</svg>
