<svg width="27" height="27" viewBox="0 0 27 27" fill="none" xmlns="http://www.w3.org/2000/svg">
<path d="M6.75346 9.72616C6.75346 9.09611 6.97483 8.55971 7.41757 8.11697C7.86882 7.66572 8.40948 7.44009 9.03953 7.44009C9.16724 7.44009 9.27367 7.39752 9.35881 7.31238C9.45247 7.21872 9.4993 7.10804 9.4993 6.98032C9.4993 6.85261 9.45247 6.74618 9.35881 6.66104C9.27367 6.56738 9.16724 6.52056 9.03953 6.52056C8.45205 6.52056 7.91565 6.6653 7.43034 6.95478C6.94503 7.24426 6.55763 7.63166 6.26815 8.11697C5.97867 8.59377 5.83393 9.13016 5.83393 9.72616C5.83393 9.85387 5.8765 9.96456 5.96164 10.0582C6.0553 10.1434 6.16598 10.1859 6.29369 10.1859C6.42141 10.1859 6.52783 10.1434 6.61298 10.0582C6.70663 9.96456 6.75346 9.85387 6.75346 9.72616ZM10.24 15.3072C10.1038 15.171 9.94204 15.1029 9.75472 15.1029C9.56741 15.1029 9.40564 15.171 9.26941 15.3072C9.13319 15.4435 9.06507 15.6052 9.06507 15.7925C9.06507 15.9799 9.13319 16.1416 9.26941 16.2779C10.1123 17.1208 11.0829 17.6827 12.1813 17.9637C13.2881 18.2446 14.3907 18.2446 15.4891 17.9637C16.5959 17.6827 17.5665 17.1208 18.4009 16.2779C18.5371 16.1416 18.6053 15.9799 18.6053 15.7925C18.6053 15.6052 18.5371 15.4435 18.4009 15.3072C18.2732 15.171 18.1114 15.1029 17.9156 15.1029C17.7283 15.1029 17.5665 15.171 17.4303 15.3072C16.7662 15.9713 15.9999 16.4141 15.1315 16.6355C14.2715 16.8483 13.4073 16.8483 12.5389 16.6355C11.6704 16.4141 10.9041 15.9713 10.24 15.3072ZM18.1327 6.98032C18.1327 6.85261 18.1795 6.74618 18.2732 6.66104C18.3669 6.56738 18.4775 6.52056 18.6053 6.52056C19.1927 6.52056 19.7249 6.6653 20.2017 6.95478C20.687 7.24426 21.0744 7.63166 21.3639 8.11697C21.6533 8.60228 21.7981 9.13868 21.7981 9.72616C21.7981 9.85387 21.7513 9.96456 21.6576 10.0582C21.5725 10.1434 21.466 10.1859 21.3383 10.1859C21.2106 10.1859 21.0999 10.1434 21.0063 10.0582C20.9211 9.96456 20.8786 9.85387 20.8786 9.72616C20.8786 9.09611 20.6529 8.55971 20.2017 8.11697C19.7589 7.66572 19.2268 7.44009 18.6053 7.44009C18.4775 7.44009 18.3669 7.39752 18.2732 7.31238C18.1795 7.21872 18.1327 7.10804 18.1327 6.98032ZM8.70748 11.4375C8.80113 11.2076 8.95439 11.0203 9.16724 10.8756C9.3801 10.7223 9.62275 10.6457 9.89521 10.6457C10.1762 10.6457 10.4231 10.7266 10.6359 10.8884C10.8573 11.0501 11.0106 11.2587 11.0957 11.5141C11.1553 11.6929 11.2703 11.8292 11.4405 11.9228C11.6108 12.008 11.7854 12.0207 11.9642 11.9611C12.143 11.9015 12.2749 11.7866 12.3601 11.6163C12.4537 11.446 12.4708 11.2672 12.4112 11.0799C12.2324 10.552 11.9131 10.1178 11.4533 9.77724C11.0021 9.43668 10.4827 9.26639 9.89521 9.26639C9.33327 9.26639 8.82667 9.4239 8.37542 9.73893C7.93268 10.0454 7.61765 10.4456 7.43034 10.9394C7.36223 11.1182 7.36223 11.297 7.43034 11.4758C7.50697 11.6461 7.63468 11.7653 7.81348 11.8334C7.99228 11.9015 8.16682 11.8973 8.33711 11.8207C8.51591 11.744 8.63936 11.6163 8.70748 11.4375ZM17.8262 10.6457C17.5538 10.6457 17.3111 10.7223 17.0982 10.8756C16.8854 11.0203 16.7364 11.2076 16.6512 11.4375C16.5746 11.6163 16.4469 11.744 16.2681 11.8207C16.0978 11.8973 15.9275 11.9015 15.7573 11.8334C15.5785 11.7653 15.4507 11.6461 15.3741 11.4758C15.2975 11.297 15.2932 11.1182 15.3613 10.9394C15.5572 10.4456 15.8764 10.0454 16.3192 9.73893C16.7619 9.4239 17.2643 9.26639 17.8262 9.26639C18.4137 9.26639 18.9331 9.43668 19.3843 9.77724C19.8441 10.1178 20.1634 10.552 20.3422 11.0799C20.4018 11.2672 20.389 11.446 20.3038 11.6163C20.2187 11.7866 20.0867 11.9015 19.9079 11.9611C19.7206 12.0207 19.5418 12.008 19.3715 11.9228C19.2013 11.8292 19.0863 11.6929 19.0267 11.5141C18.9416 11.2587 18.7883 11.0501 18.5669 10.8884C18.3541 10.7266 18.1072 10.6457 17.8262 10.6457ZM11.2617 2.45927C11.5087 1.91436 11.8577 1.50568 12.309 1.23322C12.7688 0.960769 13.2583 0.820284 13.7777 0.81177C14.2971 0.803256 14.7866 0.930969 15.2464 1.19491C15.7147 1.45034 16.0808 1.84199 16.3447 2.36987C16.5406 2.77004 16.8471 3.03398 17.2643 3.1617C17.69 3.28941 18.0987 3.24684 18.4903 3.03398L18.9629 2.76578C19.4311 2.50184 19.9037 2.39116 20.3805 2.43373C20.8658 2.46779 21.3 2.62104 21.6831 2.8935C22.0748 3.16595 22.3685 3.52355 22.5644 3.96629C22.7687 4.40051 22.8283 4.88157 22.7432 5.40945L22.6538 5.94585C22.5771 6.38858 22.6708 6.78875 22.9347 7.14635C23.2072 7.49543 23.5648 7.69552 24.0075 7.7466L24.5439 7.81046C25.0803 7.87006 25.5273 8.05737 25.8849 8.3724C26.251 8.68742 26.5107 9.07056 26.664 9.52182C26.8172 9.96456 26.847 10.4243 26.7534 10.9011C26.6597 11.3694 26.4213 11.7909 26.0382 12.1655L25.6423 12.5486C25.3272 12.8551 25.1697 13.234 25.1697 13.6853C25.1782 14.128 25.3485 14.4984 25.6806 14.7964L26.0765 15.1667C26.4767 15.5329 26.7321 15.9501 26.8428 16.4183C26.9535 16.8866 26.9364 17.3464 26.7917 17.7976C26.6555 18.2489 26.4085 18.6363 26.0509 18.9598C25.7019 19.2834 25.2634 19.4835 24.7355 19.5601L24.1863 19.6495C23.7521 19.7176 23.4073 19.9347 23.1519 20.3008C22.8964 20.6584 22.8113 21.0543 22.8964 21.4886L23.0114 22.0377C23.1135 22.5656 23.071 23.0509 22.8837 23.4937C22.6963 23.9364 22.4154 24.2982 22.0407 24.5792C21.6661 24.8602 21.2362 25.0262 20.7508 25.0773C20.274 25.1369 19.7972 25.0432 19.3205 24.7963L18.8351 24.5409C18.4435 24.328 18.0348 24.294 17.6091 24.4387C17.1919 24.5835 16.8939 24.8602 16.7151 25.2689C16.4682 25.8053 16.1148 26.2097 15.6551 26.4821C15.2038 26.7546 14.7185 26.8951 14.1991 26.9036C13.6798 26.9121 13.186 26.7844 12.7177 26.5205C12.2579 26.265 11.8961 25.8734 11.6321 25.3455C11.4363 24.9538 11.1255 24.6899 10.6998 24.5537C10.2741 24.426 9.86967 24.4685 9.48653 24.6814L9.01399 24.9496C8.5457 25.2135 8.06891 25.3242 7.5836 25.2816C7.1068 25.2476 6.67258 25.0943 6.28092 24.8219C5.89778 24.5494 5.60404 24.1918 5.3997 23.7491C5.20387 23.3149 5.15279 22.8338 5.24644 22.3059L5.33584 21.7568C5.41247 21.3225 5.31456 20.9266 5.0421 20.569C4.77816 20.2114 4.42482 20.0071 3.98208 19.956L3.43292 19.8921C2.90503 19.8325 2.45804 19.6452 2.09193 19.3302C1.72581 19.0152 1.46613 18.6363 1.31287 18.1936C1.15962 17.7423 1.12982 17.2825 1.22347 16.8142C1.32565 16.346 1.5683 15.9245 1.95144 15.5499L2.34735 15.154C2.66238 14.8475 2.81563 14.4728 2.80712 14.0301C2.79861 13.5874 2.63258 13.2127 2.30904 12.9062L1.90036 12.5486C1.5087 12.1825 1.25753 11.7653 1.14685 11.297C1.03616 10.8288 1.04893 10.369 1.18516 9.91773C1.32139 9.46648 1.5683 9.07908 1.9259 8.75554C2.2835 8.42348 2.72623 8.21914 3.25412 8.14251L3.80328 8.06589C4.23751 7.99777 4.58233 7.78492 4.83776 7.42732C5.09319 7.06121 5.17407 6.65678 5.08042 6.21404L4.97825 5.69042C4.86756 5.16254 4.90588 4.67723 5.09319 4.23449C5.2805 3.78323 5.56147 3.41712 5.9361 3.13615C6.31924 2.85518 6.7492 2.68916 7.226 2.63807C7.7028 2.57847 8.17959 2.67213 8.65639 2.91904L9.1417 3.18724C9.53335 3.38306 9.93778 3.41286 10.355 3.27664C10.7722 3.1319 11.0744 2.85944 11.2617 2.45927ZM13.9565 23.979C15.3528 23.979 16.6598 23.715 17.8773 23.1871C19.1033 22.6678 20.1804 21.9441 21.1084 21.016C22.0365 20.088 22.7602 19.0109 23.2796 17.7849C23.8074 16.5588 24.0714 15.2476 24.0714 13.8513C24.0714 12.455 23.8074 11.1438 23.2796 9.91773C22.7602 8.69168 22.0365 7.61463 21.1084 6.68658C20.1804 5.75853 19.1033 5.03482 17.8773 4.51546C16.6598 3.98757 15.3528 3.72363 13.9565 3.72363C12.5516 3.72363 11.2362 3.98757 10.0102 4.51546C8.79262 5.03482 7.71983 5.75853 6.79178 6.68658C5.86373 7.61463 5.13576 8.69168 4.60788 9.91773C4.08851 11.1438 3.82883 12.455 3.82883 13.8513C3.82883 15.2476 4.08851 16.5588 4.60788 17.7849C5.13576 19.0109 5.86373 20.088 6.79178 21.016C7.71983 21.9441 8.79262 22.6678 10.0102 23.1871C11.2362 23.715 12.5516 23.979 13.9565 23.979Z" fill="#FFCE38"/>
</svg>
