<svg width="22" height="22" viewBox="0 0 22 22" fill="none" xmlns="http://www.w3.org/2000/svg">
<path d="M8.25 15.8125C8.06766 15.8125 7.8928 15.8849 7.76386 16.0139C7.63493 16.1428 7.5625 16.3177 7.5625 16.5C7.5625 16.6823 7.63493 16.8572 7.76386 16.9861C7.8928 17.1151 8.06766 17.1875 8.25 17.1875H13.75C13.9323 17.1875 14.1072 17.1151 14.2361 16.9861C14.3651 16.8572 14.4375 16.6823 14.4375 16.5C14.4375 16.3177 14.3651 16.1428 14.2361 16.0139C14.1072 15.8849 13.9323 15.8125 13.75 15.8125H8.25Z" fill="#030A30"/>
<path fill-rule="evenodd" clip-rule="evenodd" d="M11 1.14583C10.3355 1.14583 9.72863 1.32916 9.06588 1.63808C8.42238 1.93783 7.67988 2.38058 6.74855 2.93516L5.41388 3.72991C4.38813 4.34133 3.57138 4.82808 2.95172 5.29375C2.3128 5.77499 1.83338 6.26999 1.52172 6.92174C1.20822 7.57349 1.12388 8.25641 1.15047 9.05299C1.17705 9.82391 1.3118 10.7617 1.48047 11.9368L1.74905 13.7995C1.9663 15.312 2.13955 16.5119 2.39713 17.446C2.66297 18.4085 3.04063 19.1739 3.72172 19.7597C4.40188 20.3463 5.21588 20.6076 6.21138 20.7332C7.17938 20.8542 8.39947 20.8542 9.93855 20.8542H12.0615C13.6015 20.8542 14.8207 20.8542 15.7887 20.7332C16.7842 20.6076 17.5982 20.3463 18.2784 19.7606C18.9595 19.1739 19.3371 18.4094 19.603 17.446C19.8605 16.511 20.0338 15.312 20.251 13.7995L20.5187 11.9368C20.6883 10.7617 20.823 9.82391 20.8487 9.05299C20.8762 8.25549 20.7919 7.57349 20.4793 6.92174C20.1667 6.26999 19.6873 5.77499 19.0484 5.29375C18.4296 4.82808 17.612 4.34133 16.5862 3.72991L15.2516 2.93516C14.3202 2.38058 13.5777 1.93783 12.9351 1.63808C12.2715 1.32824 11.6646 1.14583 11 1.14583ZM7.42138 4.13508C8.3903 3.55758 9.07413 3.15149 9.64705 2.88383C10.2053 2.62349 10.6068 2.52083 11 2.52083C11.3942 2.52083 11.7948 2.62349 12.353 2.88383C12.926 3.15149 13.6089 3.55758 14.5787 4.13508L15.8483 4.89133C16.9162 5.52749 17.6688 5.97666 18.2225 6.39283C18.7606 6.79891 19.0566 7.13441 19.24 7.51574C19.4224 7.89708 19.4985 8.33524 19.4755 9.00624C19.4517 9.69374 19.3289 10.5563 19.1529 11.7801L18.8962 13.5557C18.6707 15.1268 18.5094 16.2397 18.2775 17.0802C18.051 17.9016 17.7779 18.3773 17.3819 18.7183C16.985 19.0602 16.4707 19.2619 15.6173 19.3692C14.7456 19.4782 13.6116 19.4792 12.0148 19.4792H9.98622C8.38847 19.4792 7.25455 19.4782 6.3828 19.3692C5.5303 19.2619 5.01513 19.0602 4.61822 18.7183C4.22222 18.3773 3.94905 17.9016 3.72263 17.0802C3.49072 16.2397 3.32847 15.1268 3.10297 13.5557L2.84722 11.7801C2.67122 10.5563 2.54838 9.69283 2.52455 9.00624C2.50163 8.33524 2.57772 7.89708 2.76105 7.51574C2.94438 7.13441 3.23863 6.79891 3.77855 6.39283C4.3313 5.97666 5.08388 5.52749 6.1518 4.89133L7.42138 4.13508Z" fill="#030A30"/>
</svg>
