<svg width="27" height="25" viewBox="0 0 27 25" fill="none" xmlns="http://www.w3.org/2000/svg">
<path d="M7.50313 1.77472C7.74153 1.27238 8.10339 0.940325 8.5887 0.778555C9.07401 0.608271 9.55932 0.608271 10.0446 0.778555C10.5299 0.94884 10.8918 1.28515 11.1302 1.78749C11.2664 2.07697 11.4835 2.26854 11.7815 2.3622C12.0795 2.45586 12.369 2.43031 12.65 2.28557L12.9948 2.10677C13.4461 1.86838 13.8931 1.81729 14.3358 1.95352C14.787 2.08123 15.1404 2.33666 15.3958 2.7198C15.6598 3.09442 15.7449 3.52865 15.6512 4.02247L15.5746 4.40561C15.515 4.71213 15.5789 4.99309 15.7662 5.24852C15.9535 5.49543 16.2004 5.64018 16.5069 5.68275L16.9028 5.73383C17.4988 5.81897 17.9373 6.1042 18.2183 6.58951C18.4993 7.07482 18.5588 7.56439 18.3971 8.05821C19.2996 8.15187 20.1766 8.39027 21.028 8.77341C21.8794 9.15655 22.6542 9.68869 23.3524 10.3698C24.3655 11.3575 25.068 12.4984 25.4596 13.7925C25.8598 15.0782 25.9492 16.3851 25.7278 17.7133C25.5065 19.033 24.9786 20.2421 24.1442 21.3404C23.446 22.3195 22.5478 23.1028 21.4494 23.6903C20.3511 24.2863 19.1506 24.5843 17.8479 24.5843H6.1366C5.16598 24.5843 4.26347 24.3715 3.42908 23.9458C2.6032 23.52 1.9178 22.9453 1.37289 22.2216C0.964212 21.7108 0.644929 21.1403 0.415045 20.5103C0.185161 19.8717 0.0702187 19.2033 0.0702187 18.5052C0.0702187 17.6112 0.253274 16.781 0.619386 16.0148C0.985497 15.24 1.47507 14.5801 2.08809 14.0352C2.07106 14.0352 2.05403 14.0309 2.037 14.0224L1.65386 13.9713C1.14301 13.9032 0.747099 13.6861 0.46613 13.32C0.193675 12.9539 0.0617045 12.5452 0.0702187 12.094C0.0872471 11.6342 0.278817 11.2298 0.644929 10.8807L0.938669 10.6125C1.16855 10.3996 1.2835 10.1399 1.2835 9.83343C1.2835 9.5184 1.16855 9.25021 0.938669 9.02884L0.6577 8.76064C0.283074 8.41155 0.0915042 8.01139 0.08299 7.56013C0.0744758 7.10036 0.210703 6.68742 0.491673 6.32131C0.781156 5.9552 1.18132 5.74235 1.69218 5.68275L2.07532 5.63166C2.39034 5.58909 2.64151 5.44435 2.82883 5.19744C3.01614 4.94201 3.08425 4.66104 3.03317 4.35453L2.95654 3.97139C2.86288 3.47756 2.94803 3.04334 3.21197 2.66871C3.48442 2.28557 3.84202 2.03015 4.28476 1.90243C4.7275 1.77472 5.17449 1.83006 5.62575 2.06846L5.97057 2.26003C6.25154 2.41329 6.54103 2.44309 6.83902 2.34943C7.13702 2.24726 7.35839 2.05569 7.50313 1.77472ZM16.4303 8.09653C16.1664 7.02374 15.6896 6.06589 14.9999 5.22298C14.3103 4.38007 13.4716 3.71596 12.484 3.23065C11.4963 2.73683 10.4278 2.48991 9.27835 2.48991C8.25664 2.48991 7.29879 2.68148 6.4048 3.06462C5.51932 3.44776 4.74027 3.97565 4.06765 4.64827C3.39502 5.32089 2.86714 6.1042 2.484 6.99819C2.10086 7.88367 1.90929 8.83727 1.90929 9.85897C1.90929 10.5146 1.99018 11.1489 2.15195 11.7619C2.32223 12.3664 2.55637 12.9326 2.85437 13.4605C3.31414 13.171 3.81222 12.9496 4.34861 12.7964C4.88501 12.6346 5.44695 12.5537 6.03443 12.5537C6.077 12.5537 6.11106 12.5537 6.1366 12.5537C6.42608 11.9066 6.87308 11.383 7.47759 10.9828C8.0821 10.5827 8.76324 10.3826 9.521 10.3826C10.1681 10.3826 10.7726 10.5401 11.3345 10.8551C11.4367 10.7359 11.5389 10.621 11.641 10.5103C12.3137 9.82917 13.0587 9.28852 13.876 8.88835C14.7019 8.47967 15.5533 8.21573 16.4303 8.09653Z" fill="#FFCE38"/>
</svg>
