<svg width="130" height="50" viewBox="0 0 130 50" fill="none" xmlns="http://www.w3.org/2000/svg">
<rect width="130" height="50" rx="10" fill="#FFC01C"/>
<path d="M40.1828 30.098C39.9681 30.098 39.8048 30.042 39.6928 29.93C39.5808 29.8087 39.5248 29.6407 39.5248 29.426V21.236H36.4588C36.2814 21.236 36.1414 21.1893 36.0388 21.096C35.9361 20.9933 35.8848 20.8533 35.8848 20.676C35.8848 20.4987 35.9361 20.3633 36.0388 20.27C36.1414 20.1767 36.2814 20.13 36.4588 20.13H43.8928C44.0794 20.13 44.2194 20.1767 44.3128 20.27C44.4154 20.3633 44.4668 20.4987 44.4668 20.676C44.4668 20.8533 44.4154 20.9933 44.3128 21.096C44.2194 21.1893 44.0794 21.236 43.8928 21.236H40.8268V29.426C40.8268 29.6407 40.7708 29.8087 40.6588 29.93C40.5561 30.042 40.3974 30.098 40.1828 30.098ZM47.5226 30.126C46.7853 30.126 46.1506 29.986 45.6186 29.706C45.0959 29.4167 44.6899 29.0107 44.4006 28.488C44.1113 27.956 43.9666 27.3307 43.9666 26.612C43.9666 25.9027 44.1066 25.282 44.3866 24.75C44.6759 24.218 45.0679 23.8027 45.5626 23.504C46.0666 23.2053 46.6406 23.056 47.2846 23.056C47.7419 23.056 48.1526 23.1353 48.5166 23.294C48.8899 23.4433 49.2073 23.6627 49.4686 23.952C49.7299 24.2413 49.9259 24.596 50.0566 25.016C50.1966 25.4267 50.2666 25.8933 50.2666 26.416C50.2666 26.5653 50.2199 26.682 50.1266 26.766C50.0426 26.8407 49.9166 26.878 49.7486 26.878H44.9606V26.066H49.4266L49.1886 26.262C49.1886 25.7767 49.1139 25.366 48.9646 25.03C48.8246 24.6847 48.6146 24.4233 48.3346 24.246C48.0639 24.0687 47.7233 23.98 47.3126 23.98C46.8646 23.98 46.4819 24.0873 46.1646 24.302C45.8473 24.5073 45.6046 24.8013 45.4366 25.184C45.2686 25.5573 45.1846 25.9913 45.1846 26.486V26.57C45.1846 27.41 45.3853 28.0447 45.7866 28.474C46.1879 28.9033 46.7666 29.118 47.5226 29.118C47.8213 29.118 48.1246 29.0807 48.4326 29.006C48.7499 28.9313 49.0533 28.796 49.3426 28.6C49.4826 28.516 49.6086 28.4787 49.7206 28.488C49.8419 28.488 49.9399 28.5253 50.0146 28.6C50.0893 28.6653 50.1359 28.7493 50.1546 28.852C50.1733 28.9453 50.1593 29.048 50.1126 29.16C50.0659 29.272 49.9773 29.37 49.8466 29.454C49.5386 29.6687 49.1699 29.8367 48.7406 29.958C48.3206 30.07 47.9146 30.126 47.5226 30.126ZM52.5091 30.098C52.2944 30.098 52.1311 30.042 52.0191 29.93C51.9071 29.818 51.8511 29.6547 51.8511 29.44V23.728C51.8511 23.5133 51.9071 23.3547 52.0191 23.252C52.1311 23.14 52.2851 23.084 52.4811 23.084C52.6771 23.084 52.8264 23.14 52.9291 23.252C53.0411 23.3547 53.0971 23.5133 53.0971 23.728V24.806H52.9571C53.1064 24.246 53.3864 23.8213 53.7971 23.532C54.2078 23.2427 54.7258 23.0793 55.3511 23.042C55.5004 23.0327 55.6218 23.07 55.7151 23.154C55.8084 23.2287 55.8598 23.3593 55.8691 23.546C55.8784 23.7233 55.8364 23.868 55.7431 23.98C55.6498 24.0827 55.5051 24.1433 55.3091 24.162L55.0571 24.176C54.4411 24.2413 53.9651 24.442 53.6291 24.778C53.3024 25.114 53.1391 25.576 53.1391 26.164V29.44C53.1391 29.6547 53.0831 29.818 52.9711 29.93C52.8684 30.042 52.7144 30.098 52.5091 30.098ZM59.066 30.126C58.5994 30.126 58.1747 30.0327 57.792 29.846C57.4187 29.6593 57.1247 29.4073 56.91 29.09C56.7047 28.7727 56.602 28.418 56.602 28.026C56.602 27.522 56.728 27.1253 56.98 26.836C57.232 26.5467 57.6567 26.3413 58.254 26.22C58.8514 26.0893 59.654 26.024 60.662 26.024H61.32V26.836H60.69C59.9714 26.836 59.402 26.8687 58.982 26.934C58.5714 26.9993 58.282 27.116 58.114 27.284C57.946 27.4427 57.862 27.6667 57.862 27.956C57.862 28.32 57.988 28.6187 58.24 28.852C58.5014 29.0853 58.856 29.202 59.304 29.202C59.6587 29.202 59.9714 29.118 60.242 28.95C60.5127 28.7727 60.7274 28.5393 60.886 28.25C61.0447 27.9513 61.124 27.6107 61.124 27.228V25.618C61.124 25.0673 61.012 24.6707 60.788 24.428C60.564 24.176 60.186 24.05 59.654 24.05C59.346 24.05 59.0287 24.092 58.702 24.176C58.3754 24.26 58.0347 24.3907 57.68 24.568C57.54 24.6333 57.4187 24.6567 57.316 24.638C57.2134 24.61 57.1294 24.554 57.064 24.47C57.008 24.3767 56.9754 24.2787 56.966 24.176C56.966 24.064 56.9894 23.9567 57.036 23.854C57.092 23.7513 57.1854 23.6767 57.316 23.63C57.7267 23.4247 58.1327 23.28 58.534 23.196C58.9447 23.1027 59.3274 23.056 59.682 23.056C60.2887 23.056 60.788 23.154 61.18 23.35C61.572 23.5367 61.866 23.8307 62.062 24.232C62.258 24.624 62.356 25.128 62.356 25.744V29.44C62.356 29.6547 62.3047 29.818 62.202 29.93C62.0994 30.042 61.95 30.098 61.754 30.098C61.5674 30.098 61.418 30.042 61.306 29.93C61.2034 29.818 61.152 29.6547 61.152 29.44V28.446H61.278C61.2034 28.7913 61.0634 29.09 60.858 29.342C60.6527 29.594 60.396 29.79 60.088 29.93C59.7894 30.0607 59.4487 30.126 59.066 30.126ZM64.9909 32.618C64.7949 32.618 64.6409 32.562 64.5289 32.45C64.4169 32.338 64.3609 32.1793 64.3609 31.974V23.728C64.3609 23.5133 64.4169 23.3547 64.5289 23.252C64.6409 23.14 64.7949 23.084 64.9909 23.084C65.1962 23.084 65.3502 23.14 65.4529 23.252C65.5649 23.3547 65.6209 23.5133 65.6209 23.728V25.002L65.4669 24.75C65.6162 24.2367 65.9102 23.826 66.3489 23.518C66.7875 23.21 67.3149 23.056 67.9309 23.056C68.5375 23.056 69.0649 23.2007 69.5129 23.49C69.9609 23.77 70.3109 24.176 70.5629 24.708C70.8149 25.2307 70.9409 25.856 70.9409 26.584C70.9409 27.3027 70.8149 27.9327 70.5629 28.474C70.3202 29.006 69.9702 29.4167 69.5129 29.706C69.0649 29.986 68.5375 30.126 67.9309 30.126C67.3242 30.126 66.8015 29.972 66.3629 29.664C65.9242 29.356 65.6302 28.95 65.4809 28.446H65.6349V31.974C65.6349 32.1793 65.5789 32.338 65.4669 32.45C65.3549 32.562 65.1962 32.618 64.9909 32.618ZM67.6369 29.118C68.0382 29.118 68.3882 29.02 68.6869 28.824C68.9949 28.628 69.2329 28.3433 69.4009 27.97C69.5689 27.5967 69.6529 27.1347 69.6529 26.584C69.6529 25.7627 69.4709 25.1373 69.1069 24.708C68.7429 24.2787 68.2529 24.064 67.6369 24.064C67.2262 24.064 66.8669 24.162 66.5589 24.358C66.2602 24.5447 66.0269 24.8247 65.8589 25.198C65.7002 25.5713 65.6209 26.0333 65.6209 26.584C65.6209 27.4053 65.8029 28.0353 66.1669 28.474C66.5309 28.9033 67.0209 29.118 67.6369 29.118ZM73.2077 30.098C73.0117 30.098 72.8577 30.042 72.7457 29.93C72.6337 29.818 72.5777 29.6547 72.5777 29.44V20.676C72.5777 20.4613 72.6337 20.3027 72.7457 20.2C72.8577 20.088 73.0117 20.032 73.2077 20.032C73.413 20.032 73.5717 20.088 73.6837 20.2C73.7957 20.3027 73.8517 20.4613 73.8517 20.676V26.192H73.8797L76.6237 23.518C76.7637 23.378 76.8897 23.2707 77.0017 23.196C77.1137 23.1213 77.2583 23.084 77.4357 23.084C77.613 23.084 77.7483 23.1307 77.8417 23.224C77.935 23.308 77.9817 23.42 77.9817 23.56C77.9817 23.6907 77.9163 23.8213 77.7857 23.952L74.8737 26.78V26.15L78.0517 29.216C78.1823 29.3467 78.243 29.482 78.2337 29.622C78.2337 29.762 78.1823 29.8787 78.0797 29.972C77.9863 30.056 77.8603 30.098 77.7017 30.098C77.515 30.098 77.361 30.0607 77.2397 29.986C77.1277 29.9113 76.997 29.7947 76.8477 29.636L73.8797 26.836H73.8517V29.44C73.8517 29.8787 73.637 30.098 73.2077 30.098ZM81.7887 30.126C81.322 30.126 80.8973 30.0327 80.5147 29.846C80.1413 29.6593 79.8473 29.4073 79.6327 29.09C79.4273 28.7727 79.3247 28.418 79.3247 28.026C79.3247 27.522 79.4507 27.1253 79.7027 26.836C79.9547 26.5467 80.3793 26.3413 80.9767 26.22C81.574 26.0893 82.3767 26.024 83.3847 26.024H84.0427V26.836H83.4127C82.694 26.836 82.1247 26.8687 81.7047 26.934C81.294 26.9993 81.0047 27.116 80.8367 27.284C80.6687 27.4427 80.5847 27.6667 80.5847 27.956C80.5847 28.32 80.7107 28.6187 80.9627 28.852C81.224 29.0853 81.5787 29.202 82.0267 29.202C82.3813 29.202 82.694 29.118 82.9647 28.95C83.2353 28.7727 83.45 28.5393 83.6087 28.25C83.7673 27.9513 83.8467 27.6107 83.8467 27.228V25.618C83.8467 25.0673 83.7347 24.6707 83.5107 24.428C83.2867 24.176 82.9087 24.05 82.3767 24.05C82.0687 24.05 81.7513 24.092 81.4247 24.176C81.098 24.26 80.7573 24.3907 80.4027 24.568C80.2627 24.6333 80.1413 24.6567 80.0387 24.638C79.936 24.61 79.852 24.554 79.7867 24.47C79.7307 24.3767 79.698 24.2787 79.6887 24.176C79.6887 24.064 79.712 23.9567 79.7587 23.854C79.8147 23.7513 79.908 23.6767 80.0387 23.63C80.4493 23.4247 80.8553 23.28 81.2567 23.196C81.6673 23.1027 82.05 23.056 82.4047 23.056C83.0113 23.056 83.5107 23.154 83.9027 23.35C84.2947 23.5367 84.5887 23.8307 84.7847 24.232C84.9807 24.624 85.0787 25.128 85.0787 25.744V29.44C85.0787 29.6547 85.0273 29.818 84.9247 29.93C84.822 30.042 84.6727 30.098 84.4767 30.098C84.29 30.098 84.1407 30.042 84.0287 29.93C83.926 29.818 83.8747 29.6547 83.8747 29.44V28.446H84.0007C83.926 28.7913 83.786 29.09 83.5807 29.342C83.3753 29.594 83.1187 29.79 82.8107 29.93C82.512 30.0607 82.1713 30.126 81.7887 30.126ZM87.7135 30.098C87.5175 30.098 87.3635 30.042 87.2515 29.93C87.1395 29.818 87.0835 29.6547 87.0835 29.44V23.728C87.0835 23.5133 87.1395 23.3547 87.2515 23.252C87.3635 23.14 87.5175 23.084 87.7135 23.084C87.9095 23.084 88.0589 23.14 88.1615 23.252C88.2735 23.3547 88.3295 23.5133 88.3295 23.728V24.876L88.1755 24.666C88.3715 24.134 88.6889 23.7327 89.1275 23.462C89.5755 23.1913 90.0842 23.056 90.6535 23.056C91.2042 23.056 91.6569 23.154 92.0115 23.35C92.3662 23.546 92.6322 23.8447 92.8095 24.246C92.9869 24.6473 93.0755 25.156 93.0755 25.772V29.44C93.0755 29.6547 93.0195 29.818 92.9075 29.93C92.8049 30.042 92.6509 30.098 92.4455 30.098C92.2402 30.098 92.0815 30.042 91.9695 29.93C91.8575 29.818 91.8015 29.6547 91.8015 29.44V25.842C91.8015 25.2353 91.6849 24.792 91.4515 24.512C91.2182 24.232 90.8449 24.092 90.3315 24.092C89.7342 24.092 89.2535 24.2787 88.8895 24.652C88.5349 25.016 88.3575 25.5107 88.3575 26.136V29.44C88.3575 29.8787 88.1429 30.098 87.7135 30.098Z" fill="white"/>
</svg>
