<svg width="2258" height="430" viewBox="0 0 2258 430" fill="none" xmlns="http://www.w3.org/2000/svg">
<path d="M143.613 341.871C132.625 341.871 124.135 338.875 118.142 332.881C112.149 326.638 109.152 318.023 109.152 307.036V130.611H50.3439C41.1044 130.611 33.9875 128.239 28.9932 123.494C24.2486 118.5 21.8763 111.508 21.8763 102.518C21.8763 93.2788 24.2486 86.2867 28.9932 81.5421C33.9875 76.7975 41.1044 74.4252 50.3439 74.4252H236.882C246.121 74.4252 253.113 76.7975 257.858 81.5421C262.852 86.2867 265.349 93.2788 265.349 102.518C265.349 111.508 262.852 118.5 257.858 123.494C253.113 128.239 246.121 130.611 236.882 130.611H178.074V307.036C178.074 318.023 175.202 326.638 169.459 332.881C163.715 338.875 155.1 341.871 143.613 341.871ZM339.632 341.871C329.144 341.871 321.028 338.75 315.285 332.507C309.541 326.264 306.67 317.274 306.67 305.537V187.172C306.67 175.435 309.541 166.446 315.285 160.203C321.028 153.96 329.144 150.838 339.632 150.838C350.37 150.838 358.611 153.96 364.354 160.203C370.347 166.446 373.344 175.435 373.344 187.172V305.537C373.344 317.274 370.472 326.264 364.729 332.507C358.985 338.75 350.62 341.871 339.632 341.871ZM339.632 124.244C327.896 124.244 318.781 121.497 312.288 116.003C306.045 110.509 302.924 102.518 302.924 92.0302C302.924 81.7918 306.045 73.9258 312.288 68.432C318.781 62.9383 327.896 60.1914 339.632 60.1914C351.868 60.1914 361.108 62.9383 367.351 68.432C373.594 73.9258 376.715 81.7918 376.715 92.0302C376.715 102.518 373.594 110.509 367.351 116.003C361.108 121.497 351.868 124.244 339.632 124.244ZM449.476 341.871C438.988 341.871 430.872 338.999 425.129 333.256C419.385 327.512 416.514 319.147 416.514 308.159V184.175C416.514 173.438 419.26 165.197 424.754 159.454C430.498 153.71 438.613 150.838 449.102 150.838C459.59 150.838 467.581 153.71 473.074 159.454C478.568 165.197 481.315 173.438 481.315 184.175V204.777L477.195 186.423C482.439 175.435 490.18 166.695 500.418 160.203C510.906 153.46 523.267 150.089 537.501 150.089C550.986 150.089 562.473 153.335 571.962 159.828C581.701 166.321 588.693 176.185 592.938 189.419H587.694C593.437 177.183 602.053 167.569 613.54 160.577C625.027 153.585 637.762 150.089 651.746 150.089C666.23 150.089 678.091 152.961 687.331 158.704C696.57 164.198 703.437 172.938 707.932 184.925C712.677 196.661 715.049 211.519 715.049 229.499V308.159C715.049 319.147 712.053 327.512 706.059 333.256C700.316 338.999 692.075 341.871 681.338 341.871C670.849 341.871 662.734 338.999 656.99 333.256C651.247 327.512 648.375 319.147 648.375 308.159V231.372C648.375 220.634 646.752 212.893 643.506 208.148C640.259 203.404 634.89 201.031 627.399 201.031C618.159 201.031 611.042 204.278 606.048 210.77C601.303 217.263 598.931 226.502 598.931 238.489V308.159C598.931 319.147 596.059 327.512 590.316 333.256C584.573 338.999 576.332 341.871 565.594 341.871C554.856 341.871 546.616 338.999 540.872 333.256C535.129 327.512 532.257 319.147 532.257 308.159V231.372C532.257 220.634 530.634 212.893 527.388 208.148C524.141 203.404 518.772 201.031 511.281 201.031C502.291 201.031 495.299 204.278 490.305 210.77C485.56 217.263 483.188 226.502 483.188 238.489V308.159C483.188 330.634 471.951 341.871 449.476 341.871ZM857.891 342.62C835.416 342.62 815.938 338.75 799.457 331.009C783.226 323.018 770.74 311.78 762 297.297C753.26 282.813 748.89 265.708 748.89 245.98C748.89 227.002 753.01 210.396 761.251 196.162C769.741 181.678 781.228 170.441 795.711 162.45C810.445 154.21 827.176 150.089 845.904 150.089C859.639 150.089 872.125 152.337 883.362 156.832C894.599 161.077 904.213 167.444 912.204 175.935C920.195 184.175 926.188 194.164 930.184 205.901C934.429 217.637 936.551 230.747 936.551 245.231C936.551 250.225 935.178 253.971 932.431 256.468C929.684 258.716 925.314 259.839 919.321 259.839H804.701V228.375H887.857L881.863 233.245C881.863 224.005 880.615 216.514 878.118 210.77C875.621 205.027 871.875 200.657 866.88 197.66C862.136 194.664 856.143 193.165 848.901 193.165C841.16 193.165 834.417 195.038 828.674 198.784C823.18 202.28 818.935 207.524 815.938 214.516C812.942 221.508 811.444 230.248 811.444 240.736V244.107C811.444 261.837 815.314 274.573 823.055 282.314C831.046 289.805 843.282 293.551 859.764 293.551C865.257 293.551 871.5 292.927 878.492 291.678C885.734 290.18 892.601 288.182 899.094 285.685C905.586 283.188 911.205 282.813 915.95 284.561C920.694 286.06 924.315 288.806 926.812 292.802C929.559 296.548 931.058 300.918 931.307 305.912C931.557 310.657 930.433 315.401 927.936 320.146C925.439 324.641 921.319 328.137 915.575 330.634C906.835 334.629 897.471 337.626 887.482 339.624C877.743 341.621 867.879 342.62 857.891 342.62Z" fill="#FFC01C"/>
<path d="M1005.36 341.871C995.367 341.871 987.626 339.124 982.132 333.631C976.888 328.137 974.266 320.396 974.266 310.407V102.518C974.266 92.2799 977.138 84.5387 982.881 79.2947C988.625 73.8009 996.741 71.054 1007.23 71.054C1015.97 71.054 1022.84 72.802 1027.83 76.2981C1033.07 79.5444 1037.82 85.0381 1042.06 92.7793L1122.6 237.365H1109.49L1189.65 92.7793C1194.14 85.0381 1198.89 79.5444 1203.88 76.2981C1209.12 72.802 1216.12 71.054 1224.86 71.054C1234.84 71.054 1242.46 73.8009 1247.71 79.2947C1253.2 84.5387 1255.95 92.2799 1255.95 102.518V310.407C1255.95 320.396 1253.32 328.137 1248.08 333.631C1242.84 339.124 1235.09 341.871 1224.86 341.871C1214.87 341.871 1207.13 339.124 1201.63 333.631C1196.39 328.137 1193.77 320.396 1193.77 310.407V181.553H1201.63L1141.33 286.434C1137.83 291.928 1134.08 296.048 1130.09 298.795C1126.34 301.542 1121.22 302.915 1114.73 302.915C1108.49 302.915 1103.37 301.542 1099.37 298.795C1095.38 296.048 1091.76 291.928 1088.51 286.434L1027.83 181.179H1036.45V310.407C1036.45 320.396 1033.82 328.137 1028.58 333.631C1023.34 339.124 1015.59 341.871 1005.36 341.871ZM1336.77 341.871C1326.29 341.871 1318.17 338.75 1312.43 332.507C1306.68 326.264 1303.81 317.274 1303.81 305.537V187.172C1303.81 175.435 1306.68 166.446 1312.43 160.203C1318.17 153.96 1326.29 150.838 1336.77 150.838C1347.51 150.838 1355.75 153.96 1361.5 160.203C1367.49 166.446 1370.49 175.435 1370.49 187.172V305.537C1370.49 317.274 1367.61 326.264 1361.87 332.507C1356.13 338.75 1347.76 341.871 1336.77 341.871ZM1336.77 124.244C1325.04 124.244 1315.92 121.497 1309.43 116.003C1303.19 110.509 1300.07 102.518 1300.07 92.0302C1300.07 81.7918 1303.19 73.9258 1309.43 68.432C1315.92 62.9383 1325.04 60.1914 1336.77 60.1914C1349.01 60.1914 1358.25 62.9383 1364.49 68.432C1370.74 73.9258 1373.86 81.7918 1373.86 92.0302C1373.86 102.518 1370.74 110.509 1364.49 116.003C1358.25 121.497 1349.01 124.244 1336.77 124.244ZM1445.87 341.871C1435.38 341.871 1427.27 338.999 1421.52 333.256C1415.78 327.512 1412.91 319.147 1412.91 308.159V184.175C1412.91 173.438 1415.65 165.197 1421.15 159.454C1426.89 153.71 1435.01 150.838 1445.5 150.838C1455.98 150.838 1463.97 153.71 1469.47 159.454C1474.96 165.197 1477.71 173.438 1477.71 184.175V201.78L1473.59 186.423C1479.58 174.686 1488.07 165.696 1499.06 159.454C1510.3 153.211 1523.03 150.089 1537.27 150.089C1552 150.089 1564.11 152.961 1573.6 158.704C1583.09 164.198 1590.21 172.938 1594.95 184.925C1599.69 196.661 1602.07 211.519 1602.07 229.499V308.159C1602.07 319.147 1599.2 327.512 1593.45 333.256C1587.71 338.999 1579.47 341.871 1568.73 341.871C1557.99 341.871 1549.75 338.999 1544.01 333.256C1538.26 327.512 1535.39 319.147 1535.39 308.159V232.121C1535.39 220.884 1533.4 212.893 1529.4 208.148C1525.65 203.404 1520.04 201.031 1512.54 201.031C1502.56 201.031 1494.56 204.278 1488.57 210.77C1482.58 217.013 1479.58 225.503 1479.58 236.241V308.159C1479.58 330.634 1468.34 341.871 1445.87 341.871ZM1715.73 342.62C1700 342.62 1686.01 338.75 1673.78 331.009C1661.79 323.267 1652.3 312.155 1645.31 297.671C1638.57 283.188 1635.2 266.082 1635.2 246.355C1635.2 226.128 1638.57 208.897 1645.31 194.664C1652.3 180.43 1661.79 169.442 1673.78 161.701C1686.01 153.96 1700 150.089 1715.73 150.089C1729.46 150.089 1741.83 153.335 1752.81 159.828C1763.8 166.321 1771.17 174.686 1774.91 184.925H1770.79V104.766C1770.79 93.7782 1773.66 85.4127 1779.41 79.6692C1785.15 73.9258 1793.39 71.054 1804.13 71.054C1814.62 71.054 1822.73 73.9258 1828.48 79.6692C1834.47 85.4127 1837.47 93.7782 1837.47 104.766V308.159C1837.47 319.147 1834.59 327.512 1828.85 333.256C1823.36 338.999 1815.24 341.871 1804.5 341.871C1794.02 341.871 1785.9 338.999 1780.16 333.256C1774.41 327.512 1771.54 319.147 1771.54 308.159V286.809L1775.66 305.163C1772.17 316.4 1764.8 325.515 1753.56 332.507C1742.57 339.249 1729.96 342.62 1715.73 342.62ZM1737.08 293.551C1743.82 293.551 1749.82 291.928 1755.06 288.682C1760.3 285.186 1764.3 280.066 1767.05 273.324C1770.04 266.332 1771.54 257.342 1771.54 246.355C1771.54 229.624 1768.3 217.637 1761.8 210.396C1755.31 202.904 1747.07 199.158 1737.08 199.158C1730.34 199.158 1724.35 200.782 1719.1 204.028C1713.86 207.274 1709.74 212.393 1706.74 219.385C1703.74 226.128 1702.25 235.118 1702.25 246.355C1702.25 262.836 1705.49 274.822 1711.98 282.314C1718.48 289.805 1726.84 293.551 1737.08 293.551ZM1980.22 342.62C1957.75 342.62 1938.27 338.75 1921.79 331.009C1905.56 323.018 1893.07 311.78 1884.33 297.297C1875.59 282.813 1871.22 265.708 1871.22 245.98C1871.22 227.002 1875.34 210.396 1883.58 196.162C1892.07 181.678 1903.56 170.441 1918.04 162.45C1932.78 154.21 1949.51 150.089 1968.24 150.089C1981.97 150.089 1994.46 152.337 2005.69 156.832C2016.93 161.077 2026.55 167.444 2034.54 175.935C2042.53 184.175 2048.52 194.164 2052.52 205.901C2056.76 217.637 2058.88 230.747 2058.88 245.231C2058.88 250.225 2057.51 253.971 2054.76 256.468C2052.02 258.716 2047.65 259.839 2041.65 259.839H1927.03V228.375H2010.19L2004.2 233.245C2004.2 224.005 2002.95 216.514 2000.45 210.77C1997.95 205.027 1994.21 200.657 1989.21 197.66C1984.47 194.664 1978.48 193.165 1971.23 193.165C1963.49 193.165 1956.75 195.038 1951.01 198.784C1945.51 202.28 1941.27 207.524 1938.27 214.516C1935.27 221.508 1933.78 230.248 1933.78 240.736V244.107C1933.78 261.837 1937.65 274.573 1945.39 282.314C1953.38 289.805 1965.61 293.551 1982.1 293.551C1987.59 293.551 1993.83 292.927 2000.82 291.678C2008.07 290.18 2014.93 288.182 2021.43 285.685C2027.92 283.188 2033.54 282.813 2038.28 284.561C2043.03 286.06 2046.65 288.806 2049.14 292.802C2051.89 296.548 2053.39 300.918 2053.64 305.912C2053.89 310.657 2052.77 315.401 2050.27 320.146C2047.77 324.641 2043.65 328.137 2037.91 330.634C2029.17 334.629 2019.8 337.626 2009.81 339.624C2000.08 341.621 1990.21 342.62 1980.22 342.62ZM2125.44 341.871C2114.45 341.871 2105.96 338.999 2099.97 333.256C2094.23 327.512 2091.35 319.147 2091.35 308.159V184.175C2091.35 173.438 2094.1 165.197 2099.6 159.454C2105.34 153.71 2113.45 150.838 2123.94 150.838C2134.43 150.838 2142.42 153.71 2147.92 159.454C2153.41 165.197 2156.16 173.438 2156.16 184.175V199.533H2152.41C2154.91 184.55 2161.28 172.688 2171.51 163.948C2182 155.208 2194.99 150.589 2210.47 150.089C2217.71 149.839 2223.08 151.712 2226.58 155.708C2230.32 159.454 2232.32 166.57 2232.57 177.059C2232.57 186.048 2230.7 193.165 2226.95 198.409C2223.2 203.653 2216.09 206.775 2205.6 207.774L2196.98 208.523C2183.75 209.771 2174.14 213.517 2168.14 219.76C2162.15 225.753 2159.15 234.743 2159.15 246.729V308.159C2159.15 319.147 2156.28 327.512 2150.54 333.256C2144.79 338.999 2136.43 341.871 2125.44 341.871Z" fill="#030A30"/>
</svg>
