<svg width="22" height="22" viewBox="0 0 22 22" fill="none" xmlns="http://www.w3.org/2000/svg">
<path fill-rule="evenodd" clip-rule="evenodd" d="M11.0003 4.81217C8.87307 4.81217 6.83294 5.65722 5.32874 7.16142C3.82454 8.66562 2.97949 10.7058 2.97949 12.833C2.97949 14.9603 3.82454 17.0004 5.32874 18.5046C6.83294 20.0088 8.87307 20.8538 11.0003 20.8538C13.1276 20.8538 15.1677 20.0088 16.6719 18.5046C18.1761 17.0004 19.0212 14.9603 19.0212 12.833C19.0212 10.7058 18.1761 8.66562 16.6719 7.16142C15.1677 5.65722 13.1276 4.81217 11.0003 4.81217ZM11.6878 9.16634C11.6878 8.984 11.6154 8.80914 11.4865 8.68021C11.3575 8.55127 11.1827 8.47884 11.0003 8.47884C10.818 8.47884 10.6431 8.55127 10.5142 8.68021C10.3853 8.80914 10.3128 8.984 10.3128 9.16634V12.833C10.3128 13.0153 10.3853 13.1902 10.5142 13.3191C10.6431 13.4481 10.818 13.5205 11.0003 13.5205C11.1827 13.5205 11.3575 13.4481 11.4865 13.3191C11.6154 13.1902 11.6878 13.0153 11.6878 12.833V9.16634ZM7.56283 1.83301C7.56283 1.65067 7.63526 1.4758 7.76419 1.34687C7.89312 1.21794 8.06799 1.14551 8.25033 1.14551H13.7503C13.9327 1.14551 14.1075 1.21794 14.2365 1.34687C14.3654 1.4758 14.4378 1.65067 14.4378 1.83301C14.4378 2.01534 14.3654 2.19021 14.2365 2.31914C14.1075 2.44808 13.9327 2.52051 13.7503 2.52051H8.25033C8.06799 2.52051 7.89312 2.44808 7.76419 2.31914C7.63526 2.19021 7.56283 2.01534 7.56283 1.83301Z" fill="#FFCE38"/>
</svg>
